IntelOneMono-Regular.ufo
<glyph name="exclam" format="2">
  <advance width="614"/>
  <unicode hex="0021"/>
  <outline>
    <contour>
      <point x="280" y="242" type="line"/>
      <point x="334" y="242" type="line"/>
      <point x="390" y="710" type="line"/>
      <point x="225" y="710" type="line"/>
    </contour>
    <contour>
      <point x="304" y="-15" type="curve" smooth="yes"/>
      <point x="357" y="-15"/>
      <point x="384" y="7"/>
      <point x="384" y="48" type="curve" smooth="yes"/>
      <point x="384" y="90"/>
      <point x="362" y="113"/>
      <point x="306" y="113" type="curve" smooth="yes"/>
      <point x="251" y="113"/>
      <point x="225" y="87"/>
      <point x="225" y="50" type="curve" smooth="yes"/>
      <point x="225" y="6"/>
      <point x="253" y="-15"/>
    </contour>
  </outline>
</glyph>
<glyph name="dollar" format="2">
  <advance width="614"/>
  <unicode hex="0024"/>
  <outline>
    <contour>
      <point x="344" y="-142" type="line"/>
      <point x="344" y="2" type="line"/>
      <point x="468" y="13"/>
      <point x="539" y="80"/>
      <point x="539" y="183" type="curve" smooth="yes"/>
      <point x="539" y="275"/>
      <point x="500" y="327"/>
      <point x="347" y="374" type="curve"/>
      <point x="347" y="583" type="line"/>
      <point x="390" y="580"/>
      <point x="441" y="569"/>
      <point x="504" y="551" type="curve"/>
      <point x="520" y="625" type="line"/>
      <point x="454" y="642"/>
      <point x="406" y="652"/>
      <point x="350" y="654" type="curve"/>
      <point x="350" y="797" type="line"/>
      <point x="286" y="797" type="line"/>
      <point x="286" y="654" type="line"/>
      <point x="157" y="643"/>
      <point x="94" y="570"/>
      <point x="94" y="490" type="curve" smooth="yes"/>
      <point x="94" y="405"/>
      <point x="140" y="340"/>
      <point x="283" y="299" type="curve"/>
      <point x="283" y="72" type="line"/>
      <point x="232" y="77"/>
      <point x="163" y="95"/>
      <point x="90" y="121" type="curve"/>
      <point x="69" y="47" type="line"/>
      <point x="147" y="20"/>
      <point x="214" y="4"/>
      <point x="279" y="1" type="curve"/>
      <point x="279" y="-142" type="line"/>
    </contour>
    <contour>
      <point x="182" y="497" type="curve" smooth="yes"/>
      <point x="182" y="541"/>
      <point x="214" y="578"/>
      <point x="295" y="583" type="curve"/>
      <point x="295" y="382" type="line"/>
      <point x="203" y="413"/>
      <point x="182" y="448"/>
    </contour>
    <contour>
      <point x="450" y="179" type="curve" smooth="yes"/>
      <point x="450" y="120"/>
      <point x="414" y="80"/>
      <point x="335" y="72" type="curve"/>
      <point x="335" y="290" type="line"/>
      <point x="431" y="258"/>
      <point x="450" y="224"/>
    </contour>
  </outline>
</glyph>
<glyph name="percent" format="2">
  <advance width="614"/>
  <unicode hex="0025"/>
  <outline>
    <contour>
      <point x="45" y="493" type="curve" smooth="yes"/>
      <point x="45" y="384"/>
      <point x="91" y="317"/>
      <point x="187" y="317" type="curve" smooth="yes"/>
      <point x="284" y="317"/>
      <point x="334" y="385"/>
      <point x="334" y="494" type="curve" smooth="yes"/>
      <point x="334" y="604"/>
      <point x="284" y="670"/>
      <point x="188" y="670" type="curve" smooth="yes"/>
      <point x="93" y="670"/>
      <point x="45" y="602"/>
    </contour>
    <contour>
      <point x="395" y="377" type="line"/>
      <point x="588" y="654" type="line"/>
      <point x="588" y="660" type="line"/>
      <point x="494" y="660" type="line"/>
      <point x="354" y="377" type="line"/>
    </contour>
    <contour>
      <point x="187" y="615" type="curve" smooth="yes"/>
      <point x="244" y="615"/>
      <point x="269" y="570"/>
      <point x="269" y="493" type="curve" smooth="yes"/>
      <point x="269" y="416"/>
      <point x="245" y="374"/>
      <point x="188" y="374" type="curve" smooth="yes"/>
      <point x="132" y="374"/>
      <point x="109" y="417"/>
      <point x="109" y="494" type="curve" smooth="yes"/>
      <point x="109" y="570"/>
      <point x="131" y="615"/>
    </contour>
    <contour>
      <point x="280" y="161" type="curve" smooth="yes"/>
      <point x="280" y="52"/>
      <point x="330" y="-15"/>
      <point x="426" y="-15" type="curve" smooth="yes"/>
      <point x="521" y="-15"/>
      <point x="569" y="53"/>
      <point x="569" y="162" type="curve" smooth="yes"/>
      <point x="569" y="271"/>
      <point x="523" y="338"/>
      <point x="427" y="338" type="curve" smooth="yes"/>
      <point x="330" y="338"/>
      <point x="280" y="270"/>
    </contour>
    <contour>
      <point x="427" y="40" type="curve" smooth="yes"/>
      <point x="370" y="40"/>
      <point x="345" y="85"/>
      <point x="345" y="162" type="curve" smooth="yes"/>
      <point x="345" y="239"/>
      <point x="369" y="281"/>
      <point x="426" y="281" type="curve" smooth="yes"/>
      <point x="482" y="281"/>
      <point x="506" y="238"/>
      <point x="506" y="161" type="curve" smooth="yes"/>
      <point x="506" y="85"/>
      <point x="483" y="40"/>
    </contour>
    <contour>
      <point x="219" y="278" type="line"/>
      <point x="26" y="1" type="line"/>
      <point x="26" y="-5" type="line"/>
      <point x="120" y="-5" type="line"/>
      <point x="260" y="278" type="line"/>
    </contour>
  </outline>
</glyph>
<glyph name="ampersand" format="2">
  <advance width="614"/>
  <unicode hex="0026"/>
  <outline>
    <contour>
      <point x="474" y="649" type="line"/>
      <point x="400" y="663"/>
      <point x="356" y="669"/>
      <point x="321" y="669" type="curve" smooth="yes"/>
      <point x="211" y="669"/>
      <point x="154" y="605"/>
      <point x="154" y="529" type="curve" smooth="yes"/>
      <point x="154" y="492"/>
      <point x="169" y="453"/>
      <point x="214" y="390" type="curve" smooth="yes"/>
      <point x="231" y="366" type="line"/>
      <point x="88" y="320"/>
      <point x="56" y="266"/>
      <point x="56" y="165" type="curve" smooth="yes"/>
      <point x="56" y="56"/>
      <point x="126" y="-8"/>
      <point x="223" y="-8" type="curve" smooth="yes"/>
      <point x="312" y="-8"/>
      <point x="360" y="22"/>
      <point x="410" y="115" type="curve"/>
      <point x="491" y="0" type="line"/>
      <point x="589" y="0" type="line"/>
      <point x="453" y="190" type="line"/>
      <point x="544" y="403" type="line"/>
      <point x="477" y="429" type="line"/>
      <point x="406" y="249" type="line"/>
      <point x="279" y="432" type="line" smooth="yes"/>
      <point x="242" y="485"/>
      <point x="234" y="511"/>
      <point x="234" y="533" type="curve" smooth="yes"/>
      <point x="234" y="572"/>
      <point x="264" y="600"/>
      <point x="318" y="600" type="curve" smooth="yes"/>
      <point x="353" y="600"/>
      <point x="392" y="595"/>
      <point x="462" y="581" type="curve"/>
    </contour>
    <contour>
      <point x="137" y="173" type="curve" smooth="yes"/>
      <point x="137" y="243"/>
      <point x="150" y="275"/>
      <point x="267" y="314" type="curve"/>
      <point x="367" y="169" type="line"/>
      <point x="328" y="83"/>
      <point x="292" y="65"/>
      <point x="236" y="65" type="curve" smooth="yes"/>
      <point x="179" y="65"/>
      <point x="137" y="101"/>
    </contour>
  </outline>
</glyph>
<glyph name="quotesingle" format="2">
  <advance width="614"/>
  <unicode hex="0027"/>
  <outline>
    <contour>
      <point x="264" y="405" type="line"/>
      <point x="350" y="405" type="line"/>
      <point x="370" y="710" type="line"/>
      <point x="244" y="710" type="line"/>
    </contour>
  </outline>
</glyph>
<glyph name="parenleft" format="2">
  <advance width="614"/>
  <unicode hex="0028"/>
  <outline>
    <contour>
      <point x="115" y="326" type="curve" smooth="yes"/>
      <point x="115" y="148"/>
      <point x="230" y="-11"/>
      <point x="482" y="-147" type="curve"/>
      <point x="523" y="-89" type="line"/>
      <point x="283" y="45"/>
      <point x="204" y="184"/>
      <point x="204" y="329" type="curve" smooth="yes"/>
      <point x="204" y="474"/>
      <point x="283" y="613"/>
      <point x="523" y="747" type="curve"/>
      <point x="482" y="805" type="line"/>
      <point x="229" y="669"/>
      <point x="115" y="506"/>
    </contour>
  </outline>
</glyph>
<glyph name="parenright" format="2">
  <advance width="614"/>
  <unicode hex="0029"/>
  <outline>
    <contour>
      <point x="499" y="332" type="curve" smooth="yes"/>
      <point x="499" y="510"/>
      <point x="384" y="669"/>
      <point x="132" y="805" type="curve"/>
      <point x="91" y="747" type="line"/>
      <point x="331" y="613"/>
      <point x="410" y="474"/>
      <point x="410" y="329" type="curve" smooth="yes"/>
      <point x="410" y="184"/>
      <point x="331" y="45"/>
      <point x="91" y="-89" type="curve"/>
      <point x="132" y="-147" type="line"/>
      <point x="385" y="-11"/>
      <point x="499" y="152"/>
    </contour>
  </outline>
</glyph>
<glyph name="asterisk" format="2">
  <advance width="614"/>
  <unicode hex="002A"/>
  <outline>
    <contour>
      <point x="109" y="227" type="curve"/>
      <point x="187" y="160" type="line"/>
      <point x="229" y="209"/>
      <point x="260" y="292"/>
      <point x="307" y="350" type="curve"/>
      <point x="354" y="292"/>
      <point x="386" y="209"/>
      <point x="428" y="160" type="curve"/>
      <point x="506" y="227" type="line"/>
      <point x="464" y="277"/>
      <point x="385" y="318"/>
      <point x="334" y="373" type="curve"/>
      <point x="406" y="396"/>
      <point x="494" y="393"/>
      <point x="555" y="415" type="curve"/>
      <point x="520" y="513" type="line"/>
      <point x="460" y="492"/>
      <point x="394" y="436"/>
      <point x="325" y="409" type="curve"/>
      <point x="328" y="483"/>
      <point x="360" y="565"/>
      <point x="360" y="630" type="curve"/>
      <point x="256" y="630" type="line"/>
      <point x="256" y="565"/>
      <point x="287" y="484"/>
      <point x="290" y="408" type="curve"/>
      <point x="220" y="436"/>
      <point x="155" y="492"/>
      <point x="95" y="513" type="curve"/>
      <point x="60" y="415" type="line"/>
      <point x="121" y="393"/>
      <point x="209" y="396"/>
      <point x="281" y="373" type="curve"/>
      <point x="230" y="318"/>
      <point x="151" y="277"/>
    </contour>
  </outline>
</glyph>
<glyph name="comma" format="2">
  <advance width="614"/>
  <unicode hex="002C"/>
  <outline>
    <contour>
      <point x="143" y="-152" type="line"/>
      <point x="227" y="-152" type="line"/>
      <point x="342" y="-52"/>
      <point x="374" y="-5"/>
      <point x="392" y="132" type="curve"/>
      <point x="256" y="132" type="line"/>
      <point x="245" y="12"/>
      <point x="230" y="-24"/>
      <point x="143" y="-150" type="curve"/>
    </contour>
  </outline>
</glyph>
<glyph name="period" format="2">
  <advance width="614"/>
  <unicode hex="002E"/>
  <outline>
    <contour>
      <point x="307" y="-15" type="curve" smooth="yes"/>
      <point x="362" y="-15"/>
      <point x="394" y="14"/>
      <point x="394" y="66" type="curve" smooth="yes"/>
      <point x="394" y="118"/>
      <point x="365" y="147"/>
      <point x="307" y="147" type="curve" smooth="yes"/>
      <point x="252" y="147"/>
      <point x="220" y="117"/>
      <point x="220" y="65" type="curve" smooth="yes"/>
      <point x="220" y="14"/>
      <point x="249" y="-15"/>
    </contour>
  </outline>
</glyph>
<glyph name="zero" format="2">
  <advance width="614"/>
  <unicode hex="0030"/>
  <outline>
    <contour>
      <point x="547" y="329" type="curve" smooth="yes"/>
      <point x="547" y="552"/>
      <point x="456" y="670"/>
      <point x="308" y="670" type="curve" smooth="yes"/>
      <point x="160" y="670"/>
      <point x="67" y="549"/>
      <point x="67" y="325" type="curve" smooth="yes"/>
      <point x="67" y="100"/>
      <point x="158" y="-15"/>
      <point x="306" y="-15" type="curve" smooth="yes"/>
      <point x="454" y="-15"/>
      <point x="547" y="103"/>
    </contour>
    <contour>
      <point x="152" y="327" type="curve" smooth="yes"/>
      <point x="152" y="512"/>
      <point x="207" y="596"/>
      <point x="307" y="596" type="curve" smooth="yes"/>
      <point x="375" y="596"/>
      <point x="423" y="556"/>
      <point x="446" y="470" type="curve"/>
      <point x="156" y="246" type="line"/>
      <point x="153" y="271"/>
      <point x="152" y="297"/>
    </contour>
    <contour>
      <point x="462" y="327" type="curve" smooth="yes"/>
      <point x="462" y="143"/>
      <point x="406" y="59"/>
      <point x="307" y="59" type="curve" smooth="yes"/>
      <point x="240" y="59"/>
      <point x="192" y="98"/>
      <point x="168" y="182" type="curve"/>
      <point x="458" y="406" type="line"/>
      <point x="461" y="382"/>
      <point x="462" y="356"/>
    </contour>
  </outline>
</glyph>
<glyph name="two" format="2">
  <advance width="614"/>
  <unicode hex="0032"/>
  <outline>
    <contour>
      <point x="85" y="0" type="line"/>
      <point x="545" y="0" type="line"/>
      <point x="545" y="72" type="line"/>
      <point x="199" y="72" type="line"/>
      <point x="199" y="75" type="line"/>
      <point x="361" y="239" type="line" smooth="yes"/>
      <point x="499" y="379"/>
      <point x="526" y="420"/>
      <point x="526" y="493" type="curve" smooth="yes"/>
      <point x="526" y="601"/>
      <point x="444" y="670"/>
      <point x="329" y="670" type="curve" smooth="yes"/>
      <point x="242" y="670"/>
      <point x="177" y="640"/>
      <point x="71" y="538" type="curve"/>
      <point x="119" y="479" type="line"/>
      <point x="215" y="570"/>
      <point x="260" y="596"/>
      <point x="325" y="596" type="curve" smooth="yes"/>
      <point x="398" y="596"/>
      <point x="437" y="553"/>
      <point x="437" y="490" type="curve" smooth="yes"/>
      <point x="437" y="437"/>
      <point x="418" y="405"/>
      <point x="296" y="279" type="curve" smooth="yes"/>
      <point x="85" y="60" type="line"/>
    </contour>
  </outline>
</glyph>
<glyph name="three" format="2">
  <advance width="614"/>
  <unicode hex="0033"/>
  <outline>
    <contour>
      <point x="76" y="583" type="line"/>
      <point x="390" y="583" type="line"/>
      <point x="390" y="580" type="line"/>
      <point x="185" y="353" type="line"/>
      <point x="201" y="313" type="line"/>
      <point x="232" y="318"/>
      <point x="259" y="321"/>
      <point x="289" y="321" type="curve" smooth="yes"/>
      <point x="403" y="321"/>
      <point x="447" y="278"/>
      <point x="447" y="213" type="curve" smooth="yes"/>
      <point x="447" y="138"/>
      <point x="388" y="89"/>
      <point x="211" y="76" type="curve" smooth="yes"/>
      <point x="91" y="67" type="line"/>
      <point x="98" y="-10" type="line"/>
      <point x="217" y="-2" type="line" smooth="yes"/>
      <point x="447" y="14"/>
      <point x="536" y="96"/>
      <point x="536" y="214" type="curve" smooth="yes"/>
      <point x="536.0" y="307.0"/>
      <point x="474.0" y="388.0"/>
      <point x="310" y="388" type="curve"/>
      <point x="310" y="390" type="line"/>
      <point x="506" y="600" type="line"/>
      <point x="506" y="655" type="line"/>
      <point x="76" y="655" type="line"/>
    </contour>
  </outline>
</glyph>
<glyph name="five" format="2">
  <advance width="614"/>
  <unicode hex="0035"/>
  <outline>
    <contour>
      <point x="536" y="231" type="curve" smooth="yes"/>
      <point x="536" y="353"/>
      <point x="447" y="421"/>
      <point x="343" y="421" type="curve" smooth="yes"/>
      <point x="286" y="421"/>
      <point x="234" y="405"/>
      <point x="185" y="373" type="curve"/>
      <point x="203" y="583" type="line"/>
      <point x="498" y="583" type="line"/>
      <point x="498" y="655" type="line"/>
      <point x="129" y="655" type="line"/>
      <point x="104" y="312" type="line"/>
      <point x="107" y="307" type="line"/>
      <point x="166" y="298" type="line"/>
      <point x="219" y="333"/>
      <point x="273" y="351"/>
      <point x="327" y="351" type="curve" smooth="yes"/>
      <point x="392" y="351"/>
      <point x="448" y="308"/>
      <point x="448" y="232" type="curve" smooth="yes"/>
      <point x="448" y="146"/>
      <point x="391" y="93"/>
      <point x="208" y="76" type="curve" smooth="yes"/>
      <point x="89" y="65" type="line"/>
      <point x="97" y="-10" type="line"/>
      <point x="213" y="0" type="line" smooth="yes"/>
      <point x="448" y="20"/>
      <point x="536" y="105"/>
    </contour>
  </outline>
</glyph>
<glyph name="six" format="2">
  <advance width="614"/>
  <unicode hex="0036"/>
  <outline>
    <contour>
      <point x="540" y="213" type="curve" smooth="yes"/>
      <point x="540" y="344"/>
      <point x="454" y="426"/>
      <point x="325" y="426" type="curve" smooth="yes"/>
      <point x="290" y="426"/>
      <point x="256" y="422"/>
      <point x="217" y="409" type="curve"/>
      <point x="242" y="448"/>
      <point x="277" y="487"/>
      <point x="323" y="528" type="curve" smooth="yes"/>
      <point x="462" y="653" type="line"/>
      <point x="461" y="655" type="line"/>
      <point x="342" y="655" type="line"/>
      <point x="245" y="563" type="line" smooth="yes"/>
      <point x="122" y="446"/>
      <point x="76" y="361"/>
      <point x="76" y="227" type="curve" smooth="yes"/>
      <point x="76" y="69"/>
      <point x="185" y="-15"/>
      <point x="306" y="-15" type="curve" smooth="yes"/>
      <point x="442" y="-15"/>
      <point x="540" y="79"/>
    </contour>
    <contour>
      <point x="164" y="231" type="curve" smooth="yes"/>
      <point x="164" y="269"/>
      <point x="170" y="305"/>
      <point x="183" y="341" type="curve"/>
      <point x="224" y="354"/>
      <point x="264" y="360"/>
      <point x="305" y="360" type="curve" smooth="yes"/>
      <point x="398" y="360"/>
      <point x="451" y="302"/>
      <point x="451" y="215" type="curve" smooth="yes"/>
      <point x="451" y="123"/>
      <point x="396" y="56"/>
      <point x="308" y="56" type="curve" smooth="yes"/>
      <point x="226" y="56"/>
      <point x="164" y="122"/>
    </contour>
  </outline>
</glyph>
<glyph name="eight" format="2">
  <advance width="614"/>
  <unicode hex="0038"/>
  <outline>
    <contour>
      <point x="306" y="-15" type="curve" smooth="yes"/>
      <point x="439" y="-15"/>
      <point x="538" y="58"/>
      <point x="538" y="175" type="curve" smooth="yes"/>
      <point x="538" y="253"/>
      <point x="478" y="314"/>
      <point x="391" y="337" type="curve"/>
      <point x="391" y="342" type="line"/>
      <point x="467" y="366"/>
      <point x="518" y="422"/>
      <point x="518" y="492" type="curve" smooth="yes"/>
      <point x="518" y="601"/>
      <point x="431" y="670"/>
      <point x="309" y="670" type="curve" smooth="yes"/>
      <point x="187" y="670"/>
      <point x="96" y="600"/>
      <point x="96" y="490" type="curve" smooth="yes"/>
      <point x="96" y="420"/>
      <point x="147" y="365"/>
      <point x="224" y="342" type="curve"/>
      <point x="224" y="337" type="line"/>
      <point x="136" y="313"/>
      <point x="76" y="251"/>
      <point x="76" y="173" type="curve" smooth="yes"/>
      <point x="76" y="57"/>
      <point x="175" y="-15"/>
    </contour>
    <contour>
      <point x="308" y="370" type="curve" smooth="yes"/>
      <point x="240" y="370"/>
      <point x="182" y="416"/>
      <point x="182" y="486" type="curve" smooth="yes"/>
      <point x="182" y="558"/>
      <point x="235" y="601"/>
      <point x="307" y="601" type="curve" smooth="yes"/>
      <point x="380" y="601"/>
      <point x="432" y="558"/>
      <point x="432" y="488" type="curve" smooth="yes"/>
      <point x="432" y="418"/>
      <point x="375" y="370"/>
    </contour>
    <contour>
      <point x="308" y="54" type="curve" smooth="yes"/>
      <point x="224" y="54"/>
      <point x="162" y="102"/>
      <point x="162" y="177" type="curve" smooth="yes"/>
      <point x="162" y="254"/>
      <point x="227" y="305"/>
      <point x="307" y="305" type="curve" smooth="yes"/>
      <point x="387" y="305"/>
      <point x="452" y="256"/>
      <point x="452" y="179" type="curve" smooth="yes"/>
      <point x="452" y="101"/>
      <point x="390" y="54"/>
    </contour>
  </outline>
</glyph>
<glyph name="nine" format="2">
  <advance width="614"/>
  <unicode hex="0039"/>
  <outline>
    <contour>
      <point x="370" y="92" type="line" smooth="yes"/>
      <point x="490" y="206"/>
      <point x="540" y="300"/>
      <point x="540" y="428" type="curve" smooth="yes"/>
      <point x="540" y="586"/>
      <point x="435" y="670"/>
      <point x="315" y="670" type="curve" smooth="yes"/>
      <point x="173" y="670"/>
      <point x="75" y="576"/>
      <point x="75" y="442" type="curve" smooth="yes"/>
      <point x="75" y="311"/>
      <point x="161" y="229"/>
      <point x="290" y="229" type="curve" smooth="yes"/>
      <point x="325" y="229"/>
      <point x="359" y="234"/>
      <point x="399" y="247" type="curve"/>
      <point x="374" y="207"/>
      <point x="339" y="168"/>
      <point x="293" y="127" type="curve" smooth="yes"/>
      <point x="153" y="2" type="line"/>
      <point x="154" y="0" type="line"/>
      <point x="273" y="0" type="line"/>
    </contour>
    <contour>
      <point x="452" y="424" type="curve" smooth="yes"/>
      <point x="452" y="386"/>
      <point x="446" y="350"/>
      <point x="433" y="314" type="curve"/>
      <point x="391" y="301"/>
      <point x="351" y="295"/>
      <point x="310" y="295" type="curve" smooth="yes"/>
      <point x="218" y="295"/>
      <point x="164" y="353"/>
      <point x="164" y="440" type="curve" smooth="yes"/>
      <point x="164" y="532"/>
      <point x="220" y="599"/>
      <point x="307" y="599" type="curve" smooth="yes"/>
      <point x="389" y="599"/>
      <point x="452" y="533"/>
    </contour>
  </outline>
</glyph>
<glyph name="colon" format="2">
  <advance width="614"/>
  <unicode hex="003A"/>
  <outline>
    <contour>
      <point x="306" y="322" type="curve" smooth="yes"/>
      <point x="361" y="322"/>
      <point x="394" y="349"/>
      <point x="394" y="399" type="curve" smooth="yes"/>
      <point x="394" y="450"/>
      <point x="366" y="478"/>
      <point x="308" y="478" type="curve" smooth="yes"/>
      <point x="252" y="478"/>
      <point x="220" y="445"/>
      <point x="220" y="401" type="curve" smooth="yes"/>
      <point x="220" y="347"/>
      <point x="255" y="322"/>
    </contour>
    <contour>
      <point x="306" y="-15" type="curve" smooth="yes"/>
      <point x="361" y="-15"/>
      <point x="394" y="13"/>
      <point x="394" y="62" type="curve" smooth="yes"/>
      <point x="394" y="113"/>
      <point x="366" y="142"/>
      <point x="308" y="142" type="curve" smooth="yes"/>
      <point x="252" y="142"/>
      <point x="220" y="108"/>
      <point x="220" y="64" type="curve" smooth="yes"/>
      <point x="220" y="11"/>
      <point x="255" y="-15"/>
    </contour>
  </outline>
</glyph>
<glyph name="semicolon" format="2">
  <advance width="614"/>
  <unicode hex="003B"/>
  <outline>
    <contour>
      <point x="316" y="322" type="curve" smooth="yes"/>
      <point x="371" y="322"/>
      <point x="405" y="349"/>
      <point x="405" y="399" type="curve" smooth="yes"/>
      <point x="405" y="450"/>
      <point x="377" y="478"/>
      <point x="318" y="478" type="curve" smooth="yes"/>
      <point x="263" y="478"/>
      <point x="231" y="445"/>
      <point x="231" y="401" type="curve" smooth="yes"/>
      <point x="231" y="347"/>
      <point x="266" y="322"/>
    </contour>
    <contour>
      <point x="136" y="-152" type="line"/>
      <point x="220" y="-152" type="line"/>
      <point x="335" y="-52"/>
      <point x="366" y="-5"/>
      <point x="385" y="132" type="curve"/>
      <point x="249" y="132" type="line"/>
      <point x="237" y="12"/>
      <point x="223" y="-24"/>
      <point x="136" y="-150" type="curve"/>
    </contour>
  </outline>
</glyph>
<glyph name="question" format="2">
  <advance width="614"/>
  <unicode hex="003F"/>
  <outline>
    <contour>
      <point x="276" y="242" type="line"/>
      <point x="285" y="318"/>
      <point x="290" y="325"/>
      <point x="319" y="340" type="curve" smooth="yes"/>
      <point x="401" y="383" type="line" smooth="yes"/>
      <point x="503" y="435"/>
      <point x="538" y="472"/>
      <point x="538" y="553" type="curve" smooth="yes"/>
      <point x="538" y="660"/>
      <point x="471" y="725"/>
      <point x="335" y="725" type="curve" smooth="yes"/>
      <point x="256" y="725"/>
      <point x="196" y="714"/>
      <point x="66" y="666" type="curve"/>
      <point x="89" y="593" type="line"/>
      <point x="216" y="641"/>
      <point x="277" y="653"/>
      <point x="325" y="653" type="curve" smooth="yes"/>
      <point x="404" y="653"/>
      <point x="449" y="621"/>
      <point x="449" y="554" type="curve" smooth="yes"/>
      <point x="449" y="508"/>
      <point x="429" y="481"/>
      <point x="353" y="443" type="curve" smooth="yes"/>
      <point x="258" y="397" type="line" smooth="yes"/>
      <point x="217" y="377"/>
      <point x="207" y="367"/>
      <point x="207" y="343" type="curve" smooth="yes"/>
      <point x="207" y="329"/>
      <point x="211" y="306"/>
      <point x="221" y="242" type="curve"/>
    </contour>
    <contour>
      <point x="243" y="-15" type="curve" smooth="yes"/>
      <point x="296" y="-15"/>
      <point x="324" y="7"/>
      <point x="324" y="48" type="curve" smooth="yes"/>
      <point x="324" y="90"/>
      <point x="302" y="113"/>
      <point x="245" y="113" type="curve" smooth="yes"/>
      <point x="190" y="113"/>
      <point x="165" y="87"/>
      <point x="165" y="50" type="curve" smooth="yes"/>
      <point x="165" y="6"/>
      <point x="193" y="-15"/>
    </contour>
  </outline>
</glyph>
<glyph name="at" format="2">
  <advance width="614"/>
  <unicode hex="0040"/>
  <outline>
    <contour>
      <point x="492" y="-60" type="curve"/>
      <point x="484" y="-13" type="line"/>
      <point x="425" y="-27"/>
      <point x="382" y="-31"/>
      <point x="346" y="-31" type="curve" smooth="yes"/>
      <point x="191" y="-31"/>
      <point x="111" y="56"/>
      <point x="111" y="320" type="curve" smooth="yes"/>
      <point x="111" y="601"/>
      <point x="193" y="677"/>
      <point x="328" y="677" type="curve" smooth="yes"/>
      <point x="431" y="677"/>
      <point x="482" y="646"/>
      <point x="500" y="515" type="curve"/>
      <point x="402" y="515" type="line" smooth="yes"/>
      <point x="284" y="515"/>
      <point x="218" y="461"/>
      <point x="218" y="323" type="curve" smooth="yes"/>
      <point x="218" y="187"/>
      <point x="270" y="129"/>
      <point x="388" y="129" type="curve" smooth="yes"/>
      <point x="499" y="129"/>
      <point x="560" y="179"/>
      <point x="560" y="358" type="curve" smooth="yes"/>
      <point x="560" y="661"/>
      <point x="484" y="725"/>
      <point x="334" y="725" type="curve" smooth="yes"/>
      <point x="165" y="725"/>
      <point x="60" y="627"/>
      <point x="60" y="315" type="curve" smooth="yes"/>
      <point x="60" y="24"/>
      <point x="152" y="-79"/>
      <point x="341" y="-79" type="curve" smooth="yes"/>
      <point x="390" y="-79"/>
      <point x="432" y="-73"/>
    </contour>
    <contour>
      <point x="285" y="322" type="curve" smooth="yes"/>
      <point x="285" y="422"/>
      <point x="324" y="457"/>
      <point x="400" y="457" type="curve" smooth="yes"/>
      <point x="506" y="457" type="line"/>
      <point x="508" y="427"/>
      <point x="509" y="394"/>
      <point x="509" y="356" type="curve" smooth="yes"/>
      <point x="509" y="227"/>
      <point x="474" y="187"/>
      <point x="392" y="187" type="curve" smooth="yes"/>
      <point x="321" y="187"/>
      <point x="285" y="221"/>
    </contour>
  </outline>
</glyph>
<glyph name="A" format="2">
  <advance width="614"/>
  <unicode hex="0041"/>
  <anchor x="304" y="691" name="aboveUC"/>
  <anchor x="304" y="651" name="aboveUCx"/>
  <anchor x="519" y="-10" name="belowogonek"/>
  <anchor x="304" y="-32" name="below"/>
  <anchor x="304" y="0" name="belowx"/>
  <outline>
    <contour>
      <point x="128" y="0" type="line"/>
      <point x="184" y="178" type="line"/>
      <point x="425" y="178" type="line"/>
      <point x="483" y="0" type="line"/>
      <point x="574" y="0" type="line"/>
      <point x="361" y="655" type="line"/>
      <point x="254" y="655" type="line"/>
      <point x="40" y="0" type="line"/>
    </contour>
    <contour>
      <point x="206" y="248" type="line"/>
      <point x="304" y="566" type="line"/>
      <point x="404" y="248" type="line"/>
    </contour>
  </outline>
</glyph>
<glyph name="B" format="2">
  <advance width="614"/>
  <unicode hex="0042"/>
  <anchor x="308" y="-35" name="below"/>
  <outline>
    <contour>
      <point x="95" y="655" type="line"/>
      <point x="95" y="0" type="line"/>
      <point x="343" y="0" type="line" smooth="yes"/>
      <point x="509" y="0"/>
      <point x="564" y="73"/>
      <point x="564" y="163" type="curve" smooth="yes"/>
      <point x="564" y="256"/>
      <point x="500" y="318"/>
      <point x="378" y="334" type="curve"/>
      <point x="378" y="338" type="line"/>
      <point x="491" y="366"/>
      <point x="532" y="426"/>
      <point x="532" y="502" type="curve" smooth="yes"/>
      <point x="532" y="595"/>
      <point x="472" y="655"/>
      <point x="333" y="655" type="curve" smooth="yes"/>
    </contour>
    <contour>
      <point x="325" y="587" type="line" smooth="yes"/>
      <point x="404" y="587"/>
      <point x="444" y="554"/>
      <point x="444" y="488" type="curve" smooth="yes"/>
      <point x="444" y="424"/>
      <point x="394" y="372"/>
      <point x="280" y="366" type="curve" smooth="yes"/>
      <point x="180" y="361" type="line"/>
      <point x="180" y="587" type="line"/>
    </contour>
    <contour>
      <point x="301" y="295" type="line" smooth="yes"/>
      <point x="424" y="290"/>
      <point x="478" y="239"/>
      <point x="478" y="172" type="curve" smooth="yes"/>
      <point x="478" y="110"/>
      <point x="435" y="68"/>
      <point x="342" y="68" type="curve" smooth="yes"/>
      <point x="180" y="68" type="line"/>
      <point x="180" y="300" type="line"/>
    </contour>
  </outline>
</glyph>
<glyph name="C" format="2">
  <advance width="614"/>
  <unicode hex="0043"/>
  <anchor x="341" y="693" name="aboveUC"/>
  <anchor x="341" y="658" name="aboveUCx"/>
  <anchor x="338" y="-40" name="below"/>
  <anchor x="331" y="-15" name="belowcedilla"/>
  <outline>
    <contour>
      <point x="324" y="-15" type="curve" smooth="yes"/>
      <point x="398" y="-15"/>
      <point x="470" y="10"/>
      <point x="564" y="82" type="curve"/>
      <point x="523" y="141" type="line"/>
      <point x="439" y="77"/>
      <point x="384" y="57"/>
      <point x="336" y="57" type="curve" smooth="yes"/>
      <point x="226" y="57"/>
      <point x="145" y="141"/>
      <point x="145" y="328" type="curve" smooth="yes"/>
      <point x="145" y="500"/>
      <point x="230" y="598"/>
      <point x="340" y="598" type="curve" smooth="yes"/>
      <point x="384" y="598"/>
      <point x="429" y="584"/>
      <point x="514" y="517" type="curve"/>
      <point x="558" y="580" type="line"/>
      <point x="464" y="649"/>
      <point x="411" y="670"/>
      <point x="339" y="670" type="curve" smooth="yes"/>
      <point x="174" y="670"/>
      <point x="56" y="532"/>
      <point x="56" y="326" type="curve" smooth="yes"/>
      <point x="56" y="111"/>
      <point x="153" y="-15"/>
    </contour>
  </outline>
</glyph>
<glyph name="D" format="2">
  <advance width="614"/>
  <unicode hex="0044"/>
  <anchor x="276" y="691" name="aboveUC"/>
  <anchor x="277" y="-35" name="below"/>
  <outline>
    <contour>
      <point x="92" y="655" type="line"/>
      <point x="92" y="0" type="line"/>
      <point x="166" y="0" type="line" smooth="yes"/>
      <point x="425" y="0"/>
      <point x="562" y="126"/>
      <point x="562" y="336" type="curve" smooth="yes"/>
      <point x="562" y="539"/>
      <point x="428" y="655"/>
      <point x="200" y="655" type="curve" smooth="yes"/>
    </contour>
    <contour>
      <point x="224" y="582" type="line" smooth="yes"/>
      <point x="373" y="580"/>
      <point x="473" y="500"/>
      <point x="473" y="334" type="curve" smooth="yes"/>
      <point x="473" y="162"/>
      <point x="375" y="76"/>
      <point x="197" y="73" type="curve" smooth="yes"/>
      <point x="179" y="72" type="line"/>
      <point x="179" y="584" type="line"/>
    </contour>
  </outline>
</glyph>
<glyph name="E" format="2">
  <advance width="614"/>
  <unicode hex="0045"/>
  <anchor x="329" y="691" name="aboveUC"/>
  <anchor x="460" y="-10" name="belowogonek"/>
  <anchor x="329" y="-35" name="below"/>
  <outline>
    <contour>
      <point x="98" y="655" type="line"/>
      <point x="98" y="0" type="line"/>
      <point x="542" y="0" type="line"/>
      <point x="542" y="72" type="line"/>
      <point x="185" y="72" type="line"/>
      <point x="185" y="295" type="line"/>
      <point x="481" y="295" type="line"/>
      <point x="481" y="367" type="line"/>
      <point x="185" y="367" type="line"/>
      <point x="185" y="583" type="line"/>
      <point x="535" y="583" type="line"/>
      <point x="535" y="655" type="line"/>
    </contour>
  </outline>
</glyph>
<glyph name="G" format="2">
  <advance width="614"/>
  <unicode hex="0047"/>
  <anchor x="346" y="694" name="aboveUC"/>
  <anchor x="346" y="659" name="aboveUCx"/>
  <anchor x="357" y="-40" name="below"/>
  <outline>
    <contour>
      <point x="499" y="582" type="curve"/>
      <point x="506" y="655" type="line"/>
      <point x="458" y="662"/>
      <point x="431" y="664"/>
      <point x="397" y="664" type="curve" smooth="yes"/>
      <point x="191" y="664"/>
      <point x="55" y="540"/>
      <point x="55" y="325" type="curve" smooth="yes"/>
      <point x="55" y="105"/>
      <point x="157" y="-15"/>
      <point x="368" y="-15" type="curve" smooth="yes"/>
      <point x="428" y="-15"/>
      <point x="488" y="-6"/>
      <point x="551" y="11" type="curve"/>
      <point x="551" y="353" type="line"/>
      <point x="311" y="353" type="line"/>
      <point x="311" y="283" type="line"/>
      <point x="468" y="283" type="line"/>
      <point x="468" y="68" type="line"/>
      <point x="437" y="61"/>
      <point x="404" y="57"/>
      <point x="375" y="57" type="curve" smooth="yes"/>
      <point x="221" y="57"/>
      <point x="145" y="149"/>
      <point x="145" y="328" type="curve" smooth="yes"/>
      <point x="145" y="504"/>
      <point x="248" y="591"/>
      <point x="399" y="591" type="curve" smooth="yes"/>
      <point x="433" y="591"/>
      <point x="456" y="589"/>
    </contour>
  </outline>
</glyph>
<glyph name="H" format="2">
  <advance width="614"/>
  <unicode hex="0048"/>
  <anchor x="307" y="691" name="aboveUC"/>
  <anchor x="307" y="-35" name="below"/>
  <anchor x="136" y="-10" name="belowcedilla"/>
  <anchor x="307" y="0" name="belowx"/>
  <anchor x="307" y="656" name="aboveUCx"/>
  <outline>
    <contour>
      <point x="92" y="655" type="line"/>
      <point x="92" y="0" type="line"/>
      <point x="179" y="0" type="line"/>
      <point x="179" y="294" type="line"/>
      <point x="435" y="294" type="line"/>
      <point x="435" y="0" type="line"/>
      <point x="522" y="0" type="line"/>
      <point x="522" y="655" type="line"/>
      <point x="435" y="655" type="line"/>
      <point x="435" y="367" type="line"/>
      <point x="179" y="367" type="line"/>
      <point x="179" y="655" type="line"/>
    </contour>
  </outline>
</glyph>
<glyph name="I" format="2">
  <advance width="614"/>
  <unicode hex="0049"/>
  <anchor x="307" y="-35" name="below"/>
  <anchor x="307" y="-9" name="belowogonek"/>
  <anchor x="307" y="691" name="aboveUC"/>
  <anchor x="307" y="661" name="aboveUCx"/>
  <outline>
    <contour>
      <point x="131" y="43" type="line"/>
      <point x="131" y="0" type="line"/>
      <point x="483" y="0" type="line"/>
      <point x="483" y="43" type="line"/>
      <point x="351" y="66" type="line"/>
      <point x="351" y="589" type="line"/>
      <point x="483" y="612" type="line"/>
      <point x="483" y="655" type="line"/>
      <point x="131" y="655" type="line"/>
      <point x="131" y="612" type="line"/>
      <point x="264" y="589" type="line"/>
      <point x="264" y="66" type="line"/>
    </contour>
  </outline>
</glyph>
<glyph name="J" format="2">
  <advance width="614"/>
  <unicode hex="004A"/>
  <anchor x="471" y="691" name="aboveUC"/>
  <anchor x="471" y="651" name="aboveUCx"/>
  <outline>
    <contour>
      <point x="322" y="-12" type="curve" smooth="yes"/>
      <point x="454" y="-12"/>
      <point x="515" y="68"/>
      <point x="515" y="185" type="curve" smooth="yes"/>
      <point x="515" y="655" type="line"/>
      <point x="428" y="655" type="line"/>
      <point x="428" y="190" type="line" smooth="yes"/>
      <point x="428" y="106"/>
      <point x="392" y="64"/>
      <point x="320" y="64" type="curve" smooth="yes"/>
      <point x="269" y="64"/>
      <point x="219" y="84"/>
      <point x="104" y="193" type="curve"/>
      <point x="49" y="132" type="line"/>
      <point x="179" y="13"/>
      <point x="239" y="-12"/>
    </contour>
  </outline>
</glyph>
<glyph name="L" format="2">
  <advance width="614"/>
  <unicode hex="004C"/>
  <anchor x="146" y="691" name="aboveUC"/>
  <anchor x="332" y="-35" name="below"/>
  <anchor x="348" y="655" name="topright"/>
  <outline>
    <contour>
      <point x="98" y="655" type="line"/>
      <point x="98" y="0" type="line"/>
      <point x="543" y="0" type="line"/>
      <point x="543" y="71" type="line"/>
      <point x="185" y="71" type="line"/>
      <point x="185" y="655" type="line"/>
    </contour>
  </outline>
</glyph>
<glyph name="M" format="2">
  <advance width="614"/>
  <unicode hex="004D"/>
  <anchor x="309" y="691" name="aboveUC"/>
  <anchor x="308" y="658" name="aboveUCx"/>
  <anchor x="308" y="-35" name="below"/>
  <anchor x="308" y="0" name="belowx"/>
  <outline>
    <contour>
      <point x="525" y="655" type="line"/>
      <point x="429" y="655" type="line"/>
      <point x="308" y="328" type="line"/>
      <point x="186" y="655" type="line"/>
      <point x="89" y="655" type="line"/>
      <point x="62" y="0" type="line"/>
      <point x="144" y="0" type="line"/>
      <point x="161" y="544" type="line"/>
      <point x="297" y="179" type="line"/>
      <point x="317" y="179" type="line"/>
      <point x="453" y="555" type="line"/>
      <point x="470" y="0" type="line"/>
      <point x="552" y="0" type="line"/>
    </contour>
  </outline>
</glyph>
<glyph name="N" format="2">
  <advance width="614"/>
  <unicode hex="004E"/>
  <anchor x="312" y="691" name="aboveUC"/>
  <anchor x="312" y="656" name="aboveUCx"/>
  <anchor x="308" y="-35" name="below"/>
  <anchor x="308" y="0" name="belowx"/>
  <outline>
    <contour>
      <point x="171" y="0" type="line"/>
      <point x="166" y="549" type="line"/>
      <point x="419" y="0" type="line"/>
      <point x="524" y="0" type="line"/>
      <point x="524" y="655" type="line"/>
      <point x="443" y="655" type="line"/>
      <point x="448" y="119" type="line"/>
      <point x="201" y="655" type="line"/>
      <point x="90" y="655" type="line"/>
      <point x="90" y="0" type="line"/>
    </contour>
  </outline>
</glyph>
<glyph name="O" format="2">
  <advance width="614"/>
  <unicode hex="004F"/>
  <anchor x="308" y="696" name="aboveUC"/>
  <anchor x="308" y="661" name="aboveUCx"/>
  <anchor x="309" y="-40" name="below"/>
  <anchor x="317" y="-15" name="belowogonek"/>
  <outline>
    <contour>
      <point x="558" y="329" type="curve" smooth="yes"/>
      <point x="558" y="552"/>
      <point x="461" y="670"/>
      <point x="308" y="670" type="curve" smooth="yes"/>
      <point x="155" y="670"/>
      <point x="56" y="549"/>
      <point x="56" y="325" type="curve" smooth="yes"/>
      <point x="56" y="100"/>
      <point x="154" y="-15"/>
      <point x="306" y="-15" type="curve" smooth="yes"/>
      <point x="459" y="-15"/>
      <point x="558" y="103"/>
    </contour>
    <contour>
      <point x="145" y="327" type="curve" smooth="yes"/>
      <point x="145" y="513"/>
      <point x="206" y="598"/>
      <point x="307" y="598" type="curve" smooth="yes"/>
      <point x="407" y="598"/>
      <point x="469" y="514"/>
      <point x="469" y="327" type="curve" smooth="yes"/>
      <point x="469" y="142"/>
      <point x="408" y="57"/>
      <point x="307" y="57" type="curve" smooth="yes"/>
      <point x="207" y="57"/>
      <point x="145" y="141"/>
    </contour>
  </outline>
</glyph>
<glyph name="P" format="2">
  <advance width="614"/>
  <unicode hex="0050"/>
  <anchor x="324" y="691" name="aboveUC"/>
  <outline>
    <contour>
      <point x="95" y="655" type="line"/>
      <point x="95" y="0" type="line"/>
      <point x="182" y="0" type="line"/>
      <point x="182" y="229" type="line"/>
      <point x="305" y="229" type="line" smooth="yes"/>
      <point x="469" y="229"/>
      <point x="569" y="306"/>
      <point x="569" y="444" type="curve" smooth="yes"/>
      <point x="569" y="574"/>
      <point x="480" y="655"/>
      <point x="318" y="655" type="curve" smooth="yes"/>
    </contour>
    <contour>
      <point x="318" y="583" type="line" smooth="yes"/>
      <point x="425" y="583"/>
      <point x="481" y="531"/>
      <point x="481" y="442" type="curve" smooth="yes"/>
      <point x="481" y="355"/>
      <point x="421" y="300"/>
      <point x="311" y="300" type="curve" smooth="yes"/>
      <point x="182" y="300" type="line"/>
      <point x="182" y="583" type="line"/>
    </contour>
  </outline>
</glyph>
<glyph name="Q" format="2">
  <advance width="614"/>
  <unicode hex="0051"/>
  <outline>
    <contour>
      <point x="606" y="-106" type="line"/>
      <point x="473" y="58" type="line"/>
      <point x="526" y="116"/>
      <point x="558" y="208"/>
      <point x="558" y="328" type="curve" smooth="yes"/>
      <point x="558" y="553"/>
      <point x="461" y="670"/>
      <point x="308" y="670" type="curve" smooth="yes"/>
      <point x="155" y="670"/>
      <point x="56" y="549"/>
      <point x="56" y="325" type="curve" smooth="yes"/>
      <point x="56" y="101"/>
      <point x="154" y="-14"/>
      <point x="306" y="-14" type="curve" smooth="yes"/>
      <point x="348" y="-14"/>
      <point x="386" y="-4"/>
      <point x="419" y="15" type="curve"/>
      <point x="535" y="-155" type="line"/>
    </contour>
    <contour>
      <point x="145" y="327" type="curve" smooth="yes"/>
      <point x="145" y="513"/>
      <point x="206" y="598"/>
      <point x="307" y="598" type="curve" smooth="yes"/>
      <point x="407" y="598"/>
      <point x="469" y="514"/>
      <point x="469" y="326" type="curve" smooth="yes"/>
      <point x="469" y="229"/>
      <point x="454" y="160"/>
      <point x="425" y="116" type="curve"/>
      <point x="333" y="247" type="line"/>
      <point x="278" y="209" type="line"/>
      <point x="381" y="74" type="line"/>
      <point x="360" y="62"/>
      <point x="335" y="56"/>
      <point x="307" y="56" type="curve" smooth="yes"/>
      <point x="207" y="56"/>
      <point x="145" y="140"/>
    </contour>
  </outline>
</glyph>
<glyph name="R" format="2">
  <advance width="614"/>
  <unicode hex="0052"/>
  <anchor x="324" y="691" name="aboveUC"/>
  <anchor x="318" y="-35" name="below"/>
  <anchor x="318" y="0" name="belowx"/>
  <outline>
    <contour>
      <point x="581" y="4" type="line"/>
      <point x="424" y="187" type="line" smooth="yes"/>
      <point x="373" y="246"/>
      <point x="352" y="260"/>
      <point x="309" y="277" type="curve"/>
      <point x="309" y="283" type="line"/>
      <point x="498" y="308"/>
      <point x="540" y="382"/>
      <point x="540" y="477" type="curve" smooth="yes"/>
      <point x="540" y="585"/>
      <point x="465" y="655"/>
      <point x="334" y="655" type="curve" smooth="yes"/>
      <point x="95" y="655" type="line"/>
      <point x="95" y="0" type="line"/>
      <point x="182" y="0" type="line"/>
      <point x="182" y="260" type="line"/>
      <point x="257" y="253"/>
      <point x="283" y="237"/>
      <point x="332" y="173" type="curve" smooth="yes"/>
      <point x="471" y="0" type="line"/>
      <point x="581" y="0" type="line"/>
    </contour>
    <contour>
      <point x="319" y="585" type="line" smooth="yes"/>
      <point x="410" y="585"/>
      <point x="453" y="540"/>
      <point x="453" y="470" type="curve" smooth="yes"/>
      <point x="453" y="396"/>
      <point x="415" y="347"/>
      <point x="228" y="325" type="curve" smooth="yes"/>
      <point x="182" y="319" type="line"/>
      <point x="182" y="585" type="line"/>
    </contour>
  </outline>
</glyph>
<glyph name="S" format="2">
  <advance width="614"/>
  <unicode hex="0053"/>
  <guideline x="351" y="399" angle="87.65957069167473" identifier="ylsDMwWxaG"/>
  <anchor x="315" y="696" name="aboveUC"/>
  <anchor x="315" y="661" name="aboveUCx"/>
  <anchor x="304" y="-37" name="below"/>
  <anchor x="306" y="-15" name="belowcedilla"/>
  <outline>
    <contour>
      <point x="308" y="59" type="curve" smooth="yes"/>
      <point x="254" y="59"/>
      <point x="176" y="79"/>
      <point x="91" y="110" type="curve"/>
      <point x="70" y="36" type="line"/>
      <point x="158" y="2"/>
      <point x="233" y="-13"/>
      <point x="307" y="-13" type="curve" smooth="yes"/>
      <point x="454" y="-13"/>
      <point x="540" y="59"/>
      <point x="540" y="177" type="curve" smooth="yes"/>
      <point x="540" y="273"/>
      <point x="494" y="323"/>
      <point x="372" y="362" type="curve" smooth="yes"/>
      <point x="300" y="385" type="line" smooth="yes"/>
      <point x="210" y="413"/>
      <point x="184" y="447"/>
      <point x="184" y="503" type="curve" smooth="yes"/>
      <point x="184" y="555"/>
      <point x="221" y="596"/>
      <point x="318" y="596" type="curve" smooth="yes"/>
      <point x="367" y="596"/>
      <point x="426" y="585"/>
      <point x="506" y="561" type="curve"/>
      <point x="521" y="636" type="line"/>
      <point x="443" y="658"/>
      <point x="390" y="668"/>
      <point x="320" y="668" type="curve" smooth="yes"/>
      <point x="168" y="668"/>
      <point x="96" y="585"/>
      <point x="96" y="497" type="curve" smooth="yes"/>
      <point x="96" y="406"/>
      <point x="143" y="346"/>
      <point x="266" y="308" type="curve" smooth="yes"/>
      <point x="337" y="285" type="line" smooth="yes"/>
      <point x="425" y="258"/>
      <point x="452" y="224"/>
      <point x="452" y="173" type="curve" smooth="yes"/>
      <point x="452" y="103"/>
      <point x="406" y="59"/>
    </contour>
  </outline>
</glyph>
<glyph name="U" format="2">
  <advance width="614"/>
  <unicode hex="0055"/>
  <anchor x="307" y="691" name="aboveUC"/>
  <anchor x="307" y="656" name="aboveUCx"/>
  <anchor x="307" y="-40" name="below"/>
  <anchor x="321" y="-15" name="belowogonek"/>
  <outline>
    <contour>
      <point x="451" y="232" type="line" smooth="yes"/>
      <point x="451" y="113"/>
      <point x="402" y="61"/>
      <point x="307" y="61" type="curve" smooth="yes"/>
      <point x="214" y="61"/>
      <point x="164" y="115"/>
      <point x="164" y="232" type="curve" smooth="yes"/>
      <point x="164" y="655" type="line"/>
      <point x="77" y="655" type="line"/>
      <point x="77" y="232" type="line" smooth="yes"/>
      <point x="77" y="67"/>
      <point x="156" y="-15"/>
      <point x="305" y="-15" type="curve" smooth="yes"/>
      <point x="457" y="-15"/>
      <point x="537" y="65"/>
      <point x="537" y="232" type="curve" smooth="yes"/>
      <point x="537" y="655" type="line"/>
      <point x="451" y="655" type="line"/>
    </contour>
  </outline>
</glyph>
<glyph name="V" format="2">
  <advance width="614"/>
  <unicode hex="0056"/>
  <anchor x="308" y="-35" name="below"/>
  <outline>
    <contour>
      <point x="40" y="655" type="line"/>
      <point x="255" y="0" type="line"/>
      <point x="360" y="0" type="line"/>
      <point x="574" y="655" type="line"/>
      <point x="488" y="655" type="line"/>
      <point x="310" y="98" type="line"/>
      <point x="131" y="655" type="line"/>
    </contour>
  </outline>
</glyph>
<glyph name="X" format="2">
  <advance width="614"/>
  <unicode hex="0058"/>
  <anchor x="307" y="691" name="aboveUC"/>
  <anchor x="307" y="658" name="aboveUCx"/>
  <anchor x="307" y="-35" name="below"/>
  <anchor x="307" y="-2" name="belowx"/>
  <outline>
    <contour>
      <point x="46" y="0" type="line"/>
      <point x="141" y="0" type="line"/>
      <point x="304" y="273" type="line"/>
      <point x="465" y="0" type="line"/>
      <point x="568" y="0" type="line"/>
      <point x="354" y="341" type="line"/>
      <point x="550" y="655" type="line"/>
      <point x="452" y="655" type="line"/>
      <point x="307" y="403" type="line"/>
      <point x="161" y="655" type="line"/>
      <point x="60" y="655" type="line"/>
      <point x="257" y="336" type="line"/>
    </contour>
  </outline>
</glyph>
<glyph name="a" format="2">
  <advance width="614"/>
  <unicode hex="0061"/>
  <anchor x="300" y="-35" name="below"/>
  <anchor x="469" y="-10" name="belowogonek"/>
  <anchor x="306" y="507" name="aboveLC"/>
  <anchor x="306" y="472" name="aboveLCx"/>
  <outline>
    <contour>
      <point x="489" y="117" type="curve" smooth="yes"/>
      <point x="489" y="321" type="line" smooth="yes"/>
      <point x="489" y="427"/>
      <point x="441" y="473"/>
      <point x="286" y="473" type="curve" smooth="yes"/>
      <point x="243" y="473"/>
      <point x="179" y="467"/>
      <point x="109" y="455" type="curve"/>
      <point x="118" y="386" type="line"/>
      <point x="184" y="397"/>
      <point x="246" y="403"/>
      <point x="283" y="403" type="curve" smooth="yes"/>
      <point x="382" y="403"/>
      <point x="405" y="382"/>
      <point x="405" y="323" type="curve" smooth="yes"/>
      <point x="405" y="288" type="line"/>
      <point x="232" y="268" type="line" smooth="yes"/>
      <point x="108" y="254"/>
      <point x="67" y="214"/>
      <point x="67" y="125" type="curve" smooth="yes"/>
      <point x="67" y="40"/>
      <point x="125" y="-7"/>
      <point x="208" y="-7" type="curve" smooth="yes"/>
      <point x="280" y="-7"/>
      <point x="340" y="18"/>
      <point x="399" y="66" type="curve"/>
      <point x="408" y="66" type="line"/>
      <point x="421" y="20"/>
      <point x="454" y="1"/>
      <point x="522" y="-2" type="curve" smooth="yes"/>
      <point x="569" y="-4" type="line"/>
      <point x="575" y="62" type="line"/>
      <point x="530" y="65" type="line" smooth="yes"/>
      <point x="496" y="68"/>
      <point x="489" y="78"/>
    </contour>
    <contour>
      <point x="227" y="60" type="curve" smooth="yes"/>
      <point x="175" y="60"/>
      <point x="152" y="86"/>
      <point x="152" y="131" type="curve" smooth="yes"/>
      <point x="152" y="172"/>
      <point x="167" y="200"/>
      <point x="247" y="211" type="curve" smooth="yes"/>
      <point x="405" y="232" type="line"/>
      <point x="405" y="137" type="line"/>
      <point x="324" y="77"/>
      <point x="278" y="60"/>
    </contour>
  </outline>
</glyph>
<glyph name="b" format="2">
  <advance width="614"/>
  <unicode hex="0062"/>
  <anchor x="310" y="-35" name="below"/>
  <outline>
    <contour>
      <point x="178" y="710" type="line"/>
      <point x="92" y="710" type="line"/>
      <point x="92" y="-1" type="line"/>
      <point x="117" y="-1" type="line"/>
      <point x="160" y="30" type="line"/>
      <point x="206" y="4"/>
      <point x="254" y="-8"/>
      <point x="304" y="-8" type="curve" smooth="yes"/>
      <point x="454" y="-8"/>
      <point x="555" y="102"/>
      <point x="555" y="239" type="curve" smooth="yes"/>
      <point x="555" y="383"/>
      <point x="462" y="475"/>
      <point x="348" y="475" type="curve" smooth="yes"/>
      <point x="285" y="475"/>
      <point x="236" y="453"/>
      <point x="178" y="393" type="curve"/>
    </contour>
    <contour>
      <point x="324" y="403" type="curve" smooth="yes"/>
      <point x="402" y="403"/>
      <point x="467" y="339"/>
      <point x="467" y="236" type="curve" smooth="yes"/>
      <point x="467" y="148"/>
      <point x="407" y="64"/>
      <point x="292" y="64" type="curve" smooth="yes"/>
      <point x="256" y="64"/>
      <point x="219" y="75"/>
      <point x="178" y="102" type="curve"/>
      <point x="178" y="324" type="line"/>
      <point x="240" y="386"/>
      <point x="281" y="403"/>
    </contour>
  </outline>
</glyph>
<glyph name="c" format="2">
  <advance width="614"/>
  <unicode hex="0063"/>
  <anchor x="306" y="-15" name="belowcedilla"/>
  <anchor x="325" y="472" name="aboveLCx"/>
  <anchor x="319" y="-38" name="below"/>
  <anchor x="325" y="507" name="aboveLC"/>
  <outline>
    <contour>
      <point x="328" y="407" type="curve" smooth="yes"/>
      <point x="373" y="407"/>
      <point x="415" y="399"/>
      <point x="503" y="342" type="curve"/>
      <point x="543" y="405" type="line"/>
      <point x="447" y="468"/>
      <point x="387" y="480"/>
      <point x="327" y="480" type="curve" smooth="yes"/>
      <point x="182" y="480"/>
      <point x="70" y="374"/>
      <point x="70" y="236" type="curve" smooth="yes"/>
      <point x="70" y="79"/>
      <point x="173" y="-15"/>
      <point x="315" y="-15" type="curve" smooth="yes"/>
      <point x="385" y="-15"/>
      <point x="447" y="1"/>
      <point x="545" y="58" type="curve"/>
      <point x="508" y="118" type="line"/>
      <point x="420" y="69"/>
      <point x="369" y="58"/>
      <point x="319" y="58" type="curve" smooth="yes"/>
      <point x="227" y="58"/>
      <point x="159" y="129"/>
      <point x="159" y="235" type="curve" smooth="yes"/>
      <point x="159" y="336"/>
      <point x="228" y="407"/>
    </contour>
  </outline>
</glyph>
<glyph name="d" format="2">
  <advance width="614"/>
  <unicode hex="0064"/>
  <anchor x="311" y="-35" name="below"/>
  <anchor x="633" y="788" name="topright"/>
  <outline>
    <contour>
      <point x="266" y="-9" type="curve" smooth="yes"/>
      <point x="331" y="-9"/>
      <point x="381" y="14"/>
      <point x="441" y="77" type="curve"/>
      <point x="449" y="0" type="line"/>
      <point x="522" y="0" type="line"/>
      <point x="522" y="710" type="line"/>
      <point x="436" y="710" type="line"/>
      <point x="436" y="419" type="line"/>
      <point x="386" y="461"/>
      <point x="340" y="472"/>
      <point x="294" y="472" type="curve" smooth="yes"/>
      <point x="159" y="472"/>
      <point x="59" y="370"/>
      <point x="59" y="227" type="curve" smooth="yes"/>
      <point x="59" y="83"/>
      <point x="152" y="-9"/>
    </contour>
    <contour>
      <point x="147" y="230" type="curve" smooth="yes"/>
      <point x="147" y="327"/>
      <point x="206" y="402"/>
      <point x="307" y="402" type="curve" smooth="yes"/>
      <point x="339" y="402"/>
      <point x="382" y="392"/>
      <point x="436" y="343" type="curve"/>
      <point x="436" y="142" type="line"/>
      <point x="374" y="79"/>
      <point x="333" y="62"/>
      <point x="290" y="62" type="curve" smooth="yes"/>
      <point x="212" y="62"/>
      <point x="147" y="127"/>
    </contour>
  </outline>
</glyph>
<glyph name="e" format="2">
  <advance width="614"/>
  <unicode hex="0065"/>
  <anchor x="319" y="-37" name="below"/>
  <anchor x="391" y="-10" name="belowogonek"/>
  <anchor x="318" y="471" name="aboveLCx"/>
  <anchor x="318" y="507" name="aboveLC"/>
  <outline>
    <contour>
      <point x="357" y="63" type="line" smooth="yes"/>
      <point x="228" y="67"/>
      <point x="169" y="109"/>
      <point x="160" y="202" type="curve"/>
      <point x="537" y="202" type="line"/>
      <point x="539" y="211"/>
      <point x="540" y="223"/>
      <point x="540" y="238" type="curve" smooth="yes"/>
      <point x="540" y="397"/>
      <point x="452" y="480"/>
      <point x="317" y="480" type="curve" smooth="yes"/>
      <point x="177" y="480"/>
      <point x="75" y="373"/>
      <point x="75" y="225" type="curve" smooth="yes"/>
      <point x="75" y="81"/>
      <point x="152" y="-2"/>
      <point x="332" y="-5" type="curve" smooth="yes"/>
      <point x="450" y="-7" type="line"/>
      <point x="453" y="60" type="line"/>
    </contour>
    <contour>
      <point x="317" y="412" type="curve" smooth="yes"/>
      <point x="395" y="412"/>
      <point x="448" y="368"/>
      <point x="455" y="266" type="curve"/>
      <point x="162" y="266" type="line"/>
      <point x="175" y="360"/>
      <point x="239" y="412"/>
    </contour>
  </outline>
</glyph>
<glyph name="g" format="2">
  <advance width="614"/>
  <unicode hex="0067"/>
  <anchor x="306" y="504" name="aboveLC"/>
  <anchor x="306" y="469" name="aboveLCx"/>
  <outline>
    <contour>
      <point x="59" y="240" type="curve" smooth="yes"/>
      <point x="59" y="102"/>
      <point x="153" y="15"/>
      <point x="265" y="15" type="curve" smooth="yes"/>
      <point x="329" y="15"/>
      <point x="379" y="36"/>
      <point x="437" y="97" type="curve"/>
      <point x="437" y="-12" type="line" smooth="yes"/>
      <point x="437" y="-109"/>
      <point x="400" y="-151"/>
      <point x="299" y="-157" type="curve" smooth="yes"/>
      <point x="135" y="-166" type="line"/>
      <point x="138" y="-239" type="line"/>
      <point x="310" y="-230" type="line" smooth="yes"/>
      <point x="465" y="-222"/>
      <point x="522" y="-157"/>
      <point x="522" y="-9" type="curve" smooth="yes"/>
      <point x="522" y="469" type="line"/>
      <point x="499" y="469" type="line"/>
      <point x="451" y="439" type="line"/>
      <point x="406" y="464"/>
      <point x="359" y="475"/>
      <point x="310" y="475" type="curve" smooth="yes"/>
      <point x="161" y="475"/>
      <point x="59" y="370"/>
    </contour>
    <contour>
      <point x="147" y="242" type="curve" smooth="yes"/>
      <point x="147" y="325"/>
      <point x="207" y="403"/>
      <point x="322" y="403" type="curve" smooth="yes"/>
      <point x="358" y="403"/>
      <point x="395" y="392"/>
      <point x="437" y="365" type="curve"/>
      <point x="437" y="167" type="line"/>
      <point x="374" y="103"/>
      <point x="334" y="86"/>
      <point x="290" y="86" type="curve" smooth="yes"/>
      <point x="213" y="86"/>
      <point x="147" y="146"/>
    </contour>
  </outline>
</glyph>
<glyph name="h" format="2">
  <advance width="614"/>
  <unicode hex="0068"/>
  <anchor x="313" y="-35" name="below"/>
  <anchor x="313" y="0" name="belowx"/>
  <anchor x="138" y="-10" name="belowcedilla"/>
  <anchor x="139" y="740" name="aboveLC"/>
  <anchor x="139" y="679" name="aboveLCx"/>
  <outline>
    <contour>
      <point x="181" y="710" type="line"/>
      <point x="95" y="710" type="line"/>
      <point x="95" y="0" type="line"/>
      <point x="181" y="0" type="line"/>
      <point x="181" y="286" type="line"/>
      <point x="269" y="369"/>
      <point x="312" y="394"/>
      <point x="357" y="394" type="curve" smooth="yes"/>
      <point x="413" y="394"/>
      <point x="436" y="366"/>
      <point x="436" y="309" type="curve" smooth="yes"/>
      <point x="436" y="0" type="line"/>
      <point x="522" y="0" type="line"/>
      <point x="522" y="324" type="line" smooth="yes"/>
      <point x="522" y="415"/>
      <point x="476" y="472"/>
      <point x="381" y="472" type="curve" smooth="yes"/>
      <point x="317" y="472"/>
      <point x="265" y="444"/>
      <point x="181" y="365" type="curve"/>
    </contour>
  </outline>
</glyph>
<glyph name="i" format="2">
  <advance width="614"/>
  <unicode hex="0069"/>
  <anchor x="321" y="-35" name="below"/>
  <anchor x="321" y="-10" name="belowogonek"/>
  <outline>
    <contour>
      <point x="310" y="603" type="curve" smooth="yes"/>
      <point x="356" y="603"/>
      <point x="385" y="626"/>
      <point x="385" y="665" type="curve" smooth="yes"/>
      <point x="385" y="707"/>
      <point x="360" y="730"/>
      <point x="312" y="730" type="curve" smooth="yes"/>
      <point x="265" y="730"/>
      <point x="237" y="703"/>
      <point x="237" y="667" type="curve" smooth="yes"/>
      <point x="237" y="625"/>
      <point x="267" y="603"/>
    </contour>
    <contour>
      <point x="114" y="72" type="line"/>
      <point x="114" y="0" type="line"/>
      <point x="531" y="0" type="line"/>
      <point x="531" y="72" type="line"/>
      <point x="365" y="72" type="line"/>
      <point x="365" y="465" type="line"/>
      <point x="134" y="465" type="line"/>
      <point x="134" y="393" type="line"/>
      <point x="279" y="393" type="line"/>
      <point x="279" y="72" type="line"/>
    </contour>
  </outline>
</glyph>
<glyph name="j" format="2">
  <advance width="614"/>
  <unicode hex="006A"/>
  <outline>
    <contour>
      <point x="362" y="603" type="curve" smooth="yes"/>
      <point x="408" y="603"/>
      <point x="437" y="625"/>
      <point x="437" y="665" type="curve" smooth="yes"/>
      <point x="437" y="705"/>
      <point x="412" y="729"/>
      <point x="363" y="729" type="curve" smooth="yes"/>
      <point x="317" y="729"/>
      <point x="288" y="701"/>
      <point x="288" y="667" type="curve" smooth="yes"/>
      <point x="288" y="624"/>
      <point x="319" y="603"/>
    </contour>
    <contour>
      <point x="418" y="-49" type="curve" smooth="yes"/>
      <point x="418" y="465" type="line"/>
      <point x="119" y="465" type="line"/>
      <point x="119" y="393" type="line"/>
      <point x="332" y="393" type="line"/>
      <point x="332" y="-50" type="line" smooth="yes"/>
      <point x="332" y="-122"/>
      <point x="303" y="-149"/>
      <point x="228" y="-155" type="curve" smooth="yes"/>
      <point x="100" y="-164" type="line"/>
      <point x="103" y="-238" type="line"/>
      <point x="234" y="-230" type="line" smooth="yes"/>
      <point x="368" y="-222"/>
      <point x="418" y="-173"/>
    </contour>
  </outline>
</glyph>
<glyph name="l" format="2">
  <advance width="614"/>
  <unicode hex="006C"/>
  <anchor x="303" y="-35" name="below"/>
  <anchor x="277" y="752" name="aboveLC"/>
  <anchor x="277" y="716" name="aboveLCx"/>
  <anchor x="478" y="788" name="topright"/>
  <outline>
    <contour>
      <point x="242" y="165" type="line" smooth="yes"/>
      <point x="242" y="47"/>
      <point x="283" y="7"/>
      <point x="404" y="0" type="curve" smooth="yes"/>
      <point x="523" y="-7" type="line"/>
      <point x="528" y="67" type="line"/>
      <point x="419" y="74" type="line" smooth="yes"/>
      <point x="353" y="77"/>
      <point x="327" y="102"/>
      <point x="327" y="174" type="curve" smooth="yes"/>
      <point x="327" y="710" type="line"/>
      <point x="59" y="710" type="line"/>
      <point x="59" y="638" type="line"/>
      <point x="242" y="638" type="line"/>
    </contour>
  </outline>
</glyph>
<glyph name="m" format="2">
  <advance width="614"/>
  <unicode hex="006D"/>
  <anchor x="309" y="502" name="aboveLC"/>
  <anchor x="309" y="-35" name="below"/>
  <outline>
    <contour>
      <point x="117" y="465" type="line"/>
      <point x="53" y="465" type="line"/>
      <point x="53" y="0" type="line"/>
      <point x="131" y="0" type="line"/>
      <point x="131" y="298" type="line"/>
      <point x="192" y="372"/>
      <point x="217" y="387"/>
      <point x="240" y="387" type="curve" smooth="yes"/>
      <point x="261" y="387"/>
      <point x="270" y="377"/>
      <point x="270" y="355" type="curve" smooth="yes"/>
      <point x="270" y="0" type="line"/>
      <point x="346" y="0" type="line"/>
      <point x="346" y="299" type="line"/>
      <point x="407" y="372"/>
      <point x="432" y="387"/>
      <point x="454" y="387" type="curve" smooth="yes"/>
      <point x="475" y="387"/>
      <point x="484" y="378"/>
      <point x="484" y="354" type="curve" smooth="yes"/>
      <point x="484" y="0" type="line"/>
      <point x="563" y="0" type="line"/>
      <point x="563" y="379" type="line" smooth="yes"/>
      <point x="563" y="444"/>
      <point x="537" y="469"/>
      <point x="488" y="469" type="curve" smooth="yes"/>
      <point x="446" y="469"/>
      <point x="406" y="446"/>
      <point x="353" y="366" type="curve"/>
      <point x="345" y="366" type="line"/>
      <point x="345" y="383" type="line"/>
      <point x="345" y="446"/>
      <point x="319" y="470"/>
      <point x="272" y="470" type="curve" smooth="yes"/>
      <point x="232" y="470"/>
      <point x="189" y="446"/>
      <point x="133" y="362" type="curve"/>
      <point x="126" y="362" type="line"/>
    </contour>
  </outline>
</glyph>
<glyph name="n" format="2">
  <advance width="614"/>
  <unicode hex="006E"/>
  <anchor x="307" y="502" name="aboveLC"/>
  <anchor x="313" y="-35" name="below"/>
  <anchor x="313" y="0" name="belowx"/>
  <outline>
    <contour>
      <point x="168" y="465" type="line"/>
      <point x="95" y="465" type="line"/>
      <point x="95" y="0" type="line"/>
      <point x="181" y="0" type="line"/>
      <point x="181" y="286" type="line"/>
      <point x="269" y="369"/>
      <point x="312" y="394"/>
      <point x="357" y="394" type="curve" smooth="yes"/>
      <point x="413" y="394"/>
      <point x="436" y="366"/>
      <point x="436" y="309" type="curve" smooth="yes"/>
      <point x="436" y="0" type="line"/>
      <point x="522" y="0" type="line"/>
      <point x="522" y="324" type="line" smooth="yes"/>
      <point x="522" y="415"/>
      <point x="476" y="472"/>
      <point x="381" y="472" type="curve" smooth="yes"/>
      <point x="316" y="472"/>
      <point x="264" y="444"/>
      <point x="177" y="361" type="curve"/>
    </contour>
  </outline>
</glyph>
<glyph name="o" format="2">
  <advance width="614"/>
  <unicode hex="006F"/>
  <anchor x="307" y="507" name="aboveLC"/>
  <anchor x="307" y="472" name="aboveLCx"/>
  <anchor x="307" y="-40" name="below"/>
  <anchor x="314" y="-15" name="belowogonek"/>
  <outline>
    <contour>
      <point x="305" y="-15" type="curve" smooth="yes"/>
      <point x="449" y="-15"/>
      <point x="550" y="85"/>
      <point x="550" y="231" type="curve" smooth="yes"/>
      <point x="550" y="379"/>
      <point x="450" y="480"/>
      <point x="309" y="480" type="curve" smooth="yes"/>
      <point x="165" y="480"/>
      <point x="64" y="377"/>
      <point x="64" y="234" type="curve" smooth="yes"/>
      <point x="64" y="84"/>
      <point x="164" y="-15"/>
    </contour>
    <contour>
      <point x="307" y="57" type="curve" smooth="yes"/>
      <point x="214" y="57"/>
      <point x="151" y="123"/>
      <point x="151" y="233" type="curve" smooth="yes"/>
      <point x="151" y="342"/>
      <point x="215" y="409"/>
      <point x="307" y="409" type="curve" smooth="yes"/>
      <point x="400" y="409"/>
      <point x="463" y="338"/>
      <point x="463" y="232" type="curve" smooth="yes"/>
      <point x="463" y="120"/>
      <point x="400" y="57"/>
    </contour>
  </outline>
</glyph>
<glyph name="p" format="2">
  <advance width="614"/>
  <unicode hex="0070"/>
  <anchor x="326" y="502" name="aboveLC"/>
  <outline>
    <contour>
      <point x="92" y="-230" type="line"/>
      <point x="178" y="-230" type="line"/>
      <point x="178" y="55" type="line"/>
      <point x="233" y="5"/>
      <point x="281" y="-7"/>
      <point x="326" y="-7" type="curve" smooth="yes"/>
      <point x="455" y="-7"/>
      <point x="555" y="94"/>
      <point x="555" y="238" type="curve" smooth="yes"/>
      <point x="555" y="382"/>
      <point x="461" y="474"/>
      <point x="349" y="474" type="curve" smooth="yes"/>
      <point x="283" y="474"/>
      <point x="233" y="450"/>
      <point x="173" y="384" type="curve"/>
      <point x="165" y="465" type="line"/>
      <point x="92" y="465" type="line"/>
    </contour>
    <contour>
      <point x="324" y="403" type="curve" smooth="yes"/>
      <point x="402" y="403"/>
      <point x="467" y="338"/>
      <point x="467" y="236" type="curve" smooth="yes"/>
      <point x="467" y="140"/>
      <point x="409" y="64"/>
      <point x="306" y="64" type="curve" smooth="yes"/>
      <point x="274" y="64"/>
      <point x="232" y="74"/>
      <point x="178" y="123" type="curve"/>
      <point x="178" y="323" type="line"/>
      <point x="240" y="386"/>
      <point x="281" y="403"/>
    </contour>
  </outline>
</glyph>
<glyph name="q" format="2">
  <advance width="614"/>
  <unicode hex="0071"/>
  <outline>
    <contour>
      <point x="59" y="226" type="curve" smooth="yes"/>
      <point x="59" y="82"/>
      <point x="152" y="-10"/>
      <point x="266" y="-10" type="curve" smooth="yes"/>
      <point x="329" y="-10"/>
      <point x="378" y="12"/>
      <point x="436" y="72" type="curve"/>
      <point x="436" y="-230" type="line"/>
      <point x="522" y="-230" type="line"/>
      <point x="522" y="467" type="line"/>
      <point x="497" y="467" type="line"/>
      <point x="454" y="435" type="line"/>
      <point x="408" y="462"/>
      <point x="360" y="473"/>
      <point x="310" y="473" type="curve" smooth="yes"/>
      <point x="160" y="473"/>
      <point x="59" y="363"/>
    </contour>
    <contour>
      <point x="147" y="229" type="curve" smooth="yes"/>
      <point x="147" y="318"/>
      <point x="207" y="402"/>
      <point x="322" y="402" type="curve" smooth="yes"/>
      <point x="358" y="402"/>
      <point x="395" y="391"/>
      <point x="436" y="364" type="curve"/>
      <point x="436" y="141" type="line"/>
      <point x="374" y="79"/>
      <point x="333" y="62"/>
      <point x="290" y="62" type="curve" smooth="yes"/>
      <point x="212" y="62"/>
      <point x="147" y="126"/>
    </contour>
  </outline>
</glyph>
<glyph name="r" format="2">
  <advance width="614"/>
  <unicode hex="0072"/>
  <anchor x="302" y="502" name="aboveLC"/>
  <anchor x="224" y="-35" name="below"/>
  <outline>
    <contour>
      <point x="51" y="72" type="line"/>
      <point x="51" y="0" type="line"/>
      <point x="407" y="0" type="line"/>
      <point x="407" y="72" type="line"/>
      <point x="258" y="72" type="line"/>
      <point x="258" y="227" type="line"/>
      <point x="369" y="361"/>
      <point x="384" y="370"/>
      <point x="467" y="376" type="curve" smooth="yes"/>
      <point x="562" y="384" type="line"/>
      <point x="556" y="469" type="line"/>
      <point x="458" y="463" type="line" smooth="yes"/>
      <point x="388" y="458"/>
      <point x="351" y="441"/>
      <point x="254" y="303" type="curve"/>
      <point x="249" y="465" type="line"/>
      <point x="71" y="465" type="line"/>
      <point x="71" y="393" type="line"/>
      <point x="173" y="393" type="line"/>
      <point x="173" y="72" type="line"/>
    </contour>
  </outline>
</glyph>
<glyph name="s" format="2">
  <advance width="614"/>
  <unicode hex="0073"/>
  <guideline x="254" y="205" angle="218.007617825676" identifier="MYhE05PKT0"/>
  <anchor x="321" y="507" name="aboveLC"/>
  <anchor x="299" y="-40" name="below"/>
  <anchor x="301" y="-15" name="belowcedilla"/>
  <anchor x="321" y="472" name="aboveLCx"/>
  <outline>
    <contour>
      <point x="522" y="130" type="curve" smooth="yes"/>
      <point x="522" y="199"/>
      <point x="496" y="236"/>
      <point x="368" y="266" type="curve" smooth="yes"/>
      <point x="282" y="286" type="line" smooth="yes"/>
      <point x="207" y="305"/>
      <point x="194" y="322"/>
      <point x="194" y="352" type="curve" smooth="yes"/>
      <point x="194" y="384"/>
      <point x="222" y="408"/>
      <point x="329" y="408" type="curve" smooth="yes"/>
      <point x="370" y="408"/>
      <point x="428" y="401"/>
      <point x="491" y="387" type="curve"/>
      <point x="503" y="460" type="line"/>
      <point x="444" y="471"/>
      <point x="374" y="478"/>
      <point x="330" y="478" type="curve" smooth="yes"/>
      <point x="169" y="478"/>
      <point x="106" y="422"/>
      <point x="106" y="345" type="curve" smooth="yes"/>
      <point x="106" y="280"/>
      <point x="131" y="243"/>
      <point x="259" y="212" type="curve" smooth="yes"/>
      <point x="346" y="192" type="line" smooth="yes"/>
      <point x="419" y="174"/>
      <point x="435" y="156"/>
      <point x="435" y="124" type="curve" smooth="yes"/>
      <point x="435" y="86"/>
      <point x="401" y="58"/>
      <point x="291" y="58" type="curve" smooth="yes"/>
      <point x="248" y="58"/>
      <point x="179" y="65"/>
      <point x="107" y="80" type="curve"/>
      <point x="94" y="7" type="line"/>
      <point x="170" y="-8"/>
      <point x="231" y="-13"/>
      <point x="290" y="-13" type="curve" smooth="yes"/>
      <point x="453" y="-13"/>
      <point x="522" y="50"/>
    </contour>
  </outline>
</glyph>
<glyph name="t" format="2">
  <advance width="614"/>
  <unicode hex="0074"/>
  <anchor x="416" y="788" name="topright"/>
  <anchor x="328" y="-35" name="below"/>
  <anchor x="321" y="-10" name="belowcedilla"/>
  <outline>
    <contour>
      <point x="219" y="177" type="line" smooth="yes"/>
      <point x="219" y="46"/>
      <point x="255" y="6"/>
      <point x="377" y="0" type="curve" smooth="yes"/>
      <point x="532" y="-7" type="line"/>
      <point x="538" y="66" type="line"/>
      <point x="397" y="74" type="line" smooth="yes"/>
      <point x="325" y="78"/>
      <point x="304" y="102"/>
      <point x="304" y="189" type="curve" smooth="yes"/>
      <point x="304" y="393" type="line"/>
      <point x="510" y="393" type="line"/>
      <point x="510" y="465" type="line"/>
      <point x="303" y="465" type="line"/>
      <point x="303" y="638" type="line"/>
      <point x="220" y="638" type="line"/>
      <point x="220" y="465" type="line"/>
      <point x="62" y="465" type="line"/>
      <point x="62" y="393" type="line"/>
      <point x="219" y="393" type="line"/>
    </contour>
  </outline>
</glyph>
<glyph name="u" format="2">
  <advance width="614"/>
  <unicode hex="0075"/>
  <anchor x="311" y="502" name="aboveLC"/>
  <anchor x="303" y="-35" name="below"/>
  <anchor x="480" y="-10" name="belowogonek"/>
  <anchor x="311" y="463" name="aboveLCx"/>
  <outline>
    <contour>
      <point x="519" y="0" type="line"/>
      <point x="519" y="465" type="line"/>
      <point x="433" y="465" type="line"/>
      <point x="433" y="180" type="line"/>
      <point x="345" y="96"/>
      <point x="302" y="71"/>
      <point x="257" y="71" type="curve" smooth="yes"/>
      <point x="201" y="71"/>
      <point x="178" y="100"/>
      <point x="178" y="156" type="curve" smooth="yes"/>
      <point x="178" y="465" type="line"/>
      <point x="92" y="465" type="line"/>
      <point x="92" y="141" type="line" smooth="yes"/>
      <point x="92" y="50"/>
      <point x="138" y="-7"/>
      <point x="233" y="-7" type="curve" smooth="yes"/>
      <point x="298" y="-7"/>
      <point x="350" y="22"/>
      <point x="436" y="103" type="curve"/>
      <point x="441" y="0" type="line"/>
    </contour>
  </outline>
</glyph>
<glyph name="w" format="2">
  <advance width="614"/>
  <unicode hex="0077"/>
  <anchor x="306" y="502" name="aboveLC"/>
  <anchor x="306" y="464" name="aboveLCx"/>
  <outline>
    <contour>
      <point x="473" y="0" type="line"/>
      <point x="571" y="465" type="line"/>
      <point x="490" y="465" type="line"/>
      <point x="420" y="93" type="line"/>
      <point x="316" y="401" type="line"/>
      <point x="299" y="401" type="line"/>
      <point x="195" y="92" type="line"/>
      <point x="125" y="465" type="line"/>
      <point x="44" y="465" type="line"/>
      <point x="139" y="0" type="line"/>
      <point x="224" y="0" type="line"/>
      <point x="306" y="246" type="line"/>
      <point x="387" y="0" type="line"/>
    </contour>
  </outline>
</glyph>
<glyph name="x" format="2">
  <advance width="614"/>
  <unicode hex="0078"/>
  <anchor x="308" y="502" name="aboveLC"/>
  <anchor x="306" y="-35" name="below"/>
  <anchor x="306" y="-2" name="belowx"/>
  <anchor x="308" y="469" name="aboveLCx"/>
  <outline>
    <contour>
      <point x="64" y="0" type="line"/>
      <point x="164" y="0" type="line"/>
      <point x="305" y="191" type="line"/>
      <point x="447" y="0" type="line"/>
      <point x="552" y="0" type="line"/>
      <point x="358" y="241" type="line"/>
      <point x="535" y="465" type="line"/>
      <point x="436" y="465" type="line"/>
      <point x="308" y="293" type="line"/>
      <point x="183" y="465" type="line"/>
      <point x="77" y="465" type="line"/>
      <point x="254" y="240" type="line"/>
    </contour>
  </outline>
</glyph>
<glyph name="y" format="2">
  <advance width="614"/>
  <unicode hex="0079"/>
  <anchor x="312" y="502" name="aboveLC"/>
  <anchor x="478" y="-35" name="below"/>
  <anchor x="312" y="469" name="aboveLCx"/>
  <outline>
    <contour>
      <point x="311" y="-123" type="curve" smooth="yes"/>
      <point x="560" y="465" type="line"/>
      <point x="469" y="465" type="line"/>
      <point x="313" y="73" type="line"/>
      <point x="153" y="465" type="line"/>
      <point x="57" y="465" type="line"/>
      <point x="266" y="-26" type="line"/>
      <point x="232" y="-103" type="line" smooth="yes"/>
      <point x="214" y="-142"/>
      <point x="195" y="-153"/>
      <point x="139" y="-156" type="curve" smooth="yes"/>
      <point x="45" y="-161" type="line"/>
      <point x="47" y="-234" type="line"/>
      <point x="158" y="-229" type="line" smooth="yes"/>
      <point x="231" y="-225"/>
      <point x="277" y="-204"/>
    </contour>
  </outline>
</glyph>
<glyph name="braceleft" format="2">
  <advance width="614"/>
  <unicode hex="007B"/>
  <outline>
    <contour>
      <point x="195" y="-17" type="curve" smooth="yes"/>
      <point x="195" y="-63"/>
      <point x="222" y="-93"/>
      <point x="305" y="-106" type="curve" smooth="yes"/>
      <point x="537" y="-139" type="line"/>
      <point x="547" y="-68" type="line"/>
      <point x="326" y="-37" type="line" smooth="yes"/>
      <point x="295" y="-32"/>
      <point x="287" y="-22"/>
      <point x="287" y="-8" type="curve" smooth="yes"/>
      <point x="287" y="2"/>
      <point x="293" y="13"/>
      <point x="318" y="42" type="curve" smooth="yes"/>
      <point x="367" y="97" type="line" smooth="yes"/>
      <point x="417" y="153"/>
      <point x="423" y="171"/>
      <point x="423" y="192" type="curve" smooth="yes"/>
      <point x="423" y="233"/>
      <point x="403" y="266"/>
      <point x="144" y="329" type="curve"/>
      <point x="144" y="333" type="line"/>
      <point x="404" y="396"/>
      <point x="423" y="429"/>
      <point x="423" y="470" type="curve" smooth="yes"/>
      <point x="423" y="491"/>
      <point x="417" y="509"/>
      <point x="367" y="565" type="curve" smooth="yes"/>
      <point x="318" y="620" type="line" smooth="yes"/>
      <point x="293" y="649"/>
      <point x="287" y="660"/>
      <point x="287" y="670" type="curve" smooth="yes"/>
      <point x="287" y="684"/>
      <point x="295" y="694"/>
      <point x="326" y="699" type="curve" smooth="yes"/>
      <point x="547" y="730" type="line"/>
      <point x="537" y="801" type="line"/>
      <point x="305" y="768" type="line" smooth="yes"/>
      <point x="222" y="755"/>
      <point x="195" y="725"/>
      <point x="195" y="679" type="curve" smooth="yes"/>
      <point x="195" y="653"/>
      <point x="208" y="625"/>
      <point x="247" y="583" type="curve" smooth="yes"/>
      <point x="295" y="529" type="line" smooth="yes"/>
      <point x="324" y="495"/>
      <point x="328" y="486"/>
      <point x="328" y="474" type="curve" smooth="yes"/>
      <point x="328" y="451"/>
      <point x="316" y="432"/>
      <point x="74" y="370" type="curve"/>
      <point x="74" y="292" type="line"/>
      <point x="316" y="229"/>
      <point x="328" y="211"/>
      <point x="328" y="188" type="curve" smooth="yes"/>
      <point x="328" y="176"/>
      <point x="324" y="167"/>
      <point x="295" y="134" type="curve" smooth="yes"/>
      <point x="247" y="79" type="line" smooth="yes"/>
      <point x="208" y="37"/>
      <point x="195" y="9"/>
    </contour>
  </outline>
</glyph>
<glyph name="braceright" format="2">
  <advance width="614"/>
  <unicode hex="007D"/>
  <outline>
    <contour>
      <point x="419" y="-17" type="curve" smooth="yes"/>
      <point x="419" y="9"/>
      <point x="406" y="37"/>
      <point x="367" y="79" type="curve" smooth="yes"/>
      <point x="319" y="134" type="line" smooth="yes"/>
      <point x="290" y="167"/>
      <point x="286" y="176"/>
      <point x="286" y="188" type="curve" smooth="yes"/>
      <point x="286" y="211"/>
      <point x="298" y="229"/>
      <point x="540" y="292" type="curve"/>
      <point x="540" y="370" type="line"/>
      <point x="298" y="433"/>
      <point x="286" y="451"/>
      <point x="286" y="474" type="curve" smooth="yes"/>
      <point x="286" y="486"/>
      <point x="290" y="495"/>
      <point x="319" y="529" type="curve" smooth="yes"/>
      <point x="367" y="583" type="line" smooth="yes"/>
      <point x="406" y="625"/>
      <point x="419" y="653"/>
      <point x="419" y="679" type="curve" smooth="yes"/>
      <point x="419" y="725"/>
      <point x="392" y="755"/>
      <point x="309" y="768" type="curve" smooth="yes"/>
      <point x="77" y="801" type="line"/>
      <point x="67" y="730" type="line"/>
      <point x="288" y="699" type="line" smooth="yes"/>
      <point x="319" y="694"/>
      <point x="327" y="684"/>
      <point x="327" y="670" type="curve" smooth="yes"/>
      <point x="327" y="660"/>
      <point x="321" y="649"/>
      <point x="296" y="620" type="curve" smooth="yes"/>
      <point x="247" y="565" type="line" smooth="yes"/>
      <point x="197" y="509"/>
      <point x="191" y="491"/>
      <point x="191" y="470" type="curve" smooth="yes"/>
      <point x="191" y="429"/>
      <point x="211" y="396"/>
      <point x="470" y="333" type="curve"/>
      <point x="470" y="329" type="line"/>
      <point x="211" y="266"/>
      <point x="191" y="233"/>
      <point x="191" y="192" type="curve" smooth="yes"/>
      <point x="191" y="171"/>
      <point x="197" y="153"/>
      <point x="247" y="97" type="curve" smooth="yes"/>
      <point x="296" y="42" type="line" smooth="yes"/>
      <point x="321" y="13"/>
      <point x="327" y="2"/>
      <point x="327" y="-8" type="curve" smooth="yes"/>
      <point x="327" y="-22"/>
      <point x="319" y="-32"/>
      <point x="288" y="-37" type="curve" smooth="yes"/>
      <point x="67" y="-68" type="line"/>
      <point x="77" y="-139" type="line"/>
      <point x="309" y="-106" type="line" smooth="yes"/>
      <point x="392" y="-93"/>
      <point x="419" y="-63"/>
    </contour>
  </outline>
</glyph>
<glyph name="asciitilde" format="2">
  <advance width="614"/>
  <unicode hex="007E"/>
  <outline>
    <contour>
      <point x="574" y="424" type="curve"/>
      <point x="507" y="447" type="line"/>
      <point x="462" y="334"/>
      <point x="449" y="306"/>
      <point x="426" y="306" type="curve" smooth="yes"/>
      <point x="407" y="306"/>
      <point x="394" y="312"/>
      <point x="319" y="369" type="curve" smooth="yes"/>
      <point x="245" y="425"/>
      <point x="220" y="441"/>
      <point x="188" y="441" type="curve" smooth="yes"/>
      <point x="134" y="441"/>
      <point x="96" y="407"/>
      <point x="40" y="238" type="curve"/>
      <point x="107" y="215" type="line"/>
      <point x="152" y="329"/>
      <point x="165" y="357"/>
      <point x="188" y="357" type="curve" smooth="yes"/>
      <point x="207" y="357"/>
      <point x="220" y="351"/>
      <point x="295" y="294" type="curve" smooth="yes"/>
      <point x="369" y="238"/>
      <point x="394" y="222"/>
      <point x="426" y="222" type="curve" smooth="yes"/>
      <point x="480" y="222"/>
      <point x="518" y="256"/>
    </contour>
  </outline>
</glyph>
<glyph name="exclamdown" format="2">
  <advance width="614"/>
  <unicode hex="00A1"/>
  <outline>
    <contour>
      <point x="310" y="725" type="curve" smooth="yes"/>
      <point x="257" y="725"/>
      <point x="230" y="703"/>
      <point x="230" y="662" type="curve" smooth="yes"/>
      <point x="230" y="620"/>
      <point x="252" y="597"/>
      <point x="308" y="597" type="curve" smooth="yes"/>
      <point x="364" y="597"/>
      <point x="389" y="623"/>
      <point x="389" y="660" type="curve" smooth="yes"/>
      <point x="389" y="704"/>
      <point x="361" y="725"/>
    </contour>
    <contour>
      <point x="334" y="468" type="line"/>
      <point x="280" y="468" type="line"/>
      <point x="225" y="0" type="line"/>
      <point x="389" y="0" type="line"/>
    </contour>
  </outline>
</glyph>
<glyph name="cent" format="2">
  <advance width="614"/>
  <unicode hex="00A2"/>
  <outline>
    <contour>
      <point x="301" y="-142" type="line"/>
      <point x="368" y="-142" type="line"/>
      <point x="368" y="4" type="line"/>
      <point x="419" y="11"/>
      <point x="472" y="31"/>
      <point x="544" y="73" type="curve"/>
      <point x="507" y="132" type="line"/>
      <point x="444" y="97"/>
      <point x="399" y="81"/>
      <point x="361" y="75" type="curve"/>
      <point x="361" y="416" type="line"/>
      <point x="396" y="411"/>
      <point x="437" y="395"/>
      <point x="503" y="353" type="curve"/>
      <point x="542" y="417" type="line"/>
      <point x="463" y="466"/>
      <point x="414" y="483"/>
      <point x="368" y="488" type="curve"/>
      <point x="368" y="632" type="line"/>
      <point x="301" y="632" type="line"/>
      <point x="301" y="489" type="line"/>
      <point x="168" y="477"/>
      <point x="70" y="378"/>
      <point x="70" y="249" type="curve" smooth="yes"/>
      <point x="70" y="98"/>
      <point x="167" y="6"/>
      <point x="301" y="0" type="curve"/>
    </contour>
    <contour>
      <point x="158" y="248" type="curve" smooth="yes"/>
      <point x="158" y="341"/>
      <point x="219" y="409"/>
      <point x="309" y="417" type="curve"/>
      <point x="309" y="72" type="line"/>
      <point x="222" y="77"/>
      <point x="158" y="147"/>
    </contour>
  </outline>
</glyph>
<glyph name="sterling" format="2">
  <advance width="614"/>
  <unicode hex="00A3"/>
  <outline>
    <contour>
      <point x="74" y="0" type="line"/>
      <point x="551" y="0" type="line"/>
      <point x="551" y="72" type="line"/>
      <point x="176" y="72" type="line"/>
      <point x="280" y="176"/>
      <point x="307" y="216"/>
      <point x="313" y="252" type="curve"/>
      <point x="505" y="252" type="line"/>
      <point x="505" y="309" type="line"/>
      <point x="312" y="309" type="line"/>
      <point x="305" y="335"/>
      <point x="285" y="362"/>
      <point x="237" y="409" type="curve" smooth="yes"/>
      <point x="194" y="451"/>
      <point x="187" y="477"/>
      <point x="187" y="507" type="curve" smooth="yes"/>
      <point x="187" y="556"/>
      <point x="233" y="598"/>
      <point x="307" y="598" type="curve" smooth="yes"/>
      <point x="376" y="598"/>
      <point x="428" y="564"/>
      <point x="488" y="493" type="curve"/>
      <point x="544" y="547" type="line"/>
      <point x="477" y="627"/>
      <point x="402" y="670"/>
      <point x="304" y="670" type="curve" smooth="yes"/>
      <point x="174" y="670"/>
      <point x="98" y="591"/>
      <point x="98" y="509" type="curve" smooth="yes"/>
      <point x="98" y="459"/>
      <point x="111" y="427"/>
      <point x="168" y="372" type="curve" smooth="yes"/>
      <point x="204" y="337"/>
      <point x="222" y="319"/>
      <point x="230" y="305" type="curve"/>
      <point x="82" y="305" type="line"/>
      <point x="82" y="249" type="line"/>
      <point x="232" y="249" type="line"/>
      <point x="222" y="219"/>
      <point x="186" y="176"/>
      <point x="74" y="70" type="curve"/>
    </contour>
  </outline>
</glyph>
<glyph name="section" format="2">
  <advance width="614"/>
  <unicode hex="00A7"/>
  <outline>
    <contour>
      <point x="58" y="201" type="curve" smooth="yes"/>
      <point x="58" y="131"/>
      <point x="86" y="86"/>
      <point x="208" y="33" type="curve" smooth="yes"/>
      <point x="331" y="-20" type="line" smooth="yes"/>
      <point x="408" y="-54"/>
      <point x="419" y="-73"/>
      <point x="419" y="-103" type="curve" smooth="yes"/>
      <point x="419" y="-142"/>
      <point x="394" y="-168"/>
      <point x="299" y="-168" type="curve" smooth="yes"/>
      <point x="247" y="-168"/>
      <point x="194" y="-160"/>
      <point x="116" y="-141" type="curve"/>
      <point x="103" y="-215" type="line"/>
      <point x="178" y="-232"/>
      <point x="228" y="-240"/>
      <point x="297" y="-240" type="curve" smooth="yes"/>
      <point x="446" y="-240"/>
      <point x="505" y="-181"/>
      <point x="505" y="-96" type="curve" smooth="yes"/>
      <point x="505" y="-31"/>
      <point x="471" y="9"/>
      <point x="386" y="46" type="curve"/>
      <point x="525" y="114"/>
      <point x="555" y="159"/>
      <point x="555" y="228" type="curve" smooth="yes"/>
      <point x="555" y="298"/>
      <point x="528" y="343"/>
      <point x="406" y="396" type="curve" smooth="yes"/>
      <point x="283" y="450" type="line" smooth="yes"/>
      <point x="205" y="483"/>
      <point x="195" y="502"/>
      <point x="195" y="532" type="curve" smooth="yes"/>
      <point x="195" y="571"/>
      <point x="220" y="597"/>
      <point x="315" y="597" type="curve" smooth="yes"/>
      <point x="366" y="597"/>
      <point x="420" y="589"/>
      <point x="498" y="570" type="curve"/>
      <point x="511" y="644" type="line"/>
      <point x="435" y="661"/>
      <point x="385" y="669"/>
      <point x="316" y="669" type="curve" smooth="yes"/>
      <point x="168" y="669"/>
      <point x="109" y="610"/>
      <point x="109" y="525" type="curve" smooth="yes"/>
      <point x="109" y="460"/>
      <point x="140" y="422"/>
      <point x="228" y="383" type="curve"/>
      <point x="88" y="315"/>
      <point x="58" y="270"/>
    </contour>
    <contour>
      <point x="263" y="99" type="line" smooth="yes"/>
      <point x="162" y="144"/>
      <point x="146" y="170"/>
      <point x="146" y="215" type="curve" smooth="yes"/>
      <point x="146" y="256"/>
      <point x="161" y="286"/>
      <point x="294" y="355" type="curve"/>
      <point x="350" y="330" type="line" smooth="yes"/>
      <point x="451" y="285"/>
      <point x="468" y="259"/>
      <point x="468" y="214" type="curve" smooth="yes"/>
      <point x="468" y="173"/>
      <point x="452" y="143"/>
      <point x="320" y="74" type="curve"/>
    </contour>
  </outline>
</glyph>
<glyph name="copyright" format="2">
  <advance width="614"/>
  <unicode hex="00A9"/>
  <outline>
    <contour>
      <point x="557" y="328" type="curve" smooth="yes"/>
      <point x="557" y="630"/>
      <point x="462" y="725"/>
      <point x="307" y="725" type="curve" smooth="yes"/>
      <point x="153" y="725"/>
      <point x="57" y="630"/>
      <point x="57" y="328" type="curve" smooth="yes"/>
      <point x="57" y="26"/>
      <point x="153" y="-70"/>
      <point x="307" y="-70" type="curve" smooth="yes"/>
      <point x="462" y="-70"/>
      <point x="557" y="26"/>
    </contour>
    <contour>
      <point x="105" y="328" type="curve" smooth="yes"/>
      <point x="105" y="605"/>
      <point x="182" y="680"/>
      <point x="307" y="680" type="curve" smooth="yes"/>
      <point x="433" y="680"/>
      <point x="509" y="605"/>
      <point x="509" y="328" type="curve" smooth="yes"/>
      <point x="509" y="51"/>
      <point x="433" y="-25"/>
      <point x="307" y="-25" type="curve" smooth="yes"/>
      <point x="182" y="-25"/>
      <point x="105" y="51"/>
    </contour>
    <contour>
      <point x="309" y="97" type="curve" smooth="yes"/>
      <point x="351" y="97"/>
      <point x="389" y="107"/>
      <point x="444" y="186" type="curve"/>
      <point x="404" y="216" type="line"/>
      <point x="362" y="157"/>
      <point x="339" y="151"/>
      <point x="315" y="151" type="curve" smooth="yes"/>
      <point x="273" y="151"/>
      <point x="243" y="208"/>
      <point x="243" y="328" type="curve" smooth="yes"/>
      <point x="243" y="438"/>
      <point x="275" y="504"/>
      <point x="318" y="504" type="curve" smooth="yes"/>
      <point x="342" y="504"/>
      <point x="357" y="495"/>
      <point x="398" y="436" type="curve"/>
      <point x="440" y="469" type="line"/>
      <point x="391" y="544"/>
      <point x="362" y="558"/>
      <point x="318" y="558" type="curve" smooth="yes"/>
      <point x="239" y="558"/>
      <point x="181" y="467"/>
      <point x="181" y="326" type="curve" smooth="yes"/>
      <point x="181" y="184"/>
      <point x="226" y="97"/>
    </contour>
  </outline>
</glyph>
<glyph name="ordfeminine" format="2">
  <advance width="614"/>
  <unicode hex="00AA"/>
  <outline>
    <contour>
      <point x="452" y="421" type="curve" smooth="yes"/>
      <point x="452" y="573" type="line" smooth="yes"/>
      <point x="452" y="656"/>
      <point x="412" y="692"/>
      <point x="283" y="692" type="curve" smooth="yes"/>
      <point x="256" y="692"/>
      <point x="201" y="687"/>
      <point x="141" y="678" type="curve"/>
      <point x="148" y="621" type="line"/>
      <point x="206" y="630"/>
      <point x="254" y="634"/>
      <point x="280" y="634" type="curve" smooth="yes"/>
      <point x="362" y="634"/>
      <point x="383" y="618"/>
      <point x="383" y="574" type="curve" smooth="yes"/>
      <point x="383" y="554" type="line"/>
      <point x="240" y="538" type="line" smooth="yes"/>
      <point x="137" y="527"/>
      <point x="107" y="492"/>
      <point x="107" y="425" type="curve" smooth="yes"/>
      <point x="107" y="360"/>
      <point x="155" y="325"/>
      <point x="221" y="325" type="curve" smooth="yes"/>
      <point x="279" y="325"/>
      <point x="327" y="344"/>
      <point x="375" y="382" type="curve"/>
      <point x="385" y="382" type="line"/>
      <point x="396" y="349"/>
      <point x="424" y="329"/>
      <point x="473" y="329" type="curve" smooth="yes"/>
      <point x="509" y="328" type="line"/>
      <point x="514" y="382" type="line"/>
      <point x="485" y="384" type="line" smooth="yes"/>
      <point x="461" y="385"/>
      <point x="452" y="397"/>
    </contour>
    <contour>
      <point x="235" y="381" type="curve" smooth="yes"/>
      <point x="195" y="381"/>
      <point x="176" y="399"/>
      <point x="176" y="429" type="curve" smooth="yes"/>
      <point x="176" y="463"/>
      <point x="192" y="482"/>
      <point x="256" y="490" type="curve" smooth="yes"/>
      <point x="383" y="506" type="line"/>
      <point x="383" y="442" type="line"/>
      <point x="319" y="393"/>
      <point x="279" y="381"/>
    </contour>
    <contour>
      <point x="124" y="236" type="line"/>
      <point x="124" y="179" type="line"/>
      <point x="505" y="179" type="line"/>
      <point x="505" y="236" type="line"/>
    </contour>
  </outline>
</glyph>
<glyph name="registered" format="2">
  <advance width="614"/>
  <unicode hex="00AE"/>
  <outline>
    <contour>
      <point x="68" y="465" type="curve" smooth="yes"/>
      <point x="68" y="310"/>
      <point x="160" y="208"/>
      <point x="307" y="208" type="curve" smooth="yes"/>
      <point x="452" y="208"/>
      <point x="546" y="311"/>
      <point x="546" y="467" type="curve" smooth="yes"/>
      <point x="546" y="626"/>
      <point x="453" y="725"/>
      <point x="307" y="725" type="curve" smooth="yes"/>
      <point x="161" y="725"/>
      <point x="68" y="624"/>
    </contour>
    <contour>
      <point x="307" y="243" type="curve" smooth="yes"/>
      <point x="186" y="243"/>
      <point x="108" y="329"/>
      <point x="108" y="467" type="curve" smooth="yes"/>
      <point x="108" y="605"/>
      <point x="184" y="689"/>
      <point x="307" y="689" type="curve" smooth="yes"/>
      <point x="431" y="689"/>
      <point x="507" y="604"/>
      <point x="507" y="465" type="curve" smooth="yes"/>
      <point x="507" y="328"/>
      <point x="431" y="243"/>
    </contour>
    <contour>
      <point x="422" y="345" type="line"/>
      <point x="366" y="417" type="line" smooth="yes"/>
      <point x="349" y="440"/>
      <point x="338" y="447"/>
      <point x="320" y="453" type="curve"/>
      <point x="320" y="455" type="line"/>
      <point x="396" y="466"/>
      <point x="413" y="495"/>
      <point x="413" y="533" type="curve" smooth="yes"/>
      <point x="413" y="577"/>
      <point x="382" y="604"/>
      <point x="327" y="604" type="curve" smooth="yes"/>
      <point x="217" y="604" type="line"/>
      <point x="217" y="343" type="line"/>
      <point x="265" y="343" type="line"/>
      <point x="265" y="446" type="line"/>
      <point x="287" y="443"/>
      <point x="296" y="436"/>
      <point x="312" y="412" type="curve" smooth="yes"/>
      <point x="360" y="343" type="line"/>
      <point x="422" y="343" type="line"/>
    </contour>
    <contour>
      <point x="318" y="563" type="line" smooth="yes"/>
      <point x="349" y="563"/>
      <point x="364" y="552"/>
      <point x="364" y="528" type="curve" smooth="yes"/>
      <point x="364" y="503"/>
      <point x="350" y="488"/>
      <point x="283" y="480" type="curve" smooth="yes"/>
      <point x="265" y="478" type="line"/>
      <point x="265" y="563" type="line"/>
    </contour>
  </outline>
</glyph>
<glyph name="degree" format="2">
  <advance width="614"/>
  <unicode hex="00B0"/>
  <outline>
    <contour>
      <point x="101" y="490" type="curve" smooth="yes"/>
      <point x="101" y="370"/>
      <point x="187" y="291"/>
      <point x="307" y="291" type="curve" smooth="yes"/>
      <point x="428" y="291"/>
      <point x="513" y="372"/>
      <point x="513" y="491" type="curve" smooth="yes"/>
      <point x="513" y="612"/>
      <point x="429" y="692"/>
      <point x="308" y="692" type="curve" smooth="yes"/>
      <point x="188" y="692"/>
      <point x="101" y="611"/>
    </contour>
    <contour>
      <point x="307" y="632" type="curve" smooth="yes"/>
      <point x="383" y="632"/>
      <point x="442" y="575"/>
      <point x="442" y="490" type="curve" smooth="yes"/>
      <point x="442" y="407"/>
      <point x="385" y="351"/>
      <point x="308" y="351" type="curve" smooth="yes"/>
      <point x="229" y="351"/>
      <point x="173" y="408"/>
      <point x="173" y="491" type="curve" smooth="yes"/>
      <point x="173" y="576"/>
      <point x="228" y="632"/>
    </contour>
  </outline>
</glyph>
<glyph name="mu" format="2">
  <advance width="614"/>
  <unicode hex="00B5"/>
  <outline>
    <contour>
      <point x="251" y="-8" type="curve" smooth="yes"/>
      <point x="313" y="-8"/>
      <point x="355" y="21"/>
      <point x="436" y="102" type="curve"/>
      <point x="441" y="0" type="line"/>
      <point x="519" y="0" type="line"/>
      <point x="519" y="465" type="line"/>
      <point x="433" y="465" type="line"/>
      <point x="433" y="180" type="line"/>
      <point x="345" y="96"/>
      <point x="302" y="71"/>
      <point x="257" y="71" type="curve" smooth="yes"/>
      <point x="201" y="71"/>
      <point x="178" y="100"/>
      <point x="178" y="156" type="curve" smooth="yes"/>
      <point x="178" y="465" type="line"/>
      <point x="92" y="465" type="line"/>
      <point x="92" y="-230" type="line"/>
      <point x="181" y="-230" type="line"/>
      <point x="181" y="-215" type="line"/>
      <point x="163" y="35" type="line"/>
      <point x="186" y="6"/>
      <point x="219" y="-8"/>
    </contour>
  </outline>
</glyph>
<glyph name="paragraph" format="2">
  <advance width="614"/>
  <unicode hex="00B6"/>
  <outline>
    <contour>
      <point x="329" y="280" type="line"/>
      <point x="329" y="591" type="line"/>
      <point x="430" y="591" type="line"/>
      <point x="430" y="0" type="line"/>
      <point x="512" y="0" type="line"/>
      <point x="512" y="655" type="line"/>
      <point x="319" y="655" type="line" smooth="yes"/>
      <point x="149" y="655"/>
      <point x="80" y="585"/>
      <point x="80" y="471" type="curve" smooth="yes"/>
      <point x="80" y="349"/>
      <point x="156" y="280"/>
      <point x="325" y="280" type="curve" smooth="yes"/>
    </contour>
  </outline>
</glyph>
<glyph name="ordmasculine" format="2">
  <advance width="614"/>
  <unicode hex="00BA"/>
  <outline>
    <contour>
      <point x="306" y="323" type="curve" smooth="yes"/>
      <point x="414" y="323"/>
      <point x="498" y="399"/>
      <point x="498" y="508" type="curve" smooth="yes"/>
      <point x="498" y="617"/>
      <point x="416" y="692"/>
      <point x="308" y="692" type="curve" smooth="yes"/>
      <point x="199" y="692"/>
      <point x="116" y="616"/>
      <point x="116" y="507" type="curve" smooth="yes"/>
      <point x="116" y="397"/>
      <point x="198" y="323"/>
    </contour>
    <contour>
      <point x="307" y="382" type="curve" smooth="yes"/>
      <point x="238" y="382"/>
      <point x="186" y="430"/>
      <point x="186" y="507" type="curve" smooth="yes"/>
      <point x="186" y="586"/>
      <point x="238" y="633"/>
      <point x="306" y="633" type="curve" smooth="yes"/>
      <point x="376" y="633"/>
      <point x="429" y="585"/>
      <point x="429" y="508" type="curve" smooth="yes"/>
      <point x="429" y="429"/>
      <point x="375" y="382"/>
    </contour>
    <contour>
      <point x="124" y="236" type="line"/>
      <point x="124" y="179" type="line"/>
      <point x="495" y="179" type="line"/>
      <point x="495" y="236" type="line"/>
    </contour>
  </outline>
</glyph>
<glyph name="questiondown" format="2">
  <advance width="614"/>
  <unicode hex="00BF"/>
  <outline>
    <contour>
      <point x="372" y="725" type="curve" smooth="yes"/>
      <point x="319" y="725"/>
      <point x="292" y="703"/>
      <point x="292" y="662" type="curve" smooth="yes"/>
      <point x="292" y="620"/>
      <point x="314" y="597"/>
      <point x="370" y="597" type="curve" smooth="yes"/>
      <point x="425" y="597"/>
      <point x="451" y="623"/>
      <point x="451" y="660" type="curve" smooth="yes"/>
      <point x="451" y="704"/>
      <point x="423" y="725"/>
    </contour>
    <contour>
      <point x="339" y="468" type="line"/>
      <point x="330" y="392"/>
      <point x="326" y="385"/>
      <point x="297" y="370" type="curve" smooth="yes"/>
      <point x="214" y="327" type="line" smooth="yes"/>
      <point x="113" y="275"/>
      <point x="77" y="238"/>
      <point x="77" y="157" type="curve" smooth="yes"/>
      <point x="77" y="50"/>
      <point x="145" y="-15"/>
      <point x="280" y="-15" type="curve" smooth="yes"/>
      <point x="359" y="-15"/>
      <point x="420" y="-4"/>
      <point x="550" y="44" type="curve"/>
      <point x="527" y="117" type="line"/>
      <point x="400" y="69"/>
      <point x="339" y="57"/>
      <point x="290" y="57" type="curve" smooth="yes"/>
      <point x="211" y="57"/>
      <point x="167" y="89"/>
      <point x="167" y="156" type="curve" smooth="yes"/>
      <point x="167" y="202"/>
      <point x="186" y="229"/>
      <point x="263" y="267" type="curve" smooth="yes"/>
      <point x="358" y="313" type="line" smooth="yes"/>
      <point x="398" y="333"/>
      <point x="408" y="343"/>
      <point x="408" y="367" type="curve" smooth="yes"/>
      <point x="408" y="381"/>
      <point x="405" y="404"/>
      <point x="394" y="468" type="curve"/>
    </contour>
  </outline>
</glyph>
<glyph name="Aring" format="2">
  <advance width="614"/>
  <unicode hex="00C5"/>
  <outline>
    <contour>
      <point x="128" y="0" type="line"/>
      <point x="184" y="178" type="line"/>
      <point x="425" y="178" type="line"/>
      <point x="483" y="0" type="line"/>
      <point x="574" y="0" type="line"/>
      <point x="379" y="601" type="line"/>
      <point x="430" y="619"/>
      <point x="460" y="658"/>
      <point x="460" y="710" type="curve" smooth="yes"/>
      <point x="460" y="783"/>
      <point x="401" y="829"/>
      <point x="307" y="829" type="curve" smooth="yes"/>
      <point x="212" y="829"/>
      <point x="152" y="781"/>
      <point x="152" y="708" type="curve" smooth="yes"/>
      <point x="152" y="655"/>
      <point x="183" y="616"/>
      <point x="236" y="599" type="curve"/>
      <point x="40" y="0" type="line"/>
    </contour>
    <contour>
      <point x="306" y="643" type="curve" smooth="yes"/>
      <point x="244" y="643"/>
      <point x="214" y="667"/>
      <point x="214" y="707" type="curve" smooth="yes"/>
      <point x="214" y="752"/>
      <point x="244" y="775"/>
      <point x="306" y="775" type="curve" smooth="yes"/>
      <point x="368" y="775"/>
      <point x="397" y="751"/>
      <point x="397" y="711" type="curve" smooth="yes"/>
      <point x="397" y="665"/>
      <point x="368" y="643"/>
    </contour>
    <contour>
      <point x="206" y="248" type="line"/>
      <point x="304" y="566" type="line"/>
      <point x="404" y="248" type="line"/>
    </contour>
  </outline>
</glyph>
<glyph name="Ccedilla" format="2">
  <advance width="614"/>
  <unicode hex="00C7"/>
  <outline>
    <contour>
      <point x="487" y="-153" type="curve" smooth="yes"/>
      <point x="487" y="-107"/>
      <point x="462" y="-77"/>
      <point x="336" y="-64" type="curve"/>
      <point x="352" y="-14" type="line"/>
      <point x="417" y="-8"/>
      <point x="482" y="19"/>
      <point x="564" y="82" type="curve"/>
      <point x="523" y="141" type="line"/>
      <point x="439" y="77"/>
      <point x="384" y="57"/>
      <point x="336" y="57" type="curve" smooth="yes"/>
      <point x="226" y="57"/>
      <point x="145" y="141"/>
      <point x="145" y="328" type="curve" smooth="yes"/>
      <point x="145" y="500"/>
      <point x="230" y="598"/>
      <point x="340" y="598" type="curve" smooth="yes"/>
      <point x="384" y="598"/>
      <point x="429" y="584"/>
      <point x="514" y="517" type="curve"/>
      <point x="558" y="580" type="line"/>
      <point x="464" y="649"/>
      <point x="411" y="670"/>
      <point x="339" y="670" type="curve" smooth="yes"/>
      <point x="174" y="670"/>
      <point x="56" y="532"/>
      <point x="56" y="326" type="curve" smooth="yes"/>
      <point x="56" y="120"/>
      <point x="145" y="-4"/>
      <point x="302" y="-14" type="curve"/>
      <point x="272" y="-101" type="line"/>
      <point x="278" y="-111" type="line"/>
      <point x="400" y="-115"/>
      <point x="417" y="-131"/>
      <point x="417" y="-155" type="curve" smooth="yes"/>
      <point x="417" y="-181"/>
      <point x="397" y="-200"/>
      <point x="217" y="-215" type="curve"/>
      <point x="234" y="-270" type="line"/>
      <point x="465" y="-250"/>
      <point x="487" y="-207"/>
    </contour>
  </outline>
</glyph>
<glyph name="Eth" format="2">
  <advance width="614"/>
  <unicode hex="00D0"/>
  <outline>
    <contour>
      <point x="30" y="303" type="line"/>
      <point x="113" y="303" type="line"/>
      <point x="113" y="0" type="line"/>
      <point x="166" y="0" type="line" smooth="yes"/>
      <point x="425" y="0"/>
      <point x="562" y="126"/>
      <point x="562" y="336" type="curve" smooth="yes"/>
      <point x="562" y="539"/>
      <point x="428" y="655"/>
      <point x="200" y="655" type="curve" smooth="yes"/>
      <point x="113" y="655" type="line"/>
      <point x="113" y="357" type="line"/>
      <point x="30" y="357" type="line"/>
    </contour>
    <contour>
      <point x="322" y="303" type="line"/>
      <point x="322" y="357" type="line"/>
      <point x="198" y="357" type="line"/>
      <point x="198" y="585" type="line"/>
      <point x="372" y="585"/>
      <point x="474.0" y="505.0"/>
      <point x="474" y="334" type="curve" smooth="yes"/>
      <point x="474" y="162"/>
      <point x="375" y="75"/>
      <point x="198" y="71" type="curve"/>
      <point x="198" y="303" type="line"/>
    </contour>
  </outline>
</glyph>
<glyph name="Oslash" format="2">
  <advance width="614"/>
  <unicode hex="00D8"/>
  <outline>
    <contour>
      <point x="558" y="329" type="curve" smooth="yes"/>
      <point x="558" y="437"/>
      <point x="532" y="521"/>
      <point x="489" y="579" type="curve"/>
      <point x="583" y="726" type="line"/>
      <point x="504" y="726" type="line"/>
      <point x="447" y="623" type="line"/>
      <point x="408" y="654"/>
      <point x="361" y="670"/>
      <point x="308" y="670" type="curve" smooth="yes"/>
      <point x="155" y="670"/>
      <point x="56" y="549"/>
      <point x="56" y="325" type="curve" smooth="yes"/>
      <point x="56" y="217"/>
      <point x="81" y="133"/>
      <point x="125" y="75" type="curve"/>
      <point x="31" y="-71" type="line"/>
      <point x="109" y="-71" type="line"/>
      <point x="166" y="32" type="line"/>
      <point x="205" y="1"/>
      <point x="253" y="-15"/>
      <point x="306" y="-15" type="curve" smooth="yes"/>
      <point x="459" y="-15"/>
      <point x="558" y="103"/>
    </contour>
    <contour>
      <point x="145" y="327" type="curve" smooth="yes"/>
      <point x="145" y="513"/>
      <point x="206" y="598"/>
      <point x="307" y="598" type="curve" smooth="yes"/>
      <point x="349" y="598"/>
      <point x="383" y="585"/>
      <point x="410" y="556" type="curve"/>
      <point x="173" y="147" type="line"/>
      <point x="155" y="190"/>
      <point x="145" y="249"/>
    </contour>
    <contour>
      <point x="469" y="327" type="curve" smooth="yes"/>
      <point x="469" y="142"/>
      <point x="408" y="57"/>
      <point x="307" y="57" type="curve" smooth="yes"/>
      <point x="265" y="57"/>
      <point x="231" y="70"/>
      <point x="204" y="99" type="curve"/>
      <point x="440" y="508" type="line"/>
      <point x="459" y="465"/>
      <point x="469" y="405"/>
    </contour>
  </outline>
</glyph>
<glyph name="Thorn" format="2">
  <advance width="614"/>
  <unicode hex="00DE"/>
  <outline>
    <contour>
      <point x="95" y="655" type="line"/>
      <point x="95" y="0" type="line"/>
      <point x="182" y="0" type="line"/>
      <point x="182" y="148" type="line"/>
      <point x="338" y="148" type="line" smooth="yes"/>
      <point x="479" y="148"/>
      <point x="569" y="216"/>
      <point x="569" y="330" type="curve" smooth="yes"/>
      <point x="569" y="438"/>
      <point x="490" y="507"/>
      <point x="350" y="507" type="curve" smooth="yes"/>
      <point x="182" y="507" type="line"/>
      <point x="182" y="655" type="line"/>
    </contour>
    <contour>
      <point x="351" y="434" type="line" smooth="yes"/>
      <point x="436" y="434"/>
      <point x="481" y="396"/>
      <point x="481" y="328" type="curve" smooth="yes"/>
      <point x="481" y="261"/>
      <point x="432" y="219"/>
      <point x="344" y="219" type="curve" smooth="yes"/>
      <point x="182" y="219" type="line"/>
      <point x="182" y="434" type="line"/>
    </contour>
  </outline>
</glyph>
<glyph name="germandbls" format="2">
  <advance width="614"/>
  <unicode hex="00DF"/>
  <outline>
    <contour>
      <point x="474" y="140" type="curve" smooth="yes"/>
      <point x="474" y="103"/>
      <point x="452" y="79"/>
      <point x="398" y="75" type="curve" smooth="yes"/>
      <point x="317" y="69" type="line"/>
      <point x="322" y="-5" type="line"/>
      <point x="406" y="0" type="line" smooth="yes"/>
      <point x="517" y="6"/>
      <point x="564" y="57"/>
      <point x="564" y="136" type="curve" smooth="yes"/>
      <point x="564" y="200"/>
      <point x="546" y="248"/>
      <point x="398" y="367" type="curve"/>
      <point x="510" y="476"/>
      <point x="522" y="516"/>
      <point x="522" y="573" type="curve" smooth="yes"/>
      <point x="522" y="658"/>
      <point x="451" y="725"/>
      <point x="327" y="725" type="curve" smooth="yes"/>
      <point x="180" y="725"/>
      <point x="91" y="628"/>
      <point x="91" y="485" type="curve" smooth="yes"/>
      <point x="91" y="0" type="line"/>
      <point x="177" y="0" type="line"/>
      <point x="177" y="485" type="line" smooth="yes"/>
      <point x="177" y="590"/>
      <point x="230" y="653"/>
      <point x="326" y="653" type="curve" smooth="yes"/>
      <point x="391" y="653"/>
      <point x="433" y="617"/>
      <point x="433" y="566" type="curve" smooth="yes"/>
      <point x="433" y="528"/>
      <point x="424" y="493"/>
      <point x="308" y="378" type="curve"/>
      <point x="308" y="343" type="line"/>
      <point x="457" y="224"/>
      <point x="474" y="184"/>
    </contour>
  </outline>
</glyph>
<glyph name="ae" format="2">
  <advance width="614"/>
  <unicode hex="00E6"/>
  <outline>
    <contour>
      <point x="515" y="59" type="line"/>
      <point x="472" y="61" type="line" smooth="yes"/>
      <point x="381" y="64"/>
      <point x="346" y="108"/>
      <point x="341" y="202" type="curve"/>
      <point x="584" y="202" type="line"/>
      <point x="586" y="211"/>
      <point x="588" y="223"/>
      <point x="588" y="238" type="curve" smooth="yes"/>
      <point x="588" y="391"/>
      <point x="525" y="476"/>
      <point x="436" y="476" type="curve" smooth="yes"/>
      <point x="391" y="476"/>
      <point x="351" y="449"/>
      <point x="322" y="405" type="curve"/>
      <point x="306" y="454"/>
      <point x="270" y="476"/>
      <point x="206" y="476" type="curve" smooth="yes"/>
      <point x="171" y="476"/>
      <point x="125" y="472"/>
      <point x="71" y="463" type="curve"/>
      <point x="79" y="395" type="line"/>
      <point x="135" y="405"/>
      <point x="170" y="408"/>
      <point x="195" y="408" type="curve" smooth="yes"/>
      <point x="246" y="408"/>
      <point x="260" y="387"/>
      <point x="260" y="323" type="curve" smooth="yes"/>
      <point x="260" y="286" type="line"/>
      <point x="170" y="268" type="line" smooth="yes"/>
      <point x="67" y="248"/>
      <point x="30" y="205"/>
      <point x="30" y="125" type="curve" smooth="yes"/>
      <point x="30" y="40"/>
      <point x="72" y="-7"/>
      <point x="143" y="-7" type="curve" smooth="yes"/>
      <point x="192" y="-7"/>
      <point x="232" y="15"/>
      <point x="282" y="60" type="curve"/>
      <point x="301" y="60" type="line"/>
      <point x="332" y="18"/>
      <point x="381" y="-4"/>
      <point x="454" y="-6" type="curve" smooth="yes"/>
      <point x="512" y="-7" type="line"/>
    </contour>
    <contour>
      <point x="432" y="409" type="curve" smooth="yes"/>
      <point x="473" y="409"/>
      <point x="502" y="362"/>
      <point x="506" y="266" type="curve"/>
      <point x="342" y="266" type="line"/>
      <point x="350" y="359"/>
      <point x="388" y="409"/>
    </contour>
    <contour>
      <point x="166" y="60" type="curve" smooth="yes"/>
      <point x="130" y="60"/>
      <point x="113" y="86"/>
      <point x="113" y="131" type="curve" smooth="yes"/>
      <point x="113" y="175"/>
      <point x="128" y="197"/>
      <point x="191" y="213" type="curve" smooth="yes"/>
      <point x="260" y="230" type="line"/>
      <point x="260" y="184"/>
      <point x="264" y="147"/>
      <point x="274" y="117" type="curve"/>
      <point x="220" y="75"/>
      <point x="198" y="60"/>
    </contour>
  </outline>
</glyph>
<glyph name="ccedilla" format="2">
  <advance width="614"/>
  <unicode hex="00E7"/>
  <outline>
    <contour>
      <point x="328" y="407" type="curve" smooth="yes"/>
      <point x="373" y="407"/>
      <point x="415" y="399"/>
      <point x="503" y="342" type="curve"/>
      <point x="543" y="405" type="line"/>
      <point x="447" y="468"/>
      <point x="387" y="480"/>
      <point x="327" y="480" type="curve" smooth="yes"/>
      <point x="182" y="480"/>
      <point x="70" y="374"/>
      <point x="70" y="236" type="curve" smooth="yes"/>
      <point x="70" y="93"/>
      <point x="155" y="2"/>
      <point x="278" y="-13" type="curve"/>
      <point x="247" y="-101" type="line"/>
      <point x="253" y="-111" type="line"/>
      <point x="375" y="-115"/>
      <point x="392" y="-131"/>
      <point x="392" y="-155" type="curve" smooth="yes"/>
      <point x="392" y="-181"/>
      <point x="372" y="-200"/>
      <point x="192" y="-215" type="curve"/>
      <point x="209" y="-270" type="line"/>
      <point x="440" y="-250"/>
      <point x="462" y="-207"/>
      <point x="462" y="-153" type="curve" smooth="yes"/>
      <point x="462" y="-107"/>
      <point x="437" y="-77"/>
      <point x="311" y="-64" type="curve"/>
      <point x="327" y="-15" type="line"/>
      <point x="392" y="-13"/>
      <point x="453" y="4"/>
      <point x="545" y="58" type="curve"/>
      <point x="508" y="118" type="line"/>
      <point x="420" y="69"/>
      <point x="369" y="58"/>
      <point x="319" y="58" type="curve" smooth="yes"/>
      <point x="227" y="58"/>
      <point x="159" y="129"/>
      <point x="159" y="235" type="curve" smooth="yes"/>
      <point x="159" y="336"/>
      <point x="228" y="407"/>
    </contour>
  </outline>
</glyph>
<glyph name="eth" format="2">
  <advance width="614"/>
  <unicode hex="00F0"/>
  <outline>
    <contour>
      <point x="427" y="748" type="line"/>
      <point x="346" y="669" type="line"/>
      <point x="300" y="696"/>
      <point x="248" y="713"/>
      <point x="191" y="725" type="curve"/>
      <point x="169" y="655" type="line"/>
      <point x="223" y="644"/>
      <point x="260" y="631"/>
      <point x="292" y="612" type="curve"/>
      <point x="195" y="522" type="line"/>
      <point x="235" y="483" type="line"/>
      <point x="339" y="583" type="line"/>
      <point x="410" y="536"/>
      <point x="451" y="479"/>
      <point x="463" y="378" type="curve"/>
      <point x="402" y="414"/>
      <point x="348" y="424"/>
      <point x="293" y="424" type="curve" smooth="yes"/>
      <point x="155" y="424"/>
      <point x="64" y="328"/>
      <point x="64" y="212" type="curve" smooth="yes"/>
      <point x="64" y="71"/>
      <point x="157" y="-15"/>
      <point x="289" y="-15" type="curve" smooth="yes"/>
      <point x="445" y="-15"/>
      <point x="550" y="102"/>
      <point x="550" y="323" type="curve" smooth="yes"/>
      <point x="550" y="464"/>
      <point x="499" y="564"/>
      <point x="393" y="640" type="curve"/>
      <point x="468" y="710" type="line"/>
    </contour>
    <contour>
      <point x="151" y="211" type="curve" smooth="yes"/>
      <point x="151" y="298"/>
      <point x="206" y="357"/>
      <point x="306" y="357" type="curve" smooth="yes"/>
      <point x="350" y="357"/>
      <point x="392" y="350"/>
      <point x="464" y="311" type="curve"/>
      <point x="460" y="128"/>
      <point x="388" y="57"/>
      <point x="293" y="57" type="curve" smooth="yes"/>
      <point x="212" y="57"/>
      <point x="151" y="116"/>
    </contour>
  </outline>
</glyph>
<glyph name="divide" format="2">
  <advance width="614"/>
  <unicode hex="00F7"/>
  <outline>
    <contour>
      <point x="308" y="472" type="curve" smooth="yes"/>
      <point x="352" y="472"/>
      <point x="377" y="492"/>
      <point x="377" y="532" type="curve" smooth="yes"/>
      <point x="377" y="570"/>
      <point x="354" y="592"/>
      <point x="308" y="592" type="curve" smooth="yes"/>
      <point x="263" y="592"/>
      <point x="239" y="570"/>
      <point x="239" y="532" type="curve" smooth="yes"/>
      <point x="239" y="493"/>
      <point x="261" y="472"/>
    </contour>
    <contour>
      <point x="70" y="292" type="line"/>
      <point x="544" y="292" type="line"/>
      <point x="544" y="363" type="line"/>
      <point x="70" y="363" type="line"/>
    </contour>
    <contour>
      <point x="308" y="63" type="curve" smooth="yes"/>
      <point x="352" y="63"/>
      <point x="377" y="84"/>
      <point x="377" y="124" type="curve" smooth="yes"/>
      <point x="377" y="162"/>
      <point x="354" y="184"/>
      <point x="308" y="184" type="curve" smooth="yes"/>
      <point x="263" y="184"/>
      <point x="239" y="161"/>
      <point x="239" y="123" type="curve" smooth="yes"/>
      <point x="239" y="84"/>
      <point x="261" y="63"/>
    </contour>
  </outline>
</glyph>
<glyph name="oslash" format="2">
  <advance width="614"/>
  <unicode hex="00F8"/>
  <outline>
    <contour>
      <point x="550" y="231" type="curve" smooth="yes"/>
      <point x="550" y="301"/>
      <point x="523" y="364"/>
      <point x="478" y="409" type="curve"/>
      <point x="578" y="536" type="line"/>
      <point x="490" y="536" type="line"/>
      <point x="428" y="448" type="line"/>
      <point x="393" y="468"/>
      <point x="352" y="480"/>
      <point x="309" y="480" type="curve" smooth="yes"/>
      <point x="165" y="480"/>
      <point x="64" y="377"/>
      <point x="64" y="234" type="curve" smooth="yes"/>
      <point x="64" y="163"/>
      <point x="92" y="101"/>
      <point x="136" y="56" type="curve"/>
      <point x="36" y="-71" type="line"/>
      <point x="124" y="-71" type="line"/>
      <point x="184" y="18" type="line"/>
      <point x="220" y="-3"/>
      <point x="261" y="-15"/>
      <point x="305" y="-15" type="curve" smooth="yes"/>
      <point x="449" y="-15"/>
      <point x="550" y="88"/>
    </contour>
    <contour>
      <point x="151" y="233" type="curve" smooth="yes"/>
      <point x="151" y="342"/>
      <point x="215" y="409"/>
      <point x="307" y="409" type="curve" smooth="yes"/>
      <point x="338" y="409"/>
      <point x="365" y="402"/>
      <point x="387" y="389" type="curve"/>
      <point x="185" y="115" type="line"/>
      <point x="163" y="144"/>
      <point x="151" y="184"/>
    </contour>
    <contour>
      <point x="463" y="232" type="curve" smooth="yes"/>
      <point x="463" y="124"/>
      <point x="399" y="57"/>
      <point x="307" y="57" type="curve" smooth="yes"/>
      <point x="276" y="57"/>
      <point x="250" y="64"/>
      <point x="227" y="77" type="curve"/>
      <point x="429" y="351" type="line"/>
      <point x="451" y="321"/>
      <point x="463" y="281"/>
    </contour>
  </outline>
</glyph>
<glyph name="Aogonek" format="2">
  <advance width="614"/>
  <unicode hex="0104"/>
  <outline>
    <contour>
      <point x="128" y="0" type="line"/>
      <point x="184" y="178" type="line"/>
      <point x="425" y="178" type="line"/>
      <point x="483" y="0" type="line"/>
      <point x="497" y="0" type="line"/>
      <point x="424" y="-91"/>
      <point x="412" y="-127"/>
      <point x="412" y="-155" type="curve" smooth="yes"/>
      <point x="412" y="-202"/>
      <point x="437" y="-226"/>
      <point x="504" y="-230" type="curve" smooth="yes"/>
      <point x="598" y="-235" type="line"/>
      <point x="604" y="-176" type="line"/>
      <point x="528" y="-172" type="line" smooth="yes"/>
      <point x="493" y="-170"/>
      <point x="482" y="-155"/>
      <point x="482" y="-129" type="curve" smooth="yes"/>
      <point x="482" y="-109"/>
      <point x="488" y="-79"/>
      <point x="546" y="0" type="curve"/>
      <point x="574" y="0" type="line"/>
      <point x="361" y="655" type="line"/>
      <point x="254" y="655" type="line"/>
      <point x="40" y="0" type="line"/>
    </contour>
    <contour>
      <point x="206" y="248" type="line"/>
      <point x="304" y="566" type="line"/>
      <point x="404" y="248" type="line"/>
    </contour>
  </outline>
</glyph>
<glyph name="aogonek" format="2">
  <advance width="614"/>
  <unicode hex="0105"/>
  <outline>
    <contour>
      <point x="362" y="-155" type="curve" smooth="yes"/>
      <point x="362" y="-202"/>
      <point x="387" y="-226"/>
      <point x="453" y="-230" type="curve" smooth="yes"/>
      <point x="548" y="-235" type="line"/>
      <point x="553" y="-176" type="line"/>
      <point x="478" y="-172" type="line" smooth="yes"/>
      <point x="442" y="-170"/>
      <point x="432" y="-155"/>
      <point x="432" y="-129" type="curve" smooth="yes"/>
      <point x="432" y="-109"/>
      <point x="438" y="-79"/>
      <point x="495" y="0" type="curve"/>
      <point x="512" y="-2"/>
      <point x="534" y="-3"/>
      <point x="569" y="-4" type="curve"/>
      <point x="575" y="62" type="line"/>
      <point x="530" y="65" type="line" smooth="yes"/>
      <point x="496" y="68"/>
      <point x="489" y="78"/>
      <point x="489" y="117" type="curve" smooth="yes"/>
      <point x="489" y="321" type="line" smooth="yes"/>
      <point x="489" y="427"/>
      <point x="441" y="473"/>
      <point x="286" y="473" type="curve" smooth="yes"/>
      <point x="243" y="473"/>
      <point x="179" y="467"/>
      <point x="109" y="455" type="curve"/>
      <point x="118" y="386" type="line"/>
      <point x="184" y="397"/>
      <point x="246" y="403"/>
      <point x="283" y="403" type="curve" smooth="yes"/>
      <point x="382" y="403"/>
      <point x="405" y="382"/>
      <point x="405" y="323" type="curve" smooth="yes"/>
      <point x="405" y="288" type="line"/>
      <point x="232" y="268" type="line" smooth="yes"/>
      <point x="108" y="254"/>
      <point x="67" y="214"/>
      <point x="67" y="125" type="curve" smooth="yes"/>
      <point x="67" y="40"/>
      <point x="125" y="-7"/>
      <point x="208" y="-7" type="curve" smooth="yes"/>
      <point x="280" y="-7"/>
      <point x="340" y="18"/>
      <point x="399" y="66" type="curve"/>
      <point x="408" y="66" type="line"/>
      <point x="416" y="39"/>
      <point x="431" y="21"/>
      <point x="456" y="10" type="curve"/>
      <point x="375" y="-88"/>
      <point x="362" y="-126"/>
    </contour>
    <contour>
      <point x="227" y="60" type="curve" smooth="yes"/>
      <point x="175" y="60"/>
      <point x="152" y="86"/>
      <point x="152" y="131" type="curve" smooth="yes"/>
      <point x="152" y="172"/>
      <point x="167" y="200"/>
      <point x="247" y="211" type="curve" smooth="yes"/>
      <point x="405" y="232" type="line"/>
      <point x="405" y="137" type="line"/>
      <point x="324" y="77"/>
      <point x="278" y="60"/>
    </contour>
  </outline>
</glyph>
<glyph name="dcroat" format="2">
  <advance width="614"/>
  <unicode hex="0111"/>
  <anchor x="325" y="-33" name="below"/>
  <outline>
    <contour>
      <point x="257" y="-9" type="curve" smooth="yes"/>
      <point x="319" y="-9"/>
      <point x="366" y="15"/>
      <point x="425" y="77" type="curve"/>
      <point x="433" y="0" type="line"/>
      <point x="506" y="0" type="line"/>
      <point x="506" y="529" type="line"/>
      <point x="589" y="529" type="line"/>
      <point x="589" y="586" type="line"/>
      <point x="506" y="586" type="line"/>
      <point x="506" y="710" type="line"/>
      <point x="420" y="710" type="line"/>
      <point x="420" y="586" type="line"/>
      <point x="242" y="586" type="line"/>
      <point x="242" y="529" type="line"/>
      <point x="420" y="529" type="line"/>
      <point x="420" y="374" type="line"/>
      <point x="370" y="416"/>
      <point x="327" y="428"/>
      <point x="284" y="428" type="curve" smooth="yes"/>
      <point x="155" y="428"/>
      <point x="59" y="335"/>
      <point x="59" y="205" type="curve" smooth="yes"/>
      <point x="59" y="74"/>
      <point x="148" y="-9"/>
    </contour>
    <contour>
      <point x="147" y="208" type="curve" smooth="yes"/>
      <point x="147" y="294"/>
      <point x="201" y="360"/>
      <point x="294" y="360" type="curve" smooth="yes"/>
      <point x="327" y="360"/>
      <point x="367" y="349"/>
      <point x="420" y="300" type="curve"/>
      <point x="420" y="142" type="line"/>
      <point x="358" y="80"/>
      <point x="321" y="62"/>
      <point x="279" y="62" type="curve" smooth="yes"/>
      <point x="207" y="62"/>
      <point x="147" y="118"/>
    </contour>
  </outline>
</glyph>
<glyph name="Eogonek" format="2">
  <advance width="614"/>
  <unicode hex="0118"/>
  <outline>
    <contour>
      <point x="353" y="-155" type="curve" smooth="yes"/>
      <point x="353" y="-202"/>
      <point x="378" y="-226"/>
      <point x="445" y="-230" type="curve" smooth="yes"/>
      <point x="539" y="-235" type="line"/>
      <point x="545" y="-176" type="line"/>
      <point x="469" y="-172" type="line" smooth="yes"/>
      <point x="433" y="-170"/>
      <point x="423" y="-155"/>
      <point x="423" y="-129" type="curve" smooth="yes"/>
      <point x="423" y="-109"/>
      <point x="429" y="-79"/>
      <point x="486" y="0" type="curve"/>
      <point x="542" y="0" type="line"/>
      <point x="542" y="72" type="line"/>
      <point x="185" y="72" type="line"/>
      <point x="185" y="295" type="line"/>
      <point x="481" y="295" type="line"/>
      <point x="481" y="367" type="line"/>
      <point x="185" y="367" type="line"/>
      <point x="185" y="583" type="line"/>
      <point x="535" y="583" type="line"/>
      <point x="535" y="655" type="line"/>
      <point x="98" y="655" type="line"/>
      <point x="98" y="0" type="line"/>
      <point x="438" y="0" type="line"/>
      <point x="365" y="-91"/>
      <point x="353" y="-127"/>
    </contour>
  </outline>
</glyph>
<glyph name="eogonek" format="2">
  <advance width="614"/>
  <unicode hex="0119"/>
  <anchor x="318" y="492" name="aboveLCx"/>
  <anchor x="318" y="525" name="aboveLC"/>
  <outline>
    <contour>
      <point x="299" y="-155" type="curve" smooth="yes"/>
      <point x="299" y="-202"/>
      <point x="324" y="-226"/>
      <point x="390" y="-230" type="curve" smooth="yes"/>
      <point x="485" y="-235" type="line"/>
      <point x="491" y="-176" type="line"/>
      <point x="415" y="-172" type="line" smooth="yes"/>
      <point x="379" y="-170"/>
      <point x="369" y="-155"/>
      <point x="369" y="-129" type="curve" smooth="yes"/>
      <point x="369" y="-110"/>
      <point x="379" y="-85"/>
      <point x="450" y="-7" type="curve"/>
      <point x="453" y="60" type="line"/>
      <point x="357" y="63" type="line" smooth="yes"/>
      <point x="228" y="67"/>
      <point x="169" y="109"/>
      <point x="160" y="202" type="curve"/>
      <point x="537" y="202" type="line"/>
      <point x="539" y="211"/>
      <point x="540" y="223"/>
      <point x="540" y="238" type="curve" smooth="yes"/>
      <point x="540" y="397"/>
      <point x="452" y="480"/>
      <point x="317" y="480" type="curve" smooth="yes"/>
      <point x="177" y="480"/>
      <point x="75" y="373"/>
      <point x="75" y="225" type="curve" smooth="yes"/>
      <point x="75" y="81"/>
      <point x="152" y="-2"/>
      <point x="332" y="-5" type="curve" smooth="yes"/>
      <point x="396" y="-6" type="line"/>
      <point x="312" y="-91"/>
      <point x="299" y="-128"/>
    </contour>
    <contour>
      <point x="317" y="412" type="curve" smooth="yes"/>
      <point x="395" y="412"/>
      <point x="448" y="368"/>
      <point x="455" y="266" type="curve"/>
      <point x="162" y="266" type="line"/>
      <point x="175" y="360"/>
      <point x="239" y="412"/>
    </contour>
  </outline>
</glyph>
<glyph name="hbar" format="2">
  <advance width="614"/>
  <unicode hex="0127"/>
  <outline>
    <contour>
      <point x="374" y="529" type="line"/>
      <point x="374" y="586" type="line"/>
      <point x="196" y="586" type="line"/>
      <point x="196" y="710" type="line"/>
      <point x="110" y="710" type="line"/>
      <point x="110" y="586" type="line"/>
      <point x="27" y="586" type="line"/>
      <point x="27" y="529" type="line"/>
      <point x="110" y="529" type="line"/>
      <point x="110" y="0" type="line"/>
      <point x="196" y="0" type="line"/>
      <point x="196" y="241" type="line"/>
      <point x="280" y="321"/>
      <point x="315" y="350"/>
      <point x="357" y="350" type="curve" smooth="yes"/>
      <point x="413" y="350"/>
      <point x="436" y="322"/>
      <point x="436" y="265" type="curve" smooth="yes"/>
      <point x="436" y="0" type="line"/>
      <point x="522" y="0" type="line"/>
      <point x="522" y="280" type="line" smooth="yes"/>
      <point x="522" y="371"/>
      <point x="476" y="428"/>
      <point x="381" y="428" type="curve" smooth="yes"/>
      <point x="320" y="428"/>
      <point x="277" y="399"/>
      <point x="196" y="321" type="curve"/>
      <point x="196" y="529" type="line"/>
    </contour>
  </outline>
</glyph>
<glyph name="Iogonek" format="2">
  <advance width="614"/>
  <unicode hex="012E"/>
  <outline>
    <contour>
      <point x="131" y="43" type="line"/>
      <point x="131" y="0" type="line"/>
      <point x="285" y="0" type="line"/>
      <point x="212" y="-91"/>
      <point x="200" y="-126"/>
      <point x="200" y="-155" type="curve" smooth="yes"/>
      <point x="200" y="-202"/>
      <point x="225" y="-226"/>
      <point x="291" y="-229" type="curve" smooth="yes"/>
      <point x="386" y="-234" type="line"/>
      <point x="392" y="-176" type="line"/>
      <point x="316" y="-171" type="line" smooth="yes"/>
      <point x="280" y="-169"/>
      <point x="270" y="-154"/>
      <point x="270" y="-128" type="curve" smooth="yes"/>
      <point x="270" y="-108"/>
      <point x="275" y="-79"/>
      <point x="332" y="0" type="curve"/>
      <point x="483" y="0" type="line"/>
      <point x="483" y="43" type="line"/>
      <point x="351" y="66" type="line"/>
      <point x="351" y="589" type="line"/>
      <point x="483" y="612" type="line"/>
      <point x="483" y="655" type="line"/>
      <point x="131" y="655" type="line"/>
      <point x="131" y="612" type="line"/>
      <point x="264" y="589" type="line"/>
      <point x="264" y="66" type="line"/>
    </contour>
  </outline>
</glyph>
<glyph name="iogonek" format="2">
  <advance width="614"/>
  <unicode hex="012F"/>
  <outline>
    <contour>
      <point x="310" y="603" type="curve" smooth="yes"/>
      <point x="356" y="603"/>
      <point x="385" y="626"/>
      <point x="385" y="665" type="curve" smooth="yes"/>
      <point x="385" y="707"/>
      <point x="360" y="730"/>
      <point x="312" y="730" type="curve" smooth="yes"/>
      <point x="265" y="730"/>
      <point x="237" y="703"/>
      <point x="237" y="667" type="curve" smooth="yes"/>
      <point x="237" y="625"/>
      <point x="267" y="603"/>
    </contour>
    <contour>
      <point x="114" y="72" type="line"/>
      <point x="114" y="0" type="line"/>
      <point x="299" y="0" type="line"/>
      <point x="226" y="-91"/>
      <point x="214" y="-127"/>
      <point x="214" y="-155" type="curve" smooth="yes"/>
      <point x="214" y="-202"/>
      <point x="239" y="-226"/>
      <point x="306" y="-230" type="curve" smooth="yes"/>
      <point x="400" y="-235" type="line"/>
      <point x="406" y="-176" type="line"/>
      <point x="330" y="-172" type="line" smooth="yes"/>
      <point x="294" y="-170"/>
      <point x="284" y="-155"/>
      <point x="284" y="-129" type="curve" smooth="yes"/>
      <point x="284" y="-109"/>
      <point x="290" y="-79"/>
      <point x="348" y="0" type="curve"/>
      <point x="531" y="0" type="line"/>
      <point x="531" y="72" type="line"/>
      <point x="365" y="72" type="line"/>
      <point x="365" y="465" type="line"/>
      <point x="134" y="465" type="line"/>
      <point x="134" y="393" type="line"/>
      <point x="279" y="393" type="line"/>
      <point x="279" y="72" type="line"/>
    </contour>
  </outline>
</glyph>
<glyph name="dotlessi" format="2">
  <advance width="614"/>
  <unicode hex="0131"/>
  <anchor x="323" y="-35" name="below"/>
  <anchor x="318" y="502" name="aboveLC"/>
  <anchor x="323" y="-10" name="belowogonek"/>
  <outline>
    <contour>
      <point x="114" y="72" type="line"/>
      <point x="114" y="0" type="line"/>
      <point x="531" y="0" type="line"/>
      <point x="531" y="72" type="line"/>
      <point x="365" y="72" type="line"/>
      <point x="365" y="465" type="line"/>
      <point x="134" y="465" type="line"/>
      <point x="134" y="393" type="line"/>
      <point x="279" y="393" type="line"/>
      <point x="279" y="72" type="line"/>
    </contour>
  </outline>
</glyph>
<glyph name="lslash" format="2">
  <advance width="614"/>
  <unicode hex="0142"/>
  <outline>
    <contour>
      <point x="94" y="239" type="line"/>
      <point x="242" y="320" type="line"/>
      <point x="242" y="165" type="line" smooth="yes"/>
      <point x="242" y="47"/>
      <point x="283" y="7"/>
      <point x="404" y="0" type="curve" smooth="yes"/>
      <point x="523" y="-7" type="line"/>
      <point x="528" y="67" type="line"/>
      <point x="419" y="74" type="line" smooth="yes"/>
      <point x="353" y="77"/>
      <point x="327" y="102"/>
      <point x="327" y="174" type="curve" smooth="yes"/>
      <point x="327" y="354" type="line"/>
      <point x="490" y="444" type="line"/>
      <point x="490" y="514" type="line"/>
      <point x="327" y="424" type="line"/>
      <point x="327" y="710" type="line"/>
      <point x="59" y="710" type="line"/>
      <point x="59" y="638" type="line"/>
      <point x="242" y="638" type="line"/>
      <point x="242" y="390" type="line"/>
      <point x="94" y="309" type="line"/>
    </contour>
  </outline>
</glyph>
<glyph name="Eng" format="2">
  <advance width="614"/>
  <unicode hex="014A"/>
  <outline>
    <contour>
      <point x="171" y="0" type="line"/>
      <point x="166" y="550" type="line"/>
      <point x="449" y="-53" type="line"/>
      <point x="449" y="-127"/>
      <point x="413" y="-154"/>
      <point x="335" y="-160" type="curve" smooth="yes"/>
      <point x="212" y="-169" type="line"/>
      <point x="216" y="-238" type="line"/>
      <point x="340" y="-230" type="line" smooth="yes"/>
      <point x="473" y="-222"/>
      <point x="524" y="-172"/>
      <point x="524" y="-49" type="curve" smooth="yes"/>
      <point x="524" y="655" type="line"/>
      <point x="443" y="655" type="line"/>
      <point x="447" y="132" type="line"/>
      <point x="201" y="655" type="line"/>
      <point x="90" y="655" type="line"/>
      <point x="90" y="0" type="line"/>
    </contour>
  </outline>
</glyph>
<glyph name="eng" format="2">
  <advance width="614"/>
  <unicode hex="014B"/>
  <outline>
    <contour>
      <point x="168" y="465" type="line"/>
      <point x="95" y="465" type="line"/>
      <point x="95" y="0" type="line"/>
      <point x="181" y="0" type="line"/>
      <point x="181" y="286" type="line"/>
      <point x="269" y="369"/>
      <point x="312" y="394"/>
      <point x="357" y="394" type="curve" smooth="yes"/>
      <point x="413" y="394"/>
      <point x="436" y="366"/>
      <point x="436" y="309" type="curve" smooth="yes"/>
      <point x="436" y="-56" type="line" smooth="yes"/>
      <point x="436" y="-123"/>
      <point x="409" y="-150"/>
      <point x="339" y="-155" type="curve" smooth="yes"/>
      <point x="216" y="-164" type="line"/>
      <point x="220" y="-238" type="line"/>
      <point x="344" y="-230" type="line" smooth="yes"/>
      <point x="473" y="-222"/>
      <point x="522" y="-175"/>
      <point x="522" y="-55" type="curve" smooth="yes"/>
      <point x="522" y="324" type="line" smooth="yes"/>
      <point x="522" y="415"/>
      <point x="476" y="472"/>
      <point x="381" y="472" type="curve" smooth="yes"/>
      <point x="316" y="472"/>
      <point x="264" y="443"/>
      <point x="177" y="361" type="curve"/>
    </contour>
  </outline>
</glyph>
<glyph name="oe" format="2">
  <advance width="614"/>
  <unicode hex="0153"/>
  <outline>
    <contour>
      <point x="190" y="-14" type="curve" smooth="yes"/>
      <point x="242" y="-14"/>
      <point x="285" y="21"/>
      <point x="311" y="80" type="curve"/>
      <point x="336" y="25"/>
      <point x="380" y="-5"/>
      <point x="452" y="-6" type="curve" smooth="yes"/>
      <point x="511" y="-7" type="line"/>
      <point x="514" y="59" type="line"/>
      <point x="471" y="61" type="line" smooth="yes"/>
      <point x="388" y="64"/>
      <point x="356" y="108"/>
      <point x="352" y="202" type="curve"/>
      <point x="584" y="202" type="line"/>
      <point x="586" y="211"/>
      <point x="588" y="223"/>
      <point x="588" y="238" type="curve" smooth="yes"/>
      <point x="588" y="393"/>
      <point x="527" y="480"/>
      <point x="441" y="480" type="curve" smooth="yes"/>
      <point x="389" y="480"/>
      <point x="344" y="440"/>
      <point x="316" y="375" type="curve"/>
      <point x="290" y="441"/>
      <point x="247" y="480"/>
      <point x="194" y="480" type="curve" smooth="yes"/>
      <point x="96" y="480"/>
      <point x="26" y="377"/>
      <point x="26" y="234" type="curve" smooth="yes"/>
      <point x="26" y="84"/>
      <point x="94" y="-14"/>
    </contour>
    <contour>
      <point x="194" y="55" type="curve" smooth="yes"/>
      <point x="145" y="55"/>
      <point x="112" y="122"/>
      <point x="112" y="233" type="curve" smooth="yes"/>
      <point x="112" y="343"/>
      <point x="146" y="411"/>
      <point x="194" y="411" type="curve" smooth="yes"/>
      <point x="242" y="411"/>
      <point x="274" y="340"/>
      <point x="274" y="232" type="curve" smooth="yes"/>
      <point x="274" y="119"/>
      <point x="242" y="55"/>
    </contour>
    <contour>
      <point x="438" y="413" type="curve" smooth="yes"/>
      <point x="475" y="413"/>
      <point x="503" y="364"/>
      <point x="507" y="266" type="curve"/>
      <point x="352" y="266" type="line"/>
      <point x="360" y="361"/>
      <point x="395" y="413"/>
    </contour>
  </outline>
</glyph>
<glyph name="Scedilla" format="2">
  <advance width="614"/>
  <unicode hex="015E"/>
  <outline>
    <contour>
      <point x="308" y="59" type="curve" smooth="yes"/>
      <point x="254" y="59"/>
      <point x="176" y="79"/>
      <point x="91" y="110" type="curve"/>
      <point x="70" y="36" type="line"/>
      <point x="147" y="6"/>
      <point x="213" y="-9"/>
      <point x="278" y="-12" type="curve"/>
      <point x="247" y="-101" type="line"/>
      <point x="253" y="-111" type="line"/>
      <point x="376" y="-115"/>
      <point x="393" y="-131"/>
      <point x="393" y="-155" type="curve" smooth="yes"/>
      <point x="393" y="-181"/>
      <point x="372" y="-200"/>
      <point x="193" y="-215" type="curve"/>
      <point x="209" y="-270" type="line"/>
      <point x="441" y="-250"/>
      <point x="462" y="-207"/>
      <point x="462" y="-153" type="curve" smooth="yes"/>
      <point x="462" y="-107"/>
      <point x="437" y="-77"/>
      <point x="311" y="-64" type="curve"/>
      <point x="328" y="-13" type="line"/>
      <point x="462" y="-6"/>
      <point x="540" y="65"/>
      <point x="540" y="177" type="curve" smooth="yes"/>
      <point x="540" y="273"/>
      <point x="494" y="323"/>
      <point x="372" y="362" type="curve" smooth="yes"/>
      <point x="300" y="385" type="line" smooth="yes"/>
      <point x="210" y="413"/>
      <point x="184" y="447"/>
      <point x="184" y="503" type="curve" smooth="yes"/>
      <point x="184" y="555"/>
      <point x="221" y="596"/>
      <point x="318" y="596" type="curve" smooth="yes"/>
      <point x="367" y="596"/>
      <point x="426" y="585"/>
      <point x="506" y="561" type="curve"/>
      <point x="521" y="636" type="line"/>
      <point x="443" y="658"/>
      <point x="390" y="668"/>
      <point x="320" y="668" type="curve" smooth="yes"/>
      <point x="168" y="668"/>
      <point x="96" y="585"/>
      <point x="96" y="497" type="curve" smooth="yes"/>
      <point x="96" y="406"/>
      <point x="143" y="346"/>
      <point x="266" y="308" type="curve" smooth="yes"/>
      <point x="337" y="285" type="line" smooth="yes"/>
      <point x="425" y="258"/>
      <point x="452" y="224"/>
      <point x="452" y="173" type="curve" smooth="yes"/>
      <point x="452" y="103"/>
      <point x="406" y="59"/>
    </contour>
  </outline>
</glyph>
<glyph name="scedilla" format="2">
  <advance width="614"/>
  <unicode hex="015F"/>
  <outline>
    <contour>
      <point x="522" y="130" type="curve" smooth="yes"/>
      <point x="522" y="199"/>
      <point x="496" y="236"/>
      <point x="368" y="266" type="curve" smooth="yes"/>
      <point x="282" y="286" type="line" smooth="yes"/>
      <point x="207" y="305"/>
      <point x="194" y="322"/>
      <point x="194" y="352" type="curve" smooth="yes"/>
      <point x="194" y="384"/>
      <point x="222" y="408"/>
      <point x="329" y="408" type="curve" smooth="yes"/>
      <point x="370" y="408"/>
      <point x="428" y="401"/>
      <point x="491" y="387" type="curve"/>
      <point x="503" y="460" type="line"/>
      <point x="444" y="471"/>
      <point x="374" y="478"/>
      <point x="330" y="478" type="curve" smooth="yes"/>
      <point x="169" y="478"/>
      <point x="106" y="422"/>
      <point x="106" y="345" type="curve" smooth="yes"/>
      <point x="106" y="280"/>
      <point x="131" y="243"/>
      <point x="259" y="212" type="curve" smooth="yes"/>
      <point x="346" y="192" type="line" smooth="yes"/>
      <point x="419" y="174"/>
      <point x="435" y="156"/>
      <point x="435" y="124" type="curve" smooth="yes"/>
      <point x="435" y="86"/>
      <point x="401" y="58"/>
      <point x="291" y="58" type="curve" smooth="yes"/>
      <point x="248" y="58"/>
      <point x="179" y="65"/>
      <point x="107" y="80" type="curve"/>
      <point x="94" y="7" type="line"/>
      <point x="163" y="-7"/>
      <point x="219" y="-12"/>
      <point x="273" y="-13" type="curve"/>
      <point x="242" y="-101" type="line"/>
      <point x="248" y="-111" type="line"/>
      <point x="370" y="-115"/>
      <point x="387" y="-131"/>
      <point x="387" y="-155" type="curve" smooth="yes"/>
      <point x="387" y="-181"/>
      <point x="367" y="-200"/>
      <point x="187" y="-215" type="curve"/>
      <point x="204" y="-270" type="line"/>
      <point x="435" y="-250"/>
      <point x="457" y="-207"/>
      <point x="457" y="-153" type="curve" smooth="yes"/>
      <point x="457" y="-107"/>
      <point x="432" y="-77"/>
      <point x="306" y="-64" type="curve"/>
      <point x="323" y="-12" type="line"/>
      <point x="462" y="-4"/>
      <point x="522" y="56"/>
    </contour>
  </outline>
</glyph>
<glyph name="Tcedilla" format="2">
  <advance width="614"/>
  <unicode hex="0162"/>
  <outline>
    <contour>
      <point x="51" y="583" type="line"/>
      <point x="264" y="583" type="line"/>
      <point x="264" y="0" type="line"/>
      <point x="281" y="0" type="line"/>
      <point x="247" y="-95" type="line"/>
      <point x="253" y="-105" type="line"/>
      <point x="376" y="-110"/>
      <point x="393" y="-126"/>
      <point x="393" y="-150" type="curve" smooth="yes"/>
      <point x="393" y="-176"/>
      <point x="372" y="-194"/>
      <point x="193" y="-209" type="curve"/>
      <point x="209" y="-265" type="line"/>
      <point x="441" y="-245"/>
      <point x="462" y="-202"/>
      <point x="462" y="-148" type="curve" smooth="yes"/>
      <point x="462" y="-102"/>
      <point x="437" y="-71"/>
      <point x="311" y="-59" type="curve"/>
      <point x="330" y="0" type="line"/>
      <point x="351" y="0" type="line"/>
      <point x="351" y="583" type="line"/>
      <point x="563" y="583" type="line"/>
      <point x="563" y="655" type="line"/>
      <point x="51" y="655" type="line"/>
    </contour>
  </outline>
</glyph>
<glyph name="tcedilla" format="2">
  <advance width="614"/>
  <unicode hex="0163"/>
  <outline>
    <contour>
      <point x="219" y="177" type="line" smooth="yes"/>
      <point x="219" y="79"/>
      <point x="239" y="32"/>
      <point x="300" y="12" type="curve"/>
      <point x="262" y="-96" type="line"/>
      <point x="268" y="-106" type="line"/>
      <point x="391" y="-110"/>
      <point x="408" y="-126"/>
      <point x="408" y="-150" type="curve" smooth="yes"/>
      <point x="408" y="-176"/>
      <point x="387" y="-195"/>
      <point x="208" y="-210" type="curve"/>
      <point x="224" y="-265" type="line"/>
      <point x="456" y="-245"/>
      <point x="477" y="-202"/>
      <point x="477" y="-148" type="curve" smooth="yes"/>
      <point x="477" y="-102"/>
      <point x="452" y="-72"/>
      <point x="326" y="-59" type="curve"/>
      <point x="346" y="3" type="line"/>
      <point x="356" y="1"/>
      <point x="366" y="1"/>
      <point x="377" y="0" type="curve" smooth="yes"/>
      <point x="532" y="-7" type="line"/>
      <point x="538" y="66" type="line"/>
      <point x="397" y="74" type="line" smooth="yes"/>
      <point x="325" y="78"/>
      <point x="304" y="102"/>
      <point x="304" y="189" type="curve" smooth="yes"/>
      <point x="304" y="393" type="line"/>
      <point x="510" y="393" type="line"/>
      <point x="510" y="465" type="line"/>
      <point x="303" y="465" type="line"/>
      <point x="303" y="638" type="line"/>
      <point x="220" y="638" type="line"/>
      <point x="220" y="465" type="line"/>
      <point x="62" y="465" type="line"/>
      <point x="62" y="393" type="line"/>
      <point x="219" y="393" type="line"/>
    </contour>
  </outline>
</glyph>
<glyph name="tbar" format="2">
  <advance width="614"/>
  <unicode hex="0167"/>
  <outline>
    <contour>
      <point x="104" y="217" type="line"/>
      <point x="219" y="217" type="line"/>
      <point x="219" y="177" type="line" smooth="yes"/>
      <point x="219" y="46"/>
      <point x="255" y="6"/>
      <point x="377" y="0" type="curve" smooth="yes"/>
      <point x="532" y="-7" type="line"/>
      <point x="538" y="63" type="line"/>
      <point x="396" y="71" type="line" smooth="yes"/>
      <point x="325" y="75"/>
      <point x="304" y="99"/>
      <point x="304" y="186" type="curve" smooth="yes"/>
      <point x="304" y="217" type="line"/>
      <point x="459" y="217" type="line"/>
      <point x="459" y="274" type="line"/>
      <point x="304" y="274" type="line"/>
      <point x="304" y="396" type="line"/>
      <point x="510" y="396" type="line"/>
      <point x="510" y="465" type="line"/>
      <point x="303" y="465" type="line"/>
      <point x="303" y="638" type="line"/>
      <point x="220" y="638" type="line"/>
      <point x="220" y="465" type="line"/>
      <point x="62" y="465" type="line"/>
      <point x="62" y="396" type="line"/>
      <point x="219" y="396" type="line"/>
      <point x="219" y="274" type="line"/>
      <point x="104" y="274" type="line"/>
    </contour>
  </outline>
</glyph>
<glyph name="Uogonek" format="2">
  <advance width="614"/>
  <unicode hex="0172"/>
  <outline>
    <contour>
      <point x="214" y="-160" type="curve" smooth="yes"/>
      <point x="214" y="-207"/>
      <point x="239" y="-231"/>
      <point x="305" y="-235" type="curve" smooth="yes"/>
      <point x="400" y="-240" type="line"/>
      <point x="406" y="-181" type="line"/>
      <point x="330" y="-177" type="line" smooth="yes"/>
      <point x="294" y="-175"/>
      <point x="284" y="-160"/>
      <point x="284" y="-134" type="curve" smooth="yes"/>
      <point x="284" y="-115"/>
      <point x="289" y="-87"/>
      <point x="341" y="-13" type="curve"/>
      <point x="470" y="-1"/>
      <point x="537" y="79"/>
      <point x="537" y="232" type="curve" smooth="yes"/>
      <point x="537" y="655" type="line"/>
      <point x="451" y="655" type="line"/>
      <point x="451" y="232" type="line" smooth="yes"/>
      <point x="451" y="113"/>
      <point x="402" y="61"/>
      <point x="307" y="61" type="curve" smooth="yes"/>
      <point x="214" y="61"/>
      <point x="164" y="115"/>
      <point x="164" y="232" type="curve" smooth="yes"/>
      <point x="164" y="655" type="line"/>
      <point x="77" y="655" type="line"/>
      <point x="77" y="232" type="line" smooth="yes"/>
      <point x="77" y="72"/>
      <point x="151" y="-10"/>
      <point x="291" y="-15" type="curve"/>
      <point x="225" y="-99"/>
      <point x="214" y="-133"/>
    </contour>
  </outline>
</glyph>
<glyph name="uogonek" format="2">
  <advance width="614"/>
  <unicode hex="0173"/>
  <outline>
    <contour>
      <point x="372" y="-155" type="curve" smooth="yes"/>
      <point x="372" y="-202"/>
      <point x="397" y="-226"/>
      <point x="464" y="-230" type="curve" smooth="yes"/>
      <point x="558" y="-235" type="line"/>
      <point x="564" y="-176" type="line"/>
      <point x="488" y="-172" type="line" smooth="yes"/>
      <point x="453" y="-170"/>
      <point x="443" y="-155"/>
      <point x="443" y="-129" type="curve" smooth="yes"/>
      <point x="443" y="-109"/>
      <point x="449" y="-79"/>
      <point x="506" y="0" type="curve"/>
      <point x="519" y="0" type="line"/>
      <point x="519" y="465" type="line"/>
      <point x="433" y="465" type="line"/>
      <point x="433" y="180" type="line"/>
      <point x="345" y="96"/>
      <point x="302" y="71"/>
      <point x="257" y="71" type="curve" smooth="yes"/>
      <point x="201" y="71"/>
      <point x="178" y="100"/>
      <point x="178" y="156" type="curve" smooth="yes"/>
      <point x="178" y="465" type="line"/>
      <point x="92" y="465" type="line"/>
      <point x="92" y="141" type="line" smooth="yes"/>
      <point x="92" y="50"/>
      <point x="138" y="-7"/>
      <point x="233" y="-7" type="curve" smooth="yes"/>
      <point x="298" y="-7"/>
      <point x="350" y="22"/>
      <point x="436" y="103" type="curve"/>
      <point x="441" y="0" type="line"/>
      <point x="457" y="0" type="line"/>
      <point x="384" y="-91"/>
      <point x="372" y="-127"/>
    </contour>
  </outline>
</glyph>
<glyph name="Schwa" format="2">
  <advance width="614"/>
  <unicode hex="018F"/>
  <outline>
    <contour>
      <point x="552" y="327" type="curve" smooth="yes"/>
      <point x="552" y="568"/>
      <point x="460" y="664"/>
      <point x="263" y="664" type="curve" smooth="yes"/>
      <point x="227" y="664"/>
      <point x="190" y="662"/>
      <point x="144" y="655" type="curve"/>
      <point x="152" y="582" type="line"/>
      <point x="191" y="589"/>
      <point x="229" y="592"/>
      <point x="262" y="592" type="curve" smooth="yes"/>
      <point x="386" y="592"/>
      <point x="452" y="545"/>
      <point x="462" y="375" type="curve"/>
      <point x="68" y="375" type="line"/>
      <point x="64" y="348"/>
      <point x="63" y="327"/>
      <point x="63" y="311" type="curve" smooth="yes"/>
      <point x="63" y="89"/>
      <point x="140" y="-15"/>
      <point x="299" y="-15" type="curve" smooth="yes"/>
      <point x="452" y="-15"/>
      <point x="552" y="83"/>
    </contour>
    <contour>
      <point x="299" y="57" type="curve" smooth="yes"/>
      <point x="210" y="57"/>
      <point x="152" y="108"/>
      <point x="149" y="306" type="curve"/>
      <point x="463" y="306" type="line"/>
      <point x="459" y="111"/>
      <point x="398" y="57"/>
    </contour>
  </outline>
</glyph>
<glyph name="Ohorn" format="2">
  <advance width="614"/>
  <unicode hex="01A0"/>
  <anchor x="308" y="696" name="aboveUC"/>
  <anchor x="308" y="661" name="aboveUCx"/>
  <anchor x="309" y="-40" name="below"/>
  <outline>
    <contour>
      <point x="306" y="655" type="line" smooth="yes"/>
      <point x="155.0" y="655.0"/>
      <point x="56" y="538"/>
      <point x="56" y="323" type="curve" smooth="yes"/>
      <point x="56" y="100"/>
      <point x="154" y="-15"/>
      <point x="306" y="-15" type="curve" smooth="yes"/>
      <point x="459" y="-15"/>
      <point x="558" y="103"/>
      <point x="558" y="326" type="curve" smooth="yes"/>
      <point x="558" y="472"/>
      <point x="511" y="557"/>
      <point x="423" y="603" type="curve"/>
      <point x="425" y="609" type="line"/>
      <point x="449" y="605"/>
      <point x="466" y="603"/>
      <point x="479" y="603" type="curve" smooth="yes"/>
      <point x="564" y="603"/>
      <point x="608" y="647"/>
      <point x="611" y="768" type="curve"/>
      <point x="529" y="768" type="line"/>
      <point x="525" y="679"/>
      <point x="510.0" y="655.0"/>
      <point x="429" y="655" type="curve" smooth="yes"/>
    </contour>
    <contour>
      <point x="145" y="325" type="curve" smooth="yes"/>
      <point x="145" y="502"/>
      <point x="206" y="583"/>
      <point x="307" y="583" type="curve" smooth="yes"/>
      <point x="407" y="583"/>
      <point x="469" y="503"/>
      <point x="469" y="324" type="curve" smooth="yes"/>
      <point x="469" y="141"/>
      <point x="408" y="57"/>
      <point x="307" y="57" type="curve" smooth="yes"/>
      <point x="207" y="57"/>
      <point x="145" y="140"/>
    </contour>
  </outline>
</glyph>
<glyph name="ohorn" format="2">
  <advance width="614"/>
  <unicode hex="01A1"/>
  <anchor x="307" y="507" name="aboveLC"/>
  <anchor x="307" y="472" name="aboveLCx"/>
  <anchor x="307" y="-40" name="below"/>
  <outline>
    <contour>
      <point x="464" y="414" type="curve" smooth="yes"/>
      <point x="542" y="414"/>
      <point x="583" y="459"/>
      <point x="588" y="577" type="curve"/>
      <point x="507" y="577" type="line"/>
      <point x="503" y="490"/>
      <point x="488" y="465"/>
      <point x="415" y="465" type="curve" smooth="yes"/>
      <point x="309" y="465" type="line"/>
      <point x="165" y="465"/>
      <point x="64" y="366"/>
      <point x="64" y="229" type="curve" smooth="yes"/>
      <point x="64" y="81"/>
      <point x="164" y="-15"/>
      <point x="305" y="-15" type="curve" smooth="yes"/>
      <point x="449" y="-15"/>
      <point x="550" y="82"/>
      <point x="550" y="223" type="curve" smooth="yes"/>
      <point x="550" y="303"/>
      <point x="512" y="364"/>
      <point x="433" y="410" type="curve"/>
      <point x="435" y="416" type="line"/>
      <point x="445" y="415"/>
      <point x="455" y="414"/>
    </contour>
    <contour>
      <point x="307" y="57" type="curve" smooth="yes"/>
      <point x="214" y="57"/>
      <point x="151" y="121"/>
      <point x="151" y="228" type="curve" smooth="yes"/>
      <point x="151" y="333"/>
      <point x="215" y="398"/>
      <point x="307" y="398" type="curve" smooth="yes"/>
      <point x="400" y="398"/>
      <point x="463" y="330"/>
      <point x="463" y="228" type="curve" smooth="yes"/>
      <point x="463" y="118"/>
      <point x="400" y="57"/>
    </contour>
  </outline>
</glyph>
<glyph name="Uhorn" format="2">
  <advance width="614"/>
  <unicode hex="01AF"/>
  <anchor x="307" y="691" name="aboveUC"/>
  <anchor x="307" y="656" name="aboveUCx"/>
  <anchor x="307" y="-40" name="below"/>
  <outline>
    <contour>
      <point x="451" y="232" type="line" smooth="yes"/>
      <point x="451" y="113"/>
      <point x="402" y="61"/>
      <point x="307" y="61" type="curve" smooth="yes"/>
      <point x="214" y="61"/>
      <point x="164" y="115"/>
      <point x="164" y="232" type="curve" smooth="yes"/>
      <point x="164" y="655" type="line"/>
      <point x="77" y="655" type="line"/>
      <point x="77" y="232" type="line" smooth="yes"/>
      <point x="77" y="67"/>
      <point x="156" y="-15"/>
      <point x="305" y="-15" type="curve" smooth="yes"/>
      <point x="457" y="-15"/>
      <point x="537" y="65"/>
      <point x="537" y="232" type="curve" smooth="yes"/>
      <point x="537" y="599" type="line"/>
      <point x="625" y="599"/>
      <point x="671" y="642"/>
      <point x="674" y="768" type="curve"/>
      <point x="593" y="768" type="line"/>
      <point x="589" y="677"/>
      <point x="574" y="655"/>
      <point x="492" y="655" type="curve" smooth="yes"/>
      <point x="451" y="655" type="line"/>
    </contour>
  </outline>
</glyph>
<glyph name="Oogonek" format="2">
  <advance width="614"/>
  <unicode hex="01EA"/>
  <outline>
    <contour>
      <point x="209" y="-160" type="curve" smooth="yes"/>
      <point x="209" y="-207"/>
      <point x="234" y="-231"/>
      <point x="301" y="-235" type="curve" smooth="yes"/>
      <point x="395" y="-240" type="line"/>
      <point x="401" y="-181" type="line"/>
      <point x="325" y="-177" type="line" smooth="yes"/>
      <point x="290" y="-175"/>
      <point x="280" y="-160"/>
      <point x="280" y="-134" type="curve" smooth="yes"/>
      <point x="280" y="-115"/>
      <point x="285" y="-87"/>
      <point x="337" y="-13" type="curve"/>
      <point x="472" y="2"/>
      <point x="558" y="119"/>
      <point x="558" y="329" type="curve" smooth="yes"/>
      <point x="558" y="552"/>
      <point x="461" y="670"/>
      <point x="308" y="670" type="curve" smooth="yes"/>
      <point x="155" y="670"/>
      <point x="56" y="549"/>
      <point x="56" y="325" type="curve" smooth="yes"/>
      <point x="56" y="110"/>
      <point x="146" y="-5"/>
      <point x="287" y="-14" type="curve"/>
      <point x="220" y="-99"/>
      <point x="209" y="-133"/>
    </contour>
    <contour>
      <point x="145" y="327" type="curve" smooth="yes"/>
      <point x="145" y="513"/>
      <point x="206" y="598"/>
      <point x="307" y="598" type="curve" smooth="yes"/>
      <point x="407" y="598"/>
      <point x="469" y="514"/>
      <point x="469" y="327" type="curve" smooth="yes"/>
      <point x="469" y="142"/>
      <point x="408" y="57"/>
      <point x="307" y="57" type="curve" smooth="yes"/>
      <point x="207" y="57"/>
      <point x="145" y="141"/>
    </contour>
  </outline>
</glyph>
<glyph name="oogonek" format="2">
  <advance width="614"/>
  <unicode hex="01EB"/>
  <outline>
    <contour>
      <point x="207" y="-160" type="curve" smooth="yes"/>
      <point x="207" y="-207"/>
      <point x="232" y="-231"/>
      <point x="299" y="-235" type="curve" smooth="yes"/>
      <point x="393" y="-240" type="line"/>
      <point x="399" y="-181" type="line"/>
      <point x="323" y="-177" type="line" smooth="yes"/>
      <point x="287" y="-175"/>
      <point x="277" y="-160"/>
      <point x="277" y="-134" type="curve" smooth="yes"/>
      <point x="277" y="-115"/>
      <point x="282" y="-87"/>
      <point x="334" y="-14" type="curve"/>
      <point x="462" y="-1"/>
      <point x="550" y="95"/>
      <point x="550" y="231" type="curve" smooth="yes"/>
      <point x="550" y="379"/>
      <point x="450" y="480"/>
      <point x="309" y="480" type="curve" smooth="yes"/>
      <point x="165" y="480"/>
      <point x="64" y="377"/>
      <point x="64" y="234" type="curve" smooth="yes"/>
      <point x="64" y="91"/>
      <point x="155" y="-5"/>
      <point x="285" y="-14" type="curve"/>
      <point x="218" y="-99"/>
      <point x="207" y="-133"/>
    </contour>
    <contour>
      <point x="307" y="57" type="curve" smooth="yes"/>
      <point x="214" y="57"/>
      <point x="151" y="123"/>
      <point x="151" y="233" type="curve" smooth="yes"/>
      <point x="151" y="342"/>
      <point x="215" y="409"/>
      <point x="307" y="409" type="curve" smooth="yes"/>
      <point x="400" y="409"/>
      <point x="463" y="338"/>
      <point x="463" y="232" type="curve" smooth="yes"/>
      <point x="463" y="120"/>
      <point x="400" y="57"/>
    </contour>
  </outline>
</glyph>
<glyph name="dotlessj" format="2">
  <advance width="614"/>
  <unicode hex="0237"/>
  <anchor x="377" y="502" name="aboveLC"/>
  <outline>
    <contour>
      <point x="418" y="-49" type="curve" smooth="yes"/>
      <point x="418" y="465" type="line"/>
      <point x="119" y="465" type="line"/>
      <point x="119" y="393" type="line"/>
      <point x="332" y="393" type="line"/>
      <point x="332" y="-50" type="line" smooth="yes"/>
      <point x="332" y="-122"/>
      <point x="303" y="-149"/>
      <point x="228" y="-155" type="curve" smooth="yes"/>
      <point x="100" y="-164" type="line"/>
      <point x="103" y="-238" type="line"/>
      <point x="234" y="-230" type="line" smooth="yes"/>
      <point x="368" y="-222"/>
      <point x="418" y="-173"/>
    </contour>
  </outline>
</glyph>
<glyph name="schwa" format="2">
  <advance width="614"/>
  <unicode hex="0259"/>
  <outline>
    <contour>
      <point x="257" y="403" type="line" smooth="yes"/>
      <point x="386" y="399"/>
      <point x="445" y="357"/>
      <point x="454" y="264" type="curve"/>
      <point x="77" y="264" type="line"/>
      <point x="75" y="255"/>
      <point x="74" y="242"/>
      <point x="74" y="228" type="curve" smooth="yes"/>
      <point x="74" y="69"/>
      <point x="162" y="-14"/>
      <point x="297" y="-14" type="curve" smooth="yes"/>
      <point x="437" y="-14"/>
      <point x="539" y="93"/>
      <point x="539" y="241" type="curve" smooth="yes"/>
      <point x="539" y="384"/>
      <point x="462" y="468"/>
      <point x="282" y="471" type="curve" smooth="yes"/>
      <point x="164" y="473" type="line"/>
      <point x="161" y="405" type="line"/>
    </contour>
    <contour>
      <point x="297" y="54" type="curve" smooth="yes"/>
      <point x="219" y="54"/>
      <point x="166" y="98"/>
      <point x="159" y="200" type="curve"/>
      <point x="452" y="200" type="line"/>
      <point x="439" y="106"/>
      <point x="375" y="54"/>
    </contour>
  </outline>
</glyph>
<glyph name="ringhalfright" format="2">
  <advance width="614"/>
  <unicode hex="02BE"/>
  <outline>
    <contour>
      <point x="167" y="315" type="line"/>
      <point x="355" y="315"/>
      <point x="431" y="405"/>
      <point x="431" y="522" type="curve" smooth="yes"/>
      <point x="431" y="637"/>
      <point x="355" y="725"/>
      <point x="167" y="725" type="curve"/>
      <point x="167" y="651" type="line"/>
      <point x="303" y="651"/>
      <point x="343" y="600"/>
      <point x="343" y="522" type="curve" smooth="yes"/>
      <point x="343" y="442"/>
      <point x="303" y="389"/>
      <point x="167" y="389" type="curve"/>
    </contour>
  </outline>
</glyph>
<glyph name="ringhalfleft" format="2">
  <advance width="614"/>
  <unicode hex="02BF"/>
  <outline>
    <contour>
      <point x="418" y="725" type="line"/>
      <point x="230" y="725"/>
      <point x="154" y="636"/>
      <point x="154" y="521" type="curve" smooth="yes"/>
      <point x="154" y="404"/>
      <point x="230" y="315"/>
      <point x="418" y="315" type="curve"/>
      <point x="418" y="389" type="line"/>
      <point x="282" y="389"/>
      <point x="242" y="441"/>
      <point x="242" y="521" type="curve" smooth="yes"/>
      <point x="242" y="599"/>
      <point x="283" y="651"/>
      <point x="418" y="651" type="curve"/>
    </contour>
  </outline>
</glyph>
<glyph name="gravecmb" format="2">
  <unicode hex="0300"/>
  <anchor x="0" y="502" name="_aboveLC"/>
  <anchor x="0" y="472" name="_aboveLCx"/>
  <outline>
    <contour>
      <point x="89" y="586" type="line"/>
      <point x="-122" y="744" type="line"/>
      <point x="-164" y="686" type="line"/>
      <point x="56" y="541" type="line"/>
    </contour>
  </outline>
</glyph>
<glyph name="acutecmb" format="2">
  <unicode hex="0301"/>
  <anchor x="0" y="502" name="_aboveLC"/>
  <anchor x="0" y="472" name="_aboveLCx"/>
  <outline>
    <contour>
      <point x="-88" y="587" type="line"/>
      <point x="-56" y="541" type="line"/>
      <point x="164" y="687" type="line"/>
      <point x="122" y="745" type="line"/>
    </contour>
  </outline>
</glyph>
<glyph name="tildecmb" format="2">
  <unicode hex="0303"/>
  <anchor x="0" y="502" name="_aboveLC"/>
  <anchor x="0" y="472" name="_aboveLCx"/>
  <outline>
    <contour>
      <point x="-20" y="611" type="curve" smooth="yes"/>
      <point x="36" y="552"/>
      <point x="59" y="541"/>
      <point x="82" y="541" type="curve" smooth="yes"/>
      <point x="120" y="541"/>
      <point x="148" y="563"/>
      <point x="200" y="716" type="curve"/>
      <point x="145" y="736" type="line"/>
      <point x="106" y="625"/>
      <point x="95" y="612"/>
      <point x="80" y="612" type="curve" smooth="yes"/>
      <point x="69" y="612"/>
      <point x="60" y="619"/>
      <point x="17" y="664" type="curve" smooth="yes"/>
      <point x="-39" y="723"/>
      <point x="-62" y="734"/>
      <point x="-85" y="734" type="curve" smooth="yes"/>
      <point x="-123" y="734"/>
      <point x="-151" y="713"/>
      <point x="-203" y="559" type="curve"/>
      <point x="-148" y="539" type="line"/>
      <point x="-108" y="651"/>
      <point x="-98" y="664"/>
      <point x="-83" y="664" type="curve" smooth="yes"/>
      <point x="-72" y="664"/>
      <point x="-63" y="657"/>
    </contour>
  </outline>
</glyph>
<glyph name="macroncmb" format="2">
  <unicode hex="0304"/>
  <anchor x="0" y="502" name="_aboveLC"/>
  <anchor x="0" y="472" name="_aboveLCx"/>
  <outline>
    <contour>
      <point x="-166" y="581" type="line"/>
      <point x="166" y="581" type="line"/>
      <point x="166" y="646" type="line"/>
      <point x="-166" y="646" type="line"/>
    </contour>
  </outline>
</glyph>
<glyph name="brevecmb" format="2">
  <unicode hex="0306"/>
  <anchor x="0" y="502" name="_aboveLC"/>
  <anchor x="0" y="472" name="_aboveLCx"/>
  <outline>
    <contour>
      <point x="0" y="605" type="curve" smooth="yes"/>
      <point x="-59" y="605"/>
      <point x="-97" y="643"/>
      <point x="-130" y="738" type="curve"/>
      <point x="-185" y="720" type="line"/>
      <point x="-151" y="593"/>
      <point x="-92" y="541"/>
      <point x="0" y="541" type="curve" smooth="yes"/>
      <point x="92" y="541"/>
      <point x="151" y="593"/>
      <point x="185" y="720" type="curve"/>
      <point x="130" y="738" type="line"/>
      <point x="98" y="644"/>
      <point x="59" y="605"/>
    </contour>
  </outline>
</glyph>
<glyph name="dotaccentcmb" format="2">
  <unicode hex="0307"/>
  <anchor x="0" y="502" name="_aboveLC"/>
  <anchor x="0" y="472" name="_aboveLCx"/>
  <outline>
    <contour>
      <point x="-1" y="561" type="curve" smooth="yes"/>
      <point x="38" y="561"/>
      <point x="62" y="581"/>
      <point x="62" y="620" type="curve" smooth="yes"/>
      <point x="62" y="658"/>
      <point x="41" y="680"/>
      <point x="0" y="680" type="curve" smooth="yes"/>
      <point x="-38" y="680"/>
      <point x="-61" y="655"/>
      <point x="-61" y="620" type="curve" smooth="yes"/>
      <point x="-61" y="581"/>
      <point x="-39" y="561"/>
    </contour>
  </outline>
</glyph>
<glyph name="dieresiscmb" format="2">
  <unicode hex="0308"/>
  <anchor x="0" y="502" name="_aboveLC"/>
  <anchor x="0" y="472" name="_aboveLCx"/>
  <outline>
    <contour>
      <point x="-118" y="561" type="curve" smooth="yes"/>
      <point x="-81" y="561"/>
      <point x="-58" y="581"/>
      <point x="-58" y="617" type="curve" smooth="yes"/>
      <point x="-58" y="654"/>
      <point x="-79" y="674"/>
      <point x="-117" y="674" type="curve" smooth="yes"/>
      <point x="-153" y="674"/>
      <point x="-176" y="651"/>
      <point x="-176" y="617" type="curve" smooth="yes"/>
      <point x="-176" y="581"/>
      <point x="-154" y="561"/>
    </contour>
    <contour>
      <point x="116" y="561" type="curve" smooth="yes"/>
      <point x="153" y="561"/>
      <point x="176" y="581"/>
      <point x="176" y="617" type="curve" smooth="yes"/>
      <point x="176" y="654"/>
      <point x="155" y="674"/>
      <point x="117" y="674" type="curve" smooth="yes"/>
      <point x="81" y="674"/>
      <point x="59" y="651"/>
      <point x="59" y="617" type="curve" smooth="yes"/>
      <point x="59" y="581"/>
      <point x="80" y="561"/>
    </contour>
  </outline>
</glyph>
<glyph name="hookcmb" format="2">
  <unicode hex="0309"/>
  <anchor x="0" y="502" name="_aboveLC"/>
  <anchor x="0" y="472" name="_aboveLCx"/>
  <outline>
    <contour>
      <point x="-92" y="541" type="line"/>
      <point x="67" y="556"/>
      <point x="108" y="613"/>
      <point x="108" y="656" type="curve" smooth="yes"/>
      <point x="108" y="705"/>
      <point x="76" y="740"/>
      <point x="-78" y="762" type="curve"/>
      <point x="-116" y="716" type="line"/>
      <point x="-116" y="713" type="line"/>
      <point x="13" y="693"/>
      <point x="30" y="672"/>
      <point x="30" y="649" type="curve" smooth="yes"/>
      <point x="30" y="624"/>
      <point x="4" y="599"/>
      <point x="-111" y="583" type="curve"/>
      <point x="-111" y="581" type="line"/>
    </contour>
  </outline>
</glyph>
<glyph name="ringcmb" format="2">
  <unicode hex="030A"/>
  <anchor x="0" y="502" name="_aboveLC"/>
  <anchor x="0" y="472" name="_aboveLCx"/>
  <outline>
    <contour>
      <point x="-1" y="541" type="curve" smooth="yes"/>
      <point x="85" y="541"/>
      <point x="143" y="589"/>
      <point x="143" y="666" type="curve" smooth="yes"/>
      <point x="143" y="743"/>
      <point x="86" y="790"/>
      <point x="1" y="790" type="curve" smooth="yes"/>
      <point x="-85" y="790"/>
      <point x="-143" y="741"/>
      <point x="-143" y="665" type="curve" smooth="yes"/>
      <point x="-143" y="587"/>
      <point x="-86" y="541"/>
    </contour>
    <contour>
      <point x="0" y="596" type="curve" smooth="yes"/>
      <point x="-56" y="596"/>
      <point x="-84" y="619"/>
      <point x="-84" y="664" type="curve" smooth="yes"/>
      <point x="-84" y="713"/>
      <point x="-55" y="735"/>
      <point x="0" y="735" type="curve" smooth="yes"/>
      <point x="55" y="735"/>
      <point x="83" y="712"/>
      <point x="83" y="667" type="curve" smooth="yes"/>
      <point x="83" y="619"/>
      <point x="54" y="596"/>
    </contour>
  </outline>
</glyph>
<glyph name="hungarumlautcmb" format="2">
  <unicode hex="030B"/>
  <anchor x="0" y="502" name="_aboveLC"/>
  <anchor x="0" y="472" name="_aboveLCx"/>
  <outline>
    <contour>
      <point x="-171" y="574" type="line"/>
      <point x="-129" y="541" type="line"/>
      <point x="-5" y="698" type="line"/>
      <point x="-70" y="739" type="line"/>
    </contour>
    <contour>
      <point x="57" y="574" type="line"/>
      <point x="99" y="541" type="line"/>
      <point x="223" y="698" type="line"/>
      <point x="158" y="739" type="line"/>
    </contour>
  </outline>
</glyph>
<glyph name="caroncmb" format="2">
  <unicode hex="030C"/>
  <anchor x="0" y="502" name="_aboveLC"/>
  <anchor x="0" y="472" name="_aboveLCx"/>
  <outline>
    <contour>
      <point x="185" y="708" type="line"/>
      <point x="149" y="746" type="line"/>
      <point x="0" y="614" type="line"/>
      <point x="-149" y="746" type="line"/>
      <point x="-185" y="708" type="line"/>
      <point x="-22" y="541" type="line"/>
      <point x="22" y="541" type="line"/>
    </contour>
  </outline>
</glyph>
<glyph name="commaturnedabovecmb" format="2">
  <unicode hex="0312"/>
  <anchor x="0" y="502" name="_aboveLC"/>
  <anchor x="0" y="472" name="_aboveLCx"/>
  <outline>
    <contour>
      <point x="89" y="762" type="line"/>
      <point x="-70" y="748"/>
      <point x="-111" y="690"/>
      <point x="-111" y="648" type="curve" smooth="yes"/>
      <point x="-111" y="598"/>
      <point x="-79" y="563"/>
      <point x="75" y="541" type="curve"/>
      <point x="114" y="587" type="line"/>
      <point x="114" y="590" type="line"/>
      <point x="-15" y="610"/>
      <point x="-33" y="631"/>
      <point x="-33" y="655" type="curve" smooth="yes"/>
      <point x="-33" y="680"/>
      <point x="-7" y="704"/>
      <point x="108" y="720" type="curve"/>
      <point x="108" y="722" type="line"/>
    </contour>
  </outline>
</glyph>
<glyph name="dotbelowcmb" format="2">
  <unicode hex="0323"/>
  <anchor x="0" y="-35" name="_below"/>
  <anchor x="0" y="-5" name="_belowx"/>
  <outline>
    <contour>
      <point x="-1" y="-214" type="curve" smooth="yes"/>
      <point x="38" y="-214"/>
      <point x="62" y="-194"/>
      <point x="62" y="-156" type="curve" smooth="yes"/>
      <point x="62" y="-117"/>
      <point x="41" y="-96"/>
      <point x="0" y="-96" type="curve" smooth="yes"/>
      <point x="-38" y="-96"/>
      <point x="-61" y="-120"/>
      <point x="-61" y="-156" type="curve" smooth="yes"/>
      <point x="-61" y="-194"/>
      <point x="-39" y="-214"/>
    </contour>
  </outline>
</glyph>
<glyph name="dieresisbelowcmb" format="2">
  <unicode hex="0324"/>
  <anchor x="0" y="-35" name="_below"/>
  <anchor x="0" y="-5" name="_belowx"/>
  <outline>
    <contour>
      <point x="-118" y="-209" type="curve" smooth="yes"/>
      <point x="-81" y="-209"/>
      <point x="-58" y="-189"/>
      <point x="-58" y="-153" type="curve" smooth="yes"/>
      <point x="-58" y="-116"/>
      <point x="-79" y="-96"/>
      <point x="-117" y="-96" type="curve" smooth="yes"/>
      <point x="-153" y="-96"/>
      <point x="-176" y="-119"/>
      <point x="-176" y="-153" type="curve" smooth="yes"/>
      <point x="-176" y="-189"/>
      <point x="-154" y="-209"/>
    </contour>
    <contour>
      <point x="116" y="-209" type="curve" smooth="yes"/>
      <point x="153" y="-209"/>
      <point x="176" y="-189"/>
      <point x="176" y="-153" type="curve" smooth="yes"/>
      <point x="176" y="-116"/>
      <point x="155" y="-96"/>
      <point x="117" y="-96" type="curve" smooth="yes"/>
      <point x="81" y="-96"/>
      <point x="59" y="-119"/>
      <point x="59" y="-153" type="curve" smooth="yes"/>
      <point x="59" y="-189"/>
      <point x="80" y="-209"/>
    </contour>
  </outline>
</glyph>
<glyph name="uni0326" format="2">
  <unicode hex="0326"/>
  <anchor x="0" y="-35" name="_below"/>
  <anchor x="0" y="-5" name="_belowx"/>
  <outline>
    <contour>
      <point x="-92" y="-297" type="line"/>
      <point x="67" y="-282"/>
      <point x="108" y="-225"/>
      <point x="108" y="-182" type="curve" smooth="yes"/>
      <point x="108" y="-133"/>
      <point x="76" y="-98"/>
      <point x="-78" y="-76" type="curve"/>
      <point x="-116" y="-122" type="line"/>
      <point x="-116" y="-125" type="line"/>
      <point x="13" y="-145"/>
      <point x="30" y="-166"/>
      <point x="30" y="-189" type="curve" smooth="yes"/>
      <point x="30" y="-214"/>
      <point x="4" y="-239"/>
      <point x="-111" y="-255" type="curve"/>
      <point x="-111" y="-257" type="line"/>
    </contour>
  </outline>
</glyph>
<glyph name="cedillacmb" format="2">
  <unicode hex="0327"/>
  <anchor x="0" y="-10" name="_belowcedilla"/>
  <outline>
    <contour>
      <point x="-18" y="21" type="line"/>
      <point x="-59" y="-96" type="line"/>
      <point x="-53" y="-106" type="line"/>
      <point x="70" y="-110"/>
      <point x="87" y="-126"/>
      <point x="87" y="-150" type="curve" smooth="yes"/>
      <point x="87" y="-176"/>
      <point x="66" y="-195"/>
      <point x="-113" y="-210" type="curve"/>
      <point x="-97" y="-265" type="line"/>
      <point x="135" y="-245"/>
      <point x="156" y="-202"/>
      <point x="156" y="-148" type="curve" smooth="yes"/>
      <point x="156" y="-102"/>
      <point x="131" y="-72"/>
      <point x="5" y="-59" type="curve"/>
      <point x="31" y="21" type="line"/>
    </contour>
  </outline>
</glyph>
<glyph name="ogonekcmb" format="2">
  <unicode hex="0328"/>
  <anchor x="0" y="-10" name="_belowogonek"/>
  <outline>
    <contour>
      <point x="-107" y="-155" type="curve" smooth="yes"/>
      <point x="-107" y="-202"/>
      <point x="-82" y="-226"/>
      <point x="-16" y="-230" type="curve" smooth="yes"/>
      <point x="79" y="-235" type="line"/>
      <point x="85" y="-176" type="line"/>
      <point x="9" y="-172" type="line" smooth="yes"/>
      <point x="-27" y="-170"/>
      <point x="-37" y="-155"/>
      <point x="-37" y="-129" type="curve" smooth="yes"/>
      <point x="-37" y="-108"/>
      <point x="-31" y="-77"/>
      <point x="33" y="10" type="curve"/>
      <point x="-12" y="12" type="line"/>
      <point x="-94" y="-88"/>
      <point x="-107" y="-126"/>
    </contour>
  </outline>
</glyph>
<glyph name="brevebelowcmb" format="2">
  <unicode hex="032E"/>
  <anchor x="0" y="-35" name="_below"/>
  <anchor x="0" y="-5" name="_belowx"/>
  <outline>
    <contour>
      <point x="0" y="-209" type="curve" smooth="yes"/>
      <point x="-59" y="-209"/>
      <point x="-97" y="-170"/>
      <point x="-130" y="-76" type="curve"/>
      <point x="-185" y="-94" type="line"/>
      <point x="-151" y="-221"/>
      <point x="-92" y="-272"/>
      <point x="0" y="-272" type="curve" smooth="yes"/>
      <point x="92" y="-272"/>
      <point x="151" y="-221"/>
      <point x="185" y="-94" type="curve"/>
      <point x="130" y="-76" type="line"/>
      <point x="98" y="-170"/>
      <point x="59" y="-209"/>
    </contour>
  </outline>
</glyph>
<glyph name="bahtthai" format="2">
  <advance width="614"/>
  <unicode hex="0E3F"/>
  <outline>
    <contour>
      <point x="347" y="-142" type="line"/>
      <point x="347" y="0" type="line"/>
      <point x="509" y="0"/>
      <point x="564" y="73"/>
      <point x="564" y="163" type="curve" smooth="yes"/>
      <point x="564" y="255"/>
      <point x="501" y="317"/>
      <point x="383" y="333" type="curve"/>
      <point x="383" y="337" type="line"/>
      <point x="510" y="358"/>
      <point x="552" y="426"/>
      <point x="552" y="502" type="curve" smooth="yes"/>
      <point x="552" y="595"/>
      <point x="492" y="655"/>
      <point x="354" y="655" type="curve" smooth="yes"/>
      <point x="347" y="655" type="line"/>
      <point x="347" y="797" type="line"/>
      <point x="280" y="797" type="line"/>
      <point x="280" y="655" type="line"/>
      <point x="95" y="655" type="line"/>
      <point x="95" y="0" type="line"/>
      <point x="280" y="0" type="line"/>
      <point x="280" y="-142" type="line"/>
    </contour>
    <contour>
      <point x="180" y="587" type="line"/>
      <point x="288" y="587" type="line"/>
      <point x="288" y="365" type="line"/>
      <point x="180" y="360" type="line"/>
    </contour>
    <contour>
      <point x="345" y="587" type="line" smooth="yes"/>
      <point x="425" y="587"/>
      <point x="465" y="554"/>
      <point x="465" y="488" type="curve" smooth="yes"/>
      <point x="465" y="432"/>
      <point x="426" y="385"/>
      <point x="339" y="370" type="curve"/>
      <point x="339" y="587" type="line"/>
    </contour>
    <contour>
      <point x="288" y="296" type="line"/>
      <point x="288" y="68" type="line"/>
      <point x="180" y="68" type="line"/>
      <point x="180" y="300" type="line"/>
    </contour>
    <contour>
      <point x="478" y="172" type="curve" smooth="yes"/>
      <point x="478" y="110"/>
      <point x="435" y="68"/>
      <point x="342" y="68" type="curve" smooth="yes"/>
      <point x="339" y="68" type="line"/>
      <point x="339" y="292" type="line"/>
      <point x="435" y="279"/>
      <point x="478" y="232"/>
    </contour>
  </outline>
</glyph>
<glyph name="Hcedilla" format="2">
  <advance width="614"/>
  <unicode hex="1E28"/>
  <outline>
    <contour>
      <point x="92" y="655" type="line"/>
      <point x="92" y="0" type="line"/>
      <point x="111" y="0" type="line"/>
      <point x="77" y="-96" type="line"/>
      <point x="83" y="-106" type="line"/>
      <point x="206" y="-110"/>
      <point x="223" y="-126"/>
      <point x="223" y="-150" type="curve" smooth="yes"/>
      <point x="223" y="-176"/>
      <point x="202" y="-195"/>
      <point x="23" y="-210" type="curve"/>
      <point x="39" y="-265" type="line"/>
      <point x="271" y="-245"/>
      <point x="292" y="-202"/>
      <point x="292" y="-148" type="curve" smooth="yes"/>
      <point x="292" y="-102"/>
      <point x="267" y="-72"/>
      <point x="141" y="-59" type="curve"/>
      <point x="160" y="0" type="line"/>
      <point x="179" y="0" type="line"/>
      <point x="179" y="294" type="line"/>
      <point x="435" y="294" type="line"/>
      <point x="435" y="0" type="line"/>
      <point x="522" y="0" type="line"/>
      <point x="522" y="655" type="line"/>
      <point x="435" y="655" type="line"/>
      <point x="435" y="367" type="line"/>
      <point x="179" y="367" type="line"/>
      <point x="179" y="655" type="line"/>
    </contour>
  </outline>
</glyph>
<glyph name="hcedilla" format="2">
  <advance width="614"/>
  <unicode hex="1E29"/>
  <outline>
    <contour>
      <point x="181" y="710" type="line"/>
      <point x="95" y="710" type="line"/>
      <point x="95" y="0" type="line"/>
      <point x="114" y="0" type="line"/>
      <point x="80" y="-96" type="line"/>
      <point x="86" y="-106" type="line"/>
      <point x="208" y="-110"/>
      <point x="225" y="-126"/>
      <point x="225" y="-150" type="curve" smooth="yes"/>
      <point x="225" y="-176"/>
      <point x="205" y="-195"/>
      <point x="25" y="-210" type="curve"/>
      <point x="41" y="-265" type="line"/>
      <point x="273" y="-245"/>
      <point x="295" y="-202"/>
      <point x="295" y="-148" type="curve" smooth="yes"/>
      <point x="295" y="-102"/>
      <point x="269" y="-72"/>
      <point x="143" y="-59" type="curve"/>
      <point x="163" y="0" type="line"/>
      <point x="181" y="0" type="line"/>
      <point x="181" y="286" type="line"/>
      <point x="269" y="369"/>
      <point x="312" y="394"/>
      <point x="357" y="394" type="curve" smooth="yes"/>
      <point x="413" y="394"/>
      <point x="436" y="366"/>
      <point x="436" y="309" type="curve" smooth="yes"/>
      <point x="436" y="0" type="line"/>
      <point x="522" y="0" type="line"/>
      <point x="522" y="324" type="line" smooth="yes"/>
      <point x="522" y="415"/>
      <point x="476" y="472"/>
      <point x="381" y="472" type="curve" smooth="yes"/>
      <point x="317" y="472"/>
      <point x="265" y="444"/>
      <point x="181" y="365" type="curve"/>
    </contour>
  </outline>
</glyph>
<glyph name="uni1E9E" format="2">
  <advance width="614"/>
  <unicode hex="1E9E"/>
  <outline>
    <contour>
      <point x="326" y="324" type="line"/>
      <point x="460" y="232"/>
      <point x="485" y="198"/>
      <point x="485" y="143" type="curve" smooth="yes"/>
      <point x="485" y="100"/>
      <point x="460" y="65"/>
      <point x="399" y="65" type="curve" smooth="yes"/>
      <point x="373" y="65"/>
      <point x="352" y="67"/>
      <point x="324" y="72" type="curve"/>
      <point x="317" y="1" type="line"/>
      <point x="342" y="-4"/>
      <point x="369" y="-6"/>
      <point x="408" y="-6" type="curve" smooth="yes"/>
      <point x="510" y="-6"/>
      <point x="570" y="55"/>
      <point x="570" y="140" type="curve" smooth="yes"/>
      <point x="570" y="211"/>
      <point x="550" y="257"/>
      <point x="411" y="353" type="curve"/>
      <point x="538" y="561" type="line"/>
      <point x="538" y="583" type="line"/>
      <point x="438" y="649"/>
      <point x="374" y="670"/>
      <point x="306" y="670" type="curve" smooth="yes"/>
      <point x="175" y="670"/>
      <point x="88" y="587"/>
      <point x="88" y="430" type="curve" smooth="yes"/>
      <point x="88" y="0" type="line"/>
      <point x="174" y="0" type="line"/>
      <point x="174" y="433" type="line" smooth="yes"/>
      <point x="174" y="548"/>
      <point x="224" y="598"/>
      <point x="311" y="598" type="curve" smooth="yes"/>
      <point x="352" y="598"/>
      <point x="393" y="583"/>
      <point x="448" y="550" type="curve"/>
      <point x="326" y="350" type="line"/>
    </contour>
  </outline>
</glyph>
<glyph name="quoteleft" format="2">
  <advance width="614"/>
  <unicode hex="2018"/>
  <outline>
    <contour>
      <point x="446" y="710" type="line"/>
      <point x="362" y="710" type="line"/>
      <point x="253" y="624"/>
      <point x="208" y="558"/>
      <point x="199" y="433" type="curve"/>
      <point x="331" y="433" type="line"/>
      <point x="336" y="536"/>
      <point x="363" y="600"/>
      <point x="446" y="708" type="curve"/>
    </contour>
  </outline>
</glyph>
<glyph name="quoteright" format="2">
  <advance width="614"/>
  <unicode hex="2019"/>
  <outline>
    <contour>
      <point x="168" y="433" type="line"/>
      <point x="252" y="433" type="line"/>
      <point x="361" y="519"/>
      <point x="406" y="585"/>
      <point x="415" y="710" type="curve"/>
      <point x="283" y="710" type="line"/>
      <point x="278" y="607"/>
      <point x="251" y="543"/>
      <point x="168" y="435" type="curve"/>
    </contour>
  </outline>
</glyph>
<glyph name="quotedblleft" format="2">
  <advance width="614"/>
  <unicode hex="201C"/>
  <outline>
    <contour>
      <point x="309" y="710" type="line"/>
      <point x="233" y="710" type="line"/>
      <point x="123" y="612"/>
      <point x="96" y="563"/>
      <point x="74" y="425" type="curve"/>
      <point x="196" y="425" type="line"/>
      <point x="211" y="545"/>
      <point x="226" y="581"/>
      <point x="309" y="708" type="curve"/>
    </contour>
    <contour>
      <point x="560" y="710" type="line"/>
      <point x="483" y="710" type="line"/>
      <point x="373" y="612"/>
      <point x="346" y="563"/>
      <point x="324" y="425" type="curve"/>
      <point x="447" y="425" type="line"/>
      <point x="462" y="545"/>
      <point x="476" y="581"/>
      <point x="560" y="708" type="curve"/>
    </contour>
  </outline>
</glyph>
<glyph name="quotedblright" format="2">
  <advance width="614"/>
  <unicode hex="201D"/>
  <outline>
    <contour>
      <point x="305" y="425" type="line"/>
      <point x="381" y="425" type="line"/>
      <point x="491" y="524"/>
      <point x="518" y="572"/>
      <point x="540" y="710" type="curve"/>
      <point x="418" y="710" type="line"/>
      <point x="403" y="590"/>
      <point x="388" y="554"/>
      <point x="305" y="427" type="curve"/>
    </contour>
    <contour>
      <point x="54" y="425" type="line"/>
      <point x="131" y="425" type="line"/>
      <point x="241" y="524"/>
      <point x="268" y="572"/>
      <point x="290" y="710" type="curve"/>
      <point x="167" y="710" type="line"/>
      <point x="152" y="590"/>
      <point x="138" y="554"/>
      <point x="54" y="427" type="curve"/>
    </contour>
  </outline>
</glyph>
<glyph name="dagger" format="2">
  <advance width="614"/>
  <unicode hex="2020"/>
  <outline>
    <contour>
      <point x="539" y="430" type="curve"/>
      <point x="539" y="522" type="line"/>
      <point x="471" y="522"/>
      <point x="401" y="501"/>
      <point x="333" y="496" type="curve"/>
      <point x="336" y="567"/>
      <point x="358" y="640"/>
      <point x="358" y="710" type="curve"/>
      <point x="256" y="710" type="line"/>
      <point x="256" y="640"/>
      <point x="279" y="567"/>
      <point x="283" y="496" type="curve"/>
      <point x="213" y="500"/>
      <point x="140" y="522"/>
      <point x="75" y="522" type="curve"/>
      <point x="75" y="430" type="line"/>
      <point x="139" y="430"/>
      <point x="213" y="454"/>
      <point x="284" y="459" type="curve"/>
      <point x="282" y="306"/>
      <point x="256" y="152"/>
      <point x="256" y="0" type="curve"/>
      <point x="358" y="0" type="line"/>
      <point x="358" y="152"/>
      <point x="334" y="306"/>
      <point x="332" y="459" type="curve"/>
      <point x="401" y="454"/>
      <point x="471" y="430"/>
    </contour>
  </outline>
</glyph>
<glyph name="daggerdbl" format="2">
  <advance width="614"/>
  <unicode hex="2021"/>
  <outline>
    <contour>
      <point x="524" y="190" type="curve"/>
      <point x="524" y="282" type="line"/>
      <point x="460" y="282"/>
      <point x="396" y="261"/>
      <point x="332" y="256" type="curve"/>
      <point x="332" y="459" type="line"/>
      <point x="402" y="454"/>
      <point x="474" y="430"/>
      <point x="539" y="430" type="curve"/>
      <point x="539" y="522" type="line"/>
      <point x="472" y="522"/>
      <point x="402" y="501"/>
      <point x="333" y="496" type="curve"/>
      <point x="336" y="567"/>
      <point x="358" y="639"/>
      <point x="358" y="710" type="curve"/>
      <point x="256" y="710" type="line"/>
      <point x="256" y="639"/>
      <point x="279" y="567"/>
      <point x="283" y="496" type="curve"/>
      <point x="214" y="500"/>
      <point x="146" y="522"/>
      <point x="75" y="522" type="curve"/>
      <point x="75" y="430" type="line"/>
      <point x="144" y="430"/>
      <point x="214" y="454"/>
      <point x="284" y="459" type="curve"/>
      <point x="284" y="256" type="line"/>
      <point x="220" y="260"/>
      <point x="157" y="282"/>
      <point x="91" y="282" type="curve"/>
      <point x="91" y="190" type="line"/>
      <point x="157" y="190"/>
      <point x="220" y="214"/>
      <point x="284" y="219" type="curve"/>
      <point x="281" y="146"/>
      <point x="259" y="73"/>
      <point x="259" y="0" type="curve"/>
      <point x="355" y="0" type="line"/>
      <point x="355" y="73"/>
      <point x="335" y="146"/>
      <point x="332" y="219" type="curve"/>
      <point x="396" y="213"/>
      <point x="460" y="190"/>
    </contour>
  </outline>
</glyph>
<glyph name="bullet" format="2">
  <advance width="614"/>
  <unicode hex="2022"/>
  <outline>
    <contour>
      <point x="308" y="465" type="curve" smooth="yes"/>
      <point x="219" y="465"/>
      <point x="173" y="410"/>
      <point x="173" y="333" type="curve" smooth="yes"/>
      <point x="173" y="241"/>
      <point x="229" y="203"/>
      <point x="308" y="203" type="curve" smooth="yes"/>
      <point x="396" y="203"/>
      <point x="442" y="257"/>
      <point x="442" y="333" type="curve" smooth="yes"/>
      <point x="442" y="426"/>
      <point x="386" y="465"/>
    </contour>
  </outline>
</glyph>
<glyph name="twodotleader" format="2">
  <advance width="614"/>
  <unicode hex="2025"/>
  <outline>
    <contour>
      <point x="153" y="-15" type="curve" smooth="yes"/>
      <point x="199" y="-15"/>
      <point x="227" y="14"/>
      <point x="227" y="66" type="curve" smooth="yes"/>
      <point x="227" y="118"/>
      <point x="203" y="147"/>
      <point x="153" y="147" type="curve" smooth="yes"/>
      <point x="107" y="147"/>
      <point x="80" y="117"/>
      <point x="80" y="65" type="curve" smooth="yes"/>
      <point x="80" y="14"/>
      <point x="104" y="-15"/>
    </contour>
    <contour>
      <point x="461" y="-15" type="curve" smooth="yes"/>
      <point x="507" y="-15"/>
      <point x="534" y="14"/>
      <point x="534" y="66" type="curve" smooth="yes"/>
      <point x="534" y="118"/>
      <point x="510" y="147"/>
      <point x="461" y="147" type="curve" smooth="yes"/>
      <point x="414" y="147"/>
      <point x="387" y="117"/>
      <point x="387" y="65" type="curve" smooth="yes"/>
      <point x="387" y="14"/>
      <point x="411" y="-15"/>
    </contour>
  </outline>
</glyph>
<glyph name="ellipsis" format="2">
  <advance width="614"/>
  <unicode hex="2026"/>
  <outline>
    <contour>
      <point x="307" y="-15" type="curve" smooth="yes"/>
      <point x="347" y="-15"/>
      <point x="368" y="7"/>
      <point x="368" y="61" type="curve" smooth="yes"/>
      <point x="368" y="110"/>
      <point x="351" y="134"/>
      <point x="309" y="134" type="curve" smooth="yes"/>
      <point x="267" y="134"/>
      <point x="246" y="106"/>
      <point x="246" y="61" type="curve" smooth="yes"/>
      <point x="246" y="5"/>
      <point x="270" y="-15"/>
    </contour>
    <contour>
      <point x="512" y="-15" type="curve" smooth="yes"/>
      <point x="552" y="-15"/>
      <point x="573" y="7"/>
      <point x="573" y="61" type="curve" smooth="yes"/>
      <point x="573" y="110"/>
      <point x="556" y="134"/>
      <point x="514" y="134" type="curve" smooth="yes"/>
      <point x="472" y="134"/>
      <point x="451" y="106"/>
      <point x="451" y="61" type="curve" smooth="yes"/>
      <point x="451" y="5"/>
      <point x="475" y="-15"/>
    </contour>
    <contour>
      <point x="102" y="-15" type="curve" smooth="yes"/>
      <point x="142" y="-15"/>
      <point x="163" y="7"/>
      <point x="163" y="61" type="curve" smooth="yes"/>
      <point x="163" y="110"/>
      <point x="146" y="134"/>
      <point x="104" y="134" type="curve" smooth="yes"/>
      <point x="62" y="134"/>
      <point x="41" y="106"/>
      <point x="41" y="61" type="curve" smooth="yes"/>
      <point x="41" y="5"/>
      <point x="65" y="-15"/>
    </contour>
  </outline>
</glyph>
<glyph name="dong" format="2">
  <advance width="614"/>
  <unicode hex="20AB"/>
  <outline>
    <contour>
      <point x="261" y="-9" type="curve" smooth="yes"/>
      <point x="324" y="-9"/>
      <point x="374" y="14"/>
      <point x="433" y="76" type="curve"/>
      <point x="441" y="0" type="line"/>
      <point x="514" y="0" type="line"/>
      <point x="514" y="505" type="line"/>
      <point x="598" y="505" type="line"/>
      <point x="598" y="562" type="line"/>
      <point x="514" y="562" type="line"/>
      <point x="514" y="655" type="line"/>
      <point x="429" y="655" type="line"/>
      <point x="429" y="562" type="line"/>
      <point x="251" y="562" type="line"/>
      <point x="251" y="505" type="line"/>
      <point x="429" y="505" type="line"/>
      <point x="429" y="368" type="line"/>
      <point x="377" y="410"/>
      <point x="333" y="422"/>
      <point x="288" y="422" type="curve" smooth="yes"/>
      <point x="157" y="422"/>
      <point x="59" y="330"/>
      <point x="59" y="204" type="curve" smooth="yes"/>
      <point x="59" y="74"/>
      <point x="150" y="-9"/>
    </contour>
    <contour>
      <point x="147" y="207" type="curve" smooth="yes"/>
      <point x="147" y="290"/>
      <point x="203" y="356"/>
      <point x="298" y="356" type="curve" smooth="yes"/>
      <point x="331" y="356"/>
      <point x="374" y="345"/>
      <point x="429" y="296" type="curve"/>
      <point x="429" y="143" type="line"/>
      <point x="367" y="79"/>
      <point x="326" y="62"/>
      <point x="283" y="62" type="curve" smooth="yes"/>
      <point x="210" y="62"/>
      <point x="147" y="118"/>
    </contour>
    <contour>
      <point x="85" y="-152" type="line"/>
      <point x="506" y="-152" type="line"/>
      <point x="506" y="-92" type="line"/>
      <point x="85" y="-92" type="line"/>
    </contour>
  </outline>
</glyph>
